<svg width="32" height="32" viewBox="0 0 32 32" fill="none" xmlns="http://www.w3.org/2000/svg">
<mask id="path-1-inside-1_103_8" fill="white">
<path fill-rule="evenodd" clip-rule="evenodd" d="M24.5398 20.033C23.2884 20.6545 21.8888 21.0641 20.3931 21.2042C14.359 21.7692 9.04639 17.7322 8.52716 12.1873C8.34991 10.2944 8.75419 8.47045 9.60367 6.86651C5.3503 8.70604 2.56579 13.1263 3.02124 17.9902C3.58764 24.0388 8.95021 28.4831 14.9989 27.9167C19.6273 27.4833 23.3163 24.2416 24.5398 20.033Z"/>
</mask>
<path d="M24.5398 20.033L26.4603 20.5913L27.7326 16.2145L23.6502 18.2417L24.5398 20.033ZM9.60367 6.86651L11.3711 7.80258L14.0362 2.77046L8.80976 5.03083L9.60367 6.86651ZM23.6502 18.2417C22.6177 18.7545 21.4563 19.0959 20.2066 19.2129L20.5796 23.1954C22.3213 23.0324 23.9591 22.5544 25.4293 21.8243L23.6502 18.2417ZM20.2066 19.2129C15.1104 19.6901 10.9202 16.2908 10.5185 12.0008L6.53588 12.3738C7.17261 19.1736 13.6075 23.8483 20.5796 23.1954L20.2066 19.2129ZM10.5185 12.0008C10.3795 10.5165 10.6941 9.08085 11.3711 7.80258L7.83625 5.93045C6.81429 7.86005 6.32037 10.0723 6.53588 12.3738L10.5185 12.0008ZM5.01253 17.8037C4.64017 13.8272 6.91554 10.2081 10.3976 8.70219L8.80976 5.03083C3.78506 7.20396 0.491408 12.4254 1.02995 18.1766L5.01253 17.8037ZM14.8124 25.9254C9.8635 26.3888 5.47595 22.7526 5.01253 17.8037L1.02995 18.1766C1.69933 25.325 8.03692 30.5774 15.1853 29.908L14.8124 25.9254ZM22.6193 19.4748C21.6172 22.9217 18.5962 25.5711 14.8124 25.9254L15.1853 29.908C20.6585 29.3955 25.0155 25.5614 26.4603 20.5913L22.6193 19.4748Z" fill="white" mask="url(#path-1-inside-1_103_8)"/>
<mask id="path-3-inside-2_103_8" fill="white">
<path fill-rule="evenodd" clip-rule="evenodd" d="M24.9725 8H25.5C27.433 8 29 9.567 29 11.5C29 13.433 27.433 15 25.5 15H15.5C13.567 15 12 13.433 12 11.5C12 9.567 13.567 8 15.5 8H16.0275C16.2762 5.75002 18.1837 4 20.5 4C22.8163 4 24.7238 5.75002 24.9725 8Z"/>
</mask>
<path d="M24.9725 8L22.9846 8.21975L23.1814 10H24.9725V8ZM16.0275 8V10H17.8186L18.0154 8.21975L16.0275 8ZM24.9725 10H25.5V6H24.9725V10ZM25.5 10C26.3284 10 27 10.6716 27 11.5H31C31 8.46243 28.5376 6 25.5 6V10ZM27 11.5C27 12.3284 26.3284 13 25.5 13V17C28.5376 17 31 14.5376 31 11.5H27ZM25.5 13H15.5V17H25.5V13ZM15.5 13C14.6716 13 14 12.3284 14 11.5H10C10 14.5376 12.4624 17 15.5 17V13ZM14 11.5C14 10.6716 14.6716 10 15.5 10V6C12.4624 6 10 8.46243 10 11.5H14ZM15.5 10H16.0275V6H15.5V10ZM18.0154 8.21975C18.1533 6.97188 19.2145 6 20.5 6V2C17.1529 2 14.3991 4.52816 14.0396 7.78025L18.0154 8.21975ZM20.5 6C21.7855 6 22.8467 6.97188 22.9846 8.21975L26.9604 7.78025C26.6009 4.52816 23.8471 2 20.5 2V6Z" fill="white" mask="url(#path-3-inside-2_103_8)"/>
</svg>
