<svg width="32" height="32" viewBox="0 0 32 32" fill="none" xmlns="http://www.w3.org/2000/svg">
<path d="M24.6667 5H11.3334C10.361 5 9.42832 5.38631 8.74069 6.07394C8.05306 6.76157 7.66675 7.69421 7.66675 8.66667V9H7.33341C6.36095 9 5.42832 9.38631 4.74069 10.0739C4.05306 10.7616 3.66675 11.6942 3.66675 12.6667V23.3333C3.66675 24.3058 4.05306 25.2384 4.74069 25.9261C5.42832 26.6137 6.36095 27 7.33341 27H20.6667C21.6392 27 22.5718 26.6137 23.2595 25.9261C23.9471 25.2384 24.3334 24.3058 24.3334 23.3333V23H24.6667C25.6392 23 26.5718 22.6137 27.2595 21.9261C27.9471 21.2384 28.3334 20.3058 28.3334 19.3333V8.66667C28.3334 7.69421 27.9471 6.76157 27.2595 6.07394C26.5718 5.38631 25.6392 5 24.6667 5ZM9.66675 8.66667C9.66675 8.22464 9.84234 7.80072 10.1549 7.48816C10.4675 7.17559 10.8914 7 11.3334 7H24.6667C25.1088 7 25.5327 7.17559 25.8453 7.48816C26.1578 7.80072 26.3334 8.22464 26.3334 8.66667V16.9333L23.3067 14.3867C23.2082 14.301 23.0936 14.2357 22.9696 14.1947C22.8456 14.1536 22.7147 14.1376 22.5845 14.1475C22.4542 14.1574 22.3273 14.1931 22.2109 14.2525C22.0946 14.3118 21.9912 14.3937 21.9067 14.4933L20.4801 16.1733L15.1467 11C15.0615 10.8984 14.9556 10.8161 14.836 10.7586C14.7165 10.7011 14.586 10.6698 14.4534 10.6667C14.316 10.6718 14.1812 10.7053 14.0573 10.765C13.9334 10.8246 13.8231 10.9092 13.7334 11.0133L9.66675 15.8533V8.66667ZM11.3334 21C10.8914 21 10.4675 20.8244 10.1549 20.5118C9.84234 20.1993 9.66675 19.7754 9.66675 19.3333V18.9333L14.5601 13.1733L19.1734 17.6933L16.3734 21H11.3334ZM22.3334 23.3333C22.3334 23.7754 22.1578 24.1993 21.8453 24.5118C21.5327 24.8244 21.1088 25 20.6667 25H7.33341C6.89139 25 6.46746 24.8244 6.1549 24.5118C5.84234 24.1993 5.66675 23.7754 5.66675 23.3333V12.6667C5.66675 12.2246 5.84234 11.8007 6.1549 11.4882C6.46746 11.1756 6.89139 11 7.33341 11H7.66675V19.3333C7.66675 20.3058 8.05306 21.2384 8.74069 21.9261C9.42832 22.6137 10.361 23 11.3334 23H22.3334V23.3333ZM24.6667 21H19.0001L22.7867 16.5467L26.2934 19.52C26.2538 19.9244 26.0654 20.2996 25.7649 20.5731C25.4644 20.8465 25.0731 20.9986 24.6667 21Z" fill="white"/>
</svg>
