<svg width="68" height="68" viewBox="0 0 68 68" fill="none" xmlns="http://www.w3.org/2000/svg">
<ellipse cx="33.5791" cy="34" rx="33.5791" ry="34" fill="#F0F9FF"/>
<path d="M28.1692 26.2033C23.6365 25.7465 20.6738 29.5556 20.1828 31.5149C24.977 31.998 27.5194 40.5334 35.3642 41.3239C40.1585 41.807 45.3816 39.2195 45.5469 33.2099C44.3635 34.4681 42.6149 34.6362 41.4527 34.5191C36.2227 33.9921 34.097 26.8006 28.1692 26.2033Z" stroke="#163349" stroke-width="2"/>
<circle cx="23.5" cy="43.5" r="2.5" fill="#163349"/>
<path d="M37 24.1254C37 23.6315 37.2981 23.5292 37.8942 23.2311L40.875 22.0388L43.8558 23.2311C44.4519 23.5292 44.75 23.6315 44.75 24.1254C44.75 24.6192 44.4519 24.7215 43.8558 25.0196L40.875 26.2119L37.8942 25.0196C37.2981 24.7215 37 24.6192 37 24.1254Z" fill="#163349"/>
<path d="M40.8744 28C40.3805 28 40.2782 27.7019 39.9802 27.1058L38.7879 24.125L39.9802 21.1442C40.2782 20.5481 40.3805 20.25 40.8744 20.25C41.3683 20.25 41.4706 20.5481 41.7686 21.1442L42.9609 24.125L41.7686 27.1058C41.4706 27.7019 41.3683 28 40.8744 28Z" fill="#163349"/>
</svg>
