<svg width="68" height="68" viewBox="0 0 68 68" fill="none" xmlns="http://www.w3.org/2000/svg">
<ellipse cx="33.5791" cy="34" rx="33.5791" ry="34" fill="#F0F9FF"/>
<path d="M20 31C20 28.7909 21.7909 27 24 27H40C42.2091 27 44 28.7909 44 31V42C44 44.2091 42.2091 46 40 46H24C21.7909 46 20 44.2091 20 42V31Z" stroke="#3C607C" stroke-width="2"/>
<path d="M43.5 33H36C34.8954 33 34 33.8954 34 35V38C34 39.1046 34.8954 40 36 40H43.5" stroke="#3C607C" stroke-width="2" stroke-linecap="round"/>
<path d="M47 42C47 42.5523 47.4477 43 48 43C48.5523 43 49 42.5523 49 42H47ZM21.9109 26.9986L21.2931 26.2123H21.2931L21.9109 26.9986ZM25.6402 24.0684L25.0224 23.2821V23.2821L25.6402 24.0684ZM28.7293 24H41V22H28.7293V24ZM47 30V42H49V30H47ZM22.5287 27.7849L26.258 24.8547L25.0224 23.2821L21.2931 26.2123L22.5287 27.7849ZM19 30.9302V34H21V30.9302H19ZM21.2931 26.2123C19.8453 27.3498 19 29.089 19 30.9302H21C21 29.7027 21.5636 28.5432 22.5287 27.7849L21.2931 26.2123ZM41 24C44.3137 24 47 26.6863 47 30H49C49 25.5817 45.4183 22 41 22V24ZM28.7293 22C27.3849 22 26.0795 22.4515 25.0224 23.2821L26.258 24.8547C26.9628 24.301 27.8331 24 28.7293 24V22Z" fill="#3C607C"/>
</svg>
