<svg xmlns="http://www.w3.org/2000/svg" width="144" height="42" viewBox="0 0 144 42" fill="none">
  <mask id="mask0_3566_43256" style="mask-type:luminance" maskUnits="userSpaceOnUse" x="3" y="2" width="35" height="38">
    <path d="M37.9419 2.65991H3.92188V39.4799H37.9419V2.65991Z" fill="white"/>
  </mask>
  <g mask="url(#mask0_3566_43256)">
    <path d="M15.9193 21.9409L3.92188 18.9403V3.80615L15.9193 17.484V21.9409Z" fill="white"/>
    <path d="M15.9463 26.0336L8.02734 30.5526V24.0079L15.9463 23.5078V26.0336Z" fill="white"/>
    <path d="M33.6406 9.76149L35.8806 7.39609V3.87817L33.6406 6.77073V9.76149Z" fill="white"/>
    <path d="M27.3984 23.9026L37.9427 25.0597V13.7283L27.3984 19.5936V23.9026Z" fill="white"/>
    <path d="M27.3945 27.4744L30.7743 29.7109V26.4391L27.3945 25.3245V27.4744Z" fill="white"/>
    <path d="M27.418 17.7724L29.2996 16.2017V11.9521L27.418 14.4779V17.7724Z" fill="white"/>
    <path d="M27.2597 28.7856H25.1562L28.3169 32.9623H31.9912L27.2597 28.7856Z" fill="white"/>
    <path d="M18.3007 32.6055H13.7578L8.52344 39.48H16.3831L18.3007 32.6055Z" fill="white"/>
    <path d="M23.9637 28.7947H20.2967L19.3984 36.764H28.2838L23.9637 28.7947Z" fill="white"/>
    <path d="M18.6443 28.7947H16.1071L14.8164 30.2949H18.0336L18.6443 28.7947Z" fill="white"/>
    <path d="M19.6399 13.6201H16.1012L13.7148 8.88477H19.0031L19.6399 13.6201Z" fill="white"/>
    <path d="M27.1301 13.6074H21.3828L21.9038 2.65991H34.2155L27.1301 13.6074Z" fill="white"/>
  </g>
  <path d="M51.4758 29.0848C50.3256 29.0848 49.3064 28.8664 48.4182 28.4296C47.5446 27.9782 46.8603 27.3449 46.3653 26.5295C45.8848 25.7142 45.6445 24.775 45.6445 23.7122V13.8842C45.6445 13.8114 45.6664 13.7531 45.7101 13.7094C45.7683 13.6512 45.8338 13.6221 45.9066 13.6221H49.0079C49.0807 13.6221 49.1389 13.6512 49.1826 13.7094C49.2409 13.7531 49.27 13.8114 49.27 13.8842V23.7122C49.27 24.3965 49.4665 24.9498 49.8597 25.372C50.2673 25.7797 50.8061 25.9835 51.4758 25.9835C52.131 25.9835 52.6552 25.7797 53.0483 25.372C53.456 24.9498 53.6598 24.3965 53.6598 23.7122V13.8842C53.6598 13.8114 53.6817 13.7531 53.7253 13.7094C53.7836 13.6512 53.8491 13.6221 53.9219 13.6221H57.0232C57.096 13.6221 57.1542 13.6512 57.1979 13.7094C57.2561 13.7531 57.2853 13.8114 57.2853 13.8842V23.7122C57.2853 24.775 57.045 25.7142 56.5645 26.5295C56.0841 27.3449 55.3997 27.9782 54.5116 28.4296C53.638 28.8664 52.6261 29.0848 51.4758 29.0848Z" fill="white"/>
  <path d="M65.1054 17.4441C66.2411 17.4441 67.173 17.8081 67.901 18.5361C68.629 19.2495 68.993 20.2251 68.993 21.4627V28.648C68.993 28.7208 68.9638 28.7863 68.9056 28.8446C68.8619 28.8883 68.8037 28.9101 68.7309 28.9101H65.6296C65.5568 28.9101 65.4913 28.8883 65.433 28.8446C65.3894 28.7863 65.3675 28.7208 65.3675 28.648V22.2489C65.3675 21.7539 65.2292 21.3462 64.9526 21.0259C64.6759 20.7055 64.3192 20.5454 63.8824 20.5454C63.431 20.5454 63.067 20.7055 62.7904 21.0259C62.5138 21.3316 62.3754 21.7393 62.3754 22.2489V28.648C62.3754 28.7208 62.3463 28.7863 62.2881 28.8446C62.2444 28.8883 62.1862 28.9101 62.1134 28.9101H59.0121C58.9393 28.9101 58.8738 28.8883 58.8155 28.8446C58.7718 28.7863 58.75 28.7208 58.75 28.648V17.8809C58.75 17.8081 58.7718 17.7499 58.8155 17.7062C58.8738 17.6479 58.9393 17.6188 59.0121 17.6188H62.1134C62.1862 17.6188 62.2444 17.6479 62.2881 17.7062C62.3463 17.7499 62.3754 17.8081 62.3754 17.8809V18.689C62.3754 18.7472 62.3827 18.7836 62.3973 18.7982C62.4264 18.7982 62.4555 18.7763 62.4846 18.7327C63.0379 17.8736 63.9115 17.4441 65.1054 17.4441Z" fill="white"/>
  <path d="M77.2843 17.5968C77.3571 17.5968 77.4153 17.6259 77.459 17.6842C77.5172 17.7278 77.5463 17.7861 77.5463 17.8589V20.305C77.5463 20.3778 77.5172 20.4433 77.459 20.5015C77.4153 20.5452 77.3571 20.567 77.2843 20.567H75.2313C75.1585 20.567 75.1221 20.6034 75.1221 20.6762V28.6478C75.1221 28.7206 75.093 28.7862 75.0347 28.8444C74.9911 28.8881 74.9328 28.9099 74.86 28.9099H71.7587C71.6859 28.9099 71.6204 28.8881 71.5622 28.8444C71.5185 28.7862 71.4967 28.7206 71.4967 28.6478V20.6762C71.4967 20.6034 71.4603 20.567 71.3875 20.567H70.1644C70.0916 20.567 70.0261 20.5452 69.9679 20.5015C69.9242 20.4433 69.9023 20.3778 69.9023 20.305V17.8589C69.9023 17.7861 69.9242 17.7278 69.9679 17.6842C70.0261 17.6259 70.0916 17.5968 70.1644 17.5968H71.3875C71.4603 17.5968 71.4967 17.5604 71.4967 17.4876V16.8979C71.4967 16.0389 71.6495 15.3691 71.9553 14.8886C72.2611 14.3936 72.7488 14.0514 73.4186 13.8622C74.0883 13.6583 74.9983 13.5782 76.1486 13.6219H77.044C77.1168 13.6219 77.1751 13.651 77.2187 13.7093C77.277 13.753 77.3061 13.8112 77.3061 13.884V15.8714C77.3061 15.9442 77.277 16.0098 77.2187 16.068C77.1751 16.1117 77.1168 16.1335 77.044 16.1335H76.1923C75.7991 16.1626 75.5225 16.2573 75.3623 16.4174C75.2022 16.5776 75.1221 16.847 75.1221 17.2255V17.4876C75.1221 17.5604 75.1585 17.5968 75.2313 17.5968H77.2843Z" fill="white"/>
  <path d="M84.588 17.4658C85.1122 17.4658 85.5199 17.5605 85.8111 17.7497C85.9275 17.8225 85.9712 17.9317 85.9421 18.0773L85.4398 21.1131C85.4252 21.2878 85.3233 21.3388 85.134 21.266C84.8719 21.2077 84.6244 21.1786 84.3915 21.1786C84.144 21.1786 83.9547 21.1932 83.8236 21.2223C83.3723 21.2805 82.9864 21.4553 82.6661 21.7465C82.3604 22.0377 82.2075 22.4235 82.2075 22.904V28.6479C82.2075 28.7207 82.1784 28.7862 82.1201 28.8445C82.0764 28.8881 82.0182 28.91 81.9454 28.91H78.8441C78.7713 28.91 78.7058 28.8881 78.6476 28.8445C78.6039 28.7862 78.582 28.7207 78.582 28.6479V17.8808C78.582 17.808 78.6039 17.7497 78.6476 17.7061C78.7058 17.6478 78.7713 17.6187 78.8441 17.6187H81.9454C82.0182 17.6187 82.0764 17.6478 82.1201 17.7061C82.1784 17.7497 82.2075 17.808 82.2075 17.8808V18.5797C82.2075 18.6233 82.222 18.6525 82.2512 18.667C82.2803 18.6816 82.3021 18.667 82.3167 18.6233C82.8991 17.8517 83.6562 17.4658 84.588 17.4658Z" fill="white"/>
  <path d="M91.226 17.4441C92.2015 17.4441 93.0824 17.6115 93.8686 17.9464C94.6549 18.2667 95.2737 18.7181 95.725 19.3005C96.1764 19.8683 96.4021 20.5017 96.4021 21.2006V28.648C96.4021 28.7208 96.3729 28.7863 96.3147 28.8446C96.271 28.8883 96.2128 28.9101 96.14 28.9101H93.0387C92.9659 28.9101 92.9004 28.8883 92.8421 28.8446C92.7984 28.7863 92.7766 28.7208 92.7766 28.648V27.8836C92.7766 27.8254 92.7621 27.7963 92.7329 27.7963C92.7038 27.7817 92.6747 27.8035 92.6456 27.8618C92.0923 28.6771 91.1459 29.0848 89.8064 29.0848C88.6416 29.0848 87.7097 28.8155 87.0109 28.2767C86.3265 27.7235 85.9844 26.9154 85.9844 25.8525C85.9844 24.7314 86.3702 23.8651 87.1419 23.2535C87.9281 22.642 89.0638 22.3363 90.5489 22.3363H92.6674C92.7402 22.3363 92.7766 22.2999 92.7766 22.2271V21.8121C92.7766 21.419 92.6456 21.1132 92.3835 20.8948C92.1214 20.6619 91.7574 20.5454 91.2915 20.5454C90.942 20.5454 90.6363 20.6109 90.3742 20.7419C90.1267 20.873 89.9665 21.0404 89.8937 21.2443C89.8209 21.4044 89.719 21.4772 89.588 21.4627L86.443 21.0477C86.2683 21.0186 86.1809 20.9531 86.1809 20.8511C86.2392 20.2105 86.4867 19.6354 86.9235 19.1258C87.3748 18.6016 87.9718 18.1939 88.7144 17.9027C89.4715 17.597 90.3087 17.4441 91.226 17.4441ZM90.8765 26.4859C91.4298 26.4859 91.8812 26.3475 92.2306 26.0709C92.5946 25.7797 92.7766 25.4011 92.7766 24.9352V24.4111C92.7766 24.3383 92.7402 24.3019 92.6674 24.3019H91.357C90.8037 24.3019 90.3742 24.3965 90.0685 24.5858C89.7773 24.7751 89.6316 25.059 89.6316 25.4375C89.6316 25.7579 89.7409 26.0127 89.9593 26.2019C90.1777 26.3912 90.4834 26.4859 90.8765 26.4859Z" fill="white"/>
  <path d="M110.731 17.4441C111.866 17.4441 112.755 17.7935 113.395 18.4924C114.036 19.1913 114.356 20.1741 114.356 21.4408V28.648C114.356 28.7208 114.327 28.7863 114.269 28.8446C114.225 28.8883 114.167 28.9101 114.094 28.9101H111.015C110.942 28.9101 110.876 28.8883 110.818 28.8446C110.774 28.7863 110.753 28.7208 110.753 28.648V22.2271C110.753 21.732 110.622 21.3316 110.359 21.0259C110.112 20.7055 109.777 20.5454 109.355 20.5454C108.933 20.5454 108.583 20.6983 108.307 21.004C108.044 21.3098 107.913 21.7175 107.913 22.2271V28.648C107.913 28.7208 107.884 28.7863 107.826 28.8446C107.782 28.8883 107.724 28.9101 107.651 28.9101H104.55C104.477 28.9101 104.412 28.8883 104.353 28.8446C104.31 28.7863 104.288 28.7208 104.288 28.648V22.2271C104.288 21.732 104.15 21.3316 103.873 21.0259C103.611 20.7055 103.269 20.5454 102.847 20.5454C102.453 20.5454 102.126 20.6691 101.864 20.9167C101.602 21.1642 101.441 21.4918 101.383 21.8995V28.648C101.383 28.7208 101.354 28.7863 101.296 28.8446C101.252 28.8883 101.194 28.9101 101.121 28.9101H98.0199C97.9471 28.9101 97.8816 28.8883 97.8233 28.8446C97.7797 28.7863 97.7578 28.7208 97.7578 28.648V17.8809C97.7578 17.8081 97.7797 17.7499 97.8233 17.7062C97.8816 17.6479 97.9471 17.6188 98.0199 17.6188H101.121C101.194 17.6188 101.252 17.6479 101.296 17.7062C101.354 17.7499 101.383 17.8081 101.383 17.8809V18.8637C101.383 18.9219 101.398 18.9583 101.427 18.9729C101.456 18.9729 101.485 18.9438 101.514 18.8855C102.082 17.9246 103.014 17.4441 104.31 17.4441C105.038 17.4441 105.678 17.6043 106.232 17.9246C106.785 18.2449 107.207 18.7108 107.498 19.3223C107.542 19.4097 107.586 19.4024 107.629 19.3005C107.935 18.6744 108.35 18.2085 108.874 17.9027C109.413 17.597 110.032 17.4441 110.731 17.4441Z" fill="white"/>
  <path d="M126.103 22.2706C126.176 22.7074 126.198 23.2825 126.169 23.996C126.154 24.1707 126.06 24.258 125.885 24.258H119.224C119.195 24.258 119.165 24.2726 119.136 24.3017C119.107 24.3163 119.1 24.3381 119.114 24.3672C119.143 24.5274 119.216 24.7385 119.333 25.0006C119.507 25.3064 119.77 25.5539 120.119 25.7432C120.468 25.9324 120.898 26.0271 121.407 26.0271C122.325 26.0271 123.046 25.7286 123.57 25.1316C123.628 25.0588 123.693 25.0224 123.766 25.0224C123.839 25.0224 123.897 25.0516 123.941 25.1098L125.623 27.0317C125.681 27.0754 125.71 27.1336 125.71 27.2064C125.71 27.2647 125.681 27.3229 125.623 27.3812C125.113 27.9344 124.48 28.3567 123.723 28.6479C122.98 28.9391 122.165 29.0847 121.277 29.0847C119.952 29.0847 118.823 28.8008 117.891 28.2329C116.974 27.6505 116.312 26.8424 115.904 25.8087C115.598 25.0807 115.445 24.1707 115.445 23.0787C115.445 22.3216 115.562 21.5936 115.795 20.8947C116.173 19.8172 116.792 18.9728 117.651 18.3612C118.525 17.7352 119.558 17.4221 120.752 17.4221C121.713 17.4221 122.572 17.6332 123.33 18.0555C124.087 18.4632 124.698 19.0383 125.164 19.7808C125.645 20.5088 125.958 21.3388 126.103 22.2706ZM120.752 20.5452C119.995 20.5452 119.493 20.902 119.245 21.6154C119.187 21.7756 119.151 21.9284 119.136 22.074C119.107 22.1468 119.136 22.1832 119.224 22.1832H122.325C122.383 22.1832 122.412 22.1541 122.412 22.0959C122.412 21.9794 122.383 21.8338 122.325 21.6591C122.223 21.2951 122.034 21.0184 121.757 20.8292C121.495 20.6399 121.16 20.5452 120.752 20.5452Z" fill="white"/>
  <path d="M134.204 13.8842C134.204 13.8114 134.226 13.7531 134.27 13.7094C134.328 13.6512 134.393 13.6221 134.466 13.6221H137.567C137.64 13.6221 137.698 13.6512 137.742 13.7094C137.8 13.7531 137.829 13.8114 137.829 13.8842V28.648C137.829 28.7208 137.8 28.7863 137.742 28.8446C137.698 28.8882 137.64 28.9101 137.567 28.9101H134.466C134.393 28.9101 134.328 28.8882 134.27 28.8446C134.226 28.7863 134.204 28.7208 134.204 28.648V27.9273C134.204 27.8836 134.189 27.8618 134.16 27.8618C134.131 27.8472 134.102 27.8545 134.073 27.8836C133.491 28.6844 132.653 29.0848 131.561 29.0848C130.571 29.0848 129.69 28.7863 128.919 28.1894C128.162 27.5924 127.623 26.777 127.303 25.7433C127.07 24.957 126.953 24.1126 126.953 23.2098C126.953 22.1906 127.106 21.2734 127.412 20.458C127.747 19.5553 128.278 18.8273 129.006 18.274C129.749 17.7207 130.644 17.4441 131.692 17.4441C132.741 17.4441 133.534 17.7862 134.073 18.4706C134.102 18.5142 134.131 18.5288 134.16 18.5142C134.189 18.4997 134.204 18.4706 134.204 18.4269V13.8842ZM133.833 25.1318C134.08 24.6658 134.204 24.047 134.204 23.2754C134.204 22.4309 134.066 21.7757 133.789 21.3098C133.483 20.8002 133.054 20.5454 132.5 20.5454C131.904 20.5454 131.459 20.8074 131.168 21.3316C130.877 21.8266 130.731 22.4746 130.731 23.2754C130.731 24.047 130.862 24.6731 131.125 25.1536C131.43 25.7069 131.889 25.9835 132.5 25.9835C133.083 25.9835 133.527 25.6996 133.833 25.1318Z" fill="white"/>
</svg>