<svg width="128" height="128" viewBox="0 0 128 128" fill="none" xmlns="http://www.w3.org/2000/svg">
<path d="M98.5432 76.0874L92.2408 21.8513C92.2084 21.5726 92.113 21.3049 91.9617 21.0686L89.8734 17.8057C89.4845 17.198 88.7774 16.8723 88.0627 16.9716L10.1419 27.8065C9.73152 27.8636 9.35225 28.0569 9.06498 28.3554L5.45118 32.111C5.04023 32.538 4.85909 33.1363 4.96416 33.7196L7.30581 46.7199C7.4125 47.3121 7.80094 47.8153 8.3469 48.0685L78.2987 80.5073C78.6232 80.6578 78.9845 80.7109 79.3385 80.66L96.9703 78.1296C97.9613 77.9873 98.6587 77.0818 98.5432 76.0874Z" fill="#E9F5FE" stroke="#0E2230" stroke-linecap="round"/>
<path d="M83.9344 41.8948L23.7407 50.5807C22.6752 50.7345 21.9662 51.763 22.2016 52.8135L23.5099 58.651C23.6483 59.2682 24.0927 59.7718 24.688 59.9857L27.5262 61.0056C27.8077 61.1068 28.1096 61.1381 28.4059 61.0968L87.265 52.8982L86.0302 43.4832C85.8963 42.4622 84.9536 41.7477 83.9344 41.8948Z" fill="#AAD3F1" stroke="#0E2230" stroke-linecap="round"/>
<path d="M19.8574 43.5083L86.4659 34.3623" stroke="#0E2230" stroke-linecap="round"/>
<path d="M14.788 86.3453L3.04199 35.7471L76.9368 68.9952C77.4677 69.234 77.8549 69.709 77.9819 70.2771L88.6589 118.047C89.3196 121.003 86.3388 123.455 83.5658 122.236L22.1832 95.2614C18.4506 93.6211 15.71 90.3168 14.788 86.3453Z" fill="#E9F5FE" stroke="#0E2230" stroke-linecap="round"/>
<path d="M73.8691 69.6552L7.97345 41.8575C0.190012 38.5741 1.69528 27.1217 10.0628 25.961L87.6583 15.1982C89.6965 14.9155 91.573 16.3521 91.832 18.3934L92.1646 21.0151C92.2301 21.228 92.2773 21.4499 92.304 21.6792L92.932 27.0639L92.1646 21.0151C91.6408 19.314 89.9432 18.1899 88.1161 18.4483L10.38 29.4432C5.92804 30.0729 5.1319 36.1649 9.27254 37.9176L77.4743 66.786C80.2182 67.9475 82.2335 70.361 82.8868 73.2681L92.3796 115.511C92.7128 116.994 92.1042 118.53 90.8456 119.381L87.447 121.682C87.3307 121.775 87.2079 121.861 87.0789 121.941L86.927 122.034L87.447 121.682C88.5438 120.808 89.0616 119.372 88.7466 117.979L79.2894 76.1308C78.6326 73.2245 76.6144 70.8133 73.8691 69.6552Z" fill="#E9F5FE" stroke="#0E2230" stroke-linecap="round"/>
<path d="M84.2927 91.527L74.801 87.4769C73.9284 87.1046 72.9286 87.1857 72.1275 87.6938C71.0609 88.3703 70.5595 89.6627 70.8906 90.8816L73.5963 100.841C74.0456 102.495 75.2243 103.853 76.7981 104.532L84.6528 107.917C87.1369 108.988 90.0075 108.616 92.1367 106.948L102.486 98.8377C104.114 97.5625 104.913 95.4992 104.57 93.4603L103.153 85.0518C102.977 84.0041 102.281 83.1174 101.306 82.6965C100.268 82.2485 99.0683 82.395 98.1685 83.0799L87.6118 91.1146C86.6601 91.8389 85.3927 91.9964 84.2927 91.527Z" fill="#83BFE9" stroke="#0E2230" stroke-linecap="round"/>
<path d="M70.5 90L83.1374 95.7443C85.5114 96.8234 88.2885 96.4933 90.3435 94.8879L103 85" stroke="#0E2230"/>
<path d="M77.3927 6.26475L15.9754 14.9764C14.9584 15.1207 14.2543 16.0667 14.408 17.0823L18.1283 41.66L22.1663 43.3622L82.7698 34.916L79.4864 7.87142C79.3617 6.844 78.4174 6.1194 77.3927 6.26475Z" fill="#83BFE9" stroke="#0E2230" stroke-linecap="round"/>
<path d="M79.9057 13.7603L15.2373 22.9062L16.7154 31.8674L81.0143 22.9062L79.9057 13.7603Z" fill="#0E2230"/>
<path d="M77.9901 105.762L77.8281 105.222L85.1897 107.937L88.1616 108.68L90.0005 108.5C90.1491 108.946 90.5652 109.724 91.0407 111.269C87.6229 113.563 85.0906 112.197 82.9608 111.206C80.5622 110.242 78.7329 108.238 77.9901 105.762Z" fill="#0E2230" stroke="#0E2230"/>
<path d="M110.256 49.7589C105.919 54.9143 101.773 59.5909 97.9161 62.7823C94.0754 65.9604 90.6628 67.5464 87.7109 66.8782L82.3221 62.7865C79.7158 60.5849 79.1301 56.2502 80.5643 50.7921C81.9895 45.3682 85.3723 39.0188 90.393 33.0502C95.4244 27.069 100.662 22.6478 105.536 20.3166C110.4 17.9899 114.823 17.7744 118.351 20.0413L122.66 23.3448C122.42 26.3999 120.967 31.0096 118.763 35.8407C116.501 40.7999 113.478 45.9284 110.256 49.7589Z" fill="#E9F5FE" stroke="#0E2230"/>
<path d="M91.4306 41.5142L86.6757 38.2454C84.1991 42.0098 79.3053 50.7572 79.543 55.6312C79.8402 61.7236 82.6634 63.2096 85.7839 65.4385C82.6931 58.187 88.2606 46.4675 91.4306 41.5142Z" fill="#0E2230"/>
<path d="M115.185 53.5396C110.164 59.5081 104.488 63.9282 99.3882 66.261C94.2501 68.6114 89.8748 68.7742 87.2605 66.5751C84.6463 64.376 84.0575 60.0374 85.4934 54.5728C86.9186 49.1489 90.3014 42.7995 95.3221 36.8309C100.343 30.8624 106.019 26.4423 111.119 24.1095C116.257 21.7591 120.632 21.5963 123.247 23.7954C125.861 25.9945 126.45 30.3331 125.014 35.7977C123.589 41.2215 120.206 47.571 115.185 53.5396Z" fill="#83BFE9" stroke="#0E2230"/>
<path d="M112.641 50.3734C108.536 55.2541 104.054 59 100.144 61.1188C98.1876 62.179 96.3978 62.8189 94.8852 63.0046C93.3736 63.1902 92.1901 62.9182 91.3644 62.2237C90.5387 61.5291 90.0682 60.4097 89.9922 58.8886C89.9161 57.3666 90.2401 55.4936 90.9496 53.3845C92.3676 49.1693 95.2908 44.1127 99.3965 39.2319C103.502 34.3512 107.984 30.6053 111.894 28.4865C113.85 27.4264 115.64 26.7864 117.153 26.6007C118.664 26.4152 119.848 26.6871 120.673 27.3817C121.499 28.0762 121.97 29.1957 122.046 30.7167C122.122 32.2388 121.798 34.1117 121.088 36.2209C119.67 40.436 116.747 45.4926 112.641 50.3734Z" fill="#83BFE9" stroke="#0E2230"/>
<mask id="path-15-inside-1_505_18719" fill="white">
<path fill-rule="evenodd" clip-rule="evenodd" d="M90.0279 61.2667C95.4192 61.5351 103.62 56.5881 110.49 48.4214C117.264 40.3687 120.732 31.5766 119.689 26.2845C120.177 26.4423 120.615 26.6792 120.995 26.9991C124.864 30.2535 121.295 40.8626 113.024 50.6953C104.753 60.528 94.9116 65.8607 91.0428 62.6063C90.6147 62.2462 90.2776 61.796 90.0279 61.2667Z"/>
</mask>
<path fill-rule="evenodd" clip-rule="evenodd" d="M90.0279 61.2667C95.4192 61.5351 103.62 56.5881 110.49 48.4214C117.264 40.3687 120.732 31.5766 119.689 26.2845C120.177 26.4423 120.615 26.6792 120.995 26.9991C124.864 30.2535 121.295 40.8626 113.024 50.6953C104.753 60.528 94.9116 65.8607 91.0428 62.6063C90.6147 62.2462 90.2776 61.796 90.0279 61.2667Z" fill="#0E2230"/>
<path d="M110.49 48.4214L111.255 49.0652L110.49 48.4214ZM90.0279 61.2667L90.0777 60.268L88.412 60.185L89.1235 61.6934L90.0279 61.2667ZM119.689 26.2845L119.996 25.3329L118.379 24.8104L118.708 26.4779L119.689 26.2845ZM120.995 26.9991L121.639 26.2338L121.639 26.2338L120.995 26.9991ZM113.024 50.6953L112.259 50.0516L113.024 50.6953ZM91.0428 62.6063L90.3991 63.3716L90.3991 63.3716L91.0428 62.6063ZM109.725 47.7777C106.348 51.7914 102.659 54.9964 99.1771 57.1576C95.6693 59.3351 92.4796 60.3875 90.0777 60.268L89.9782 62.2655C92.9676 62.4143 96.5741 61.1274 100.232 58.8568C103.916 56.57 107.762 53.2181 111.255 49.0652L109.725 47.7777ZM118.708 26.4779C119.175 28.8483 118.645 32.1545 117.095 35.9387C115.556 39.6969 113.054 43.8202 109.725 47.7777L111.255 49.0652C114.7 44.9699 117.319 40.6708 118.946 36.6967C120.563 32.7487 121.246 29.0128 120.67 26.0911L118.708 26.4779ZM119.381 27.236C119.755 27.3569 120.077 27.5335 120.352 27.7643L121.639 26.2338C121.153 25.825 120.599 25.5277 119.996 25.3329L119.381 27.236ZM120.352 27.7643C121.036 28.3398 121.475 29.3055 121.546 30.7417C121.618 32.1799 121.312 33.9874 120.614 36.0615C119.221 40.2036 116.335 45.2064 112.259 50.0516L113.789 51.339C117.985 46.3516 121.018 41.1334 122.51 36.6992C123.255 34.4851 123.633 32.4156 123.544 30.642C123.455 28.8664 122.889 27.2855 121.639 26.2338L120.352 27.7643ZM112.259 50.0516C108.183 54.8968 103.749 58.5972 99.9061 60.6793C97.9821 61.7218 96.2538 62.3329 94.8245 62.5084C93.3972 62.6836 92.3707 62.4166 91.6865 61.8411L90.3991 63.3716C91.6493 64.4233 93.3037 64.7101 95.0682 64.4935C96.8308 64.2771 98.8052 63.5506 100.859 62.4377C104.972 60.2088 109.594 56.3265 113.789 51.339L112.259 50.0516ZM91.6865 61.8411C91.3781 61.5816 91.126 61.2506 90.9324 60.8401L89.1235 61.6934C89.4292 62.3414 89.8512 62.9108 90.3991 63.3716L91.6865 61.8411Z" fill="#0E2230" mask="url(#path-15-inside-1_505_18719)"/>
</svg>
