<svg width="101" height="100" viewBox="0 0 101 100" fill="none" xmlns="http://www.w3.org/2000/svg">
<path d="M77.4414 59.0524L72.5739 17.164C72.5415 16.8853 72.446 16.6176 72.2948 16.3813L70.8532 14.1288C70.4643 13.5211 69.7572 13.1954 69.0425 13.2948L8.56191 21.7046C8.15156 21.7616 7.77228 21.955 7.48501 22.2535L4.90187 24.9379C4.49091 25.365 4.30977 25.9633 4.41484 26.5466L6.17044 36.2932C6.27712 36.8855 6.66557 37.3887 7.21154 37.6419L61.5621 62.8459C61.8866 62.9964 62.2478 63.0494 62.6019 62.9986L75.8686 61.0946C76.8596 60.9524 77.557 60.0468 77.4414 59.0524Z" fill="#E9F5FE" stroke="#0E2230" stroke-linecap="round"/>
<path d="M65.6684 32.7887L19.4795 39.4538C18.4139 39.6076 17.705 40.6361 17.9404 41.6866L18.8184 45.6042C18.9568 46.2215 19.4012 46.7251 19.9965 46.939L21.911 47.6269C22.1925 47.7281 22.4944 47.7594 22.7907 47.7181L68.6757 41.3267L67.7642 34.3772C67.6303 33.3562 66.6876 32.6417 65.6684 32.7887Z" fill="#AAD3F1" stroke="#0E2230" stroke-linecap="round"/>
<path d="M16.0137 33.9908L68.0515 26.8456" stroke="#0E2230" stroke-linecap="round"/>
<path d="M11.7331 66.0769L2.87695 27.9274L60.4228 53.8195C60.9537 54.0583 61.3409 54.5333 61.4679 55.1014L69.4167 90.665C70.0774 93.6209 67.0966 96.0727 64.3236 94.8541L19.1283 74.993C15.3957 73.3527 12.6551 70.0484 11.7331 66.0769Z" fill="#E9F5FE" stroke="#0E2230" stroke-linecap="round"/>
<path d="M57.2534 54.0145L12.8197 35.2703C5.03625 31.9869 6.54147 20.5345 14.909 19.3739L68.173 11.986C70.2112 11.7033 72.0877 13.1398 72.3467 15.1812L72.6057 17.2226C72.6524 17.3962 72.687 17.5755 72.7085 17.7596L73.1031 21.1437L72.6057 17.2226C72.129 15.4508 70.3928 14.2639 68.5205 14.5287L12.0737 22.5125C7.62168 23.1422 6.8255 29.2342 10.9662 30.9869L60.0705 51.7718C62.8144 52.9333 64.8297 55.3468 65.483 58.2539L72.5508 89.7054C72.884 91.1882 72.2754 92.7238 71.0168 93.5757L68.6346 95.1883C68.563 95.2414 68.4887 95.2918 68.4118 95.3391L68.6346 95.1883C69.6068 94.4666 70.0732 93.2324 69.8026 92.0351L62.6738 60.4901C62.017 57.5838 59.9988 55.1726 57.2534 54.0145Z" fill="#E9F5FE" stroke="#0E2230" stroke-linecap="round"/>
<path d="M66.3535 71.5055L58.9381 68.3413C58.2564 68.0504 57.4752 68.1138 56.8494 68.5108C56.0162 69.0393 55.6244 70.049 55.8831 71.0012L57.9969 78.7818C58.3479 80.0739 59.2688 81.1354 60.4983 81.6654L65.7533 83.9304C68.2374 85.0011 71.108 84.6292 73.2372 82.9608L80.5672 77.217C81.8387 76.2207 82.4632 74.6087 82.1949 73.0159L81.0884 66.4467C80.9505 65.6282 80.4071 64.9354 79.645 64.6066C78.8338 64.2566 77.897 64.3711 77.1939 64.9062L68.9465 71.1833C68.203 71.7492 67.2129 71.8722 66.3535 71.5055Z" fill="#83BFE9" stroke="#0E2230" stroke-linecap="round"/>
<path d="M55.5781 70.3125L64.6061 74.4161C66.9802 75.4953 69.7573 75.1652 71.8123 73.5597L80.9688 66.4062" stroke="#0E2230"/>
<path d="M60.5551 4.95225L13.3851 11.643C12.3681 11.7873 11.664 12.7333 11.8177 13.7489L14.6631 32.5469L17.8178 33.8767L65.1643 27.2781L62.6488 6.55892C62.5241 5.5315 61.5798 4.8069 60.5551 4.95225Z" fill="#83BFE9" stroke="#0E2230" stroke-linecap="round"/>
<path d="M62.9265 10.7502L12.4043 17.8955L13.5591 24.8964L63.7926 17.8955L62.9265 10.7502Z" fill="#0E2230"/>
<path d="M61.4297 82.6266L61.3032 82.2048L67.0545 84.3259L69.3763 84.9063L70.8129 84.7656C70.929 85.1139 71.254 85.7217 71.6255 86.929C68.9554 88.721 66.9771 87.6538 65.3131 86.8799C63.4392 86.1263 62.0101 84.5611 61.4297 82.6266Z" fill="#0E2230" stroke="#0E2230"/>
<path d="M86.5534 38.8037C83.1651 42.8318 79.9313 46.4782 76.9268 48.9644C73.9392 51.4367 71.3177 52.6434 69.071 52.1471L64.8822 48.9666C62.8988 47.289 62.4289 43.9618 63.5463 39.7091C64.6548 35.4906 67.2885 30.5443 71.2029 25.8909C75.1279 21.2249 79.2084 17.7832 82.9966 15.971C86.7753 14.1634 90.1865 14.0065 92.8988 15.7469L96.2139 18.2887C96.0144 20.6561 94.8896 24.2153 93.1837 27.9552C91.4194 31.8233 89.0627 35.8208 86.5534 38.8037Z" fill="#E9F5FE" stroke="#0E2230"/>
<path d="M71.9299 32.433L68.2151 29.8792C66.2803 32.8202 62.457 39.6541 62.6428 43.4619C62.8749 48.2216 65.0806 49.3825 67.5185 51.1239C65.1038 45.4586 69.4533 36.3028 71.9299 32.433Z" fill="#0E2230"/>
<path d="M90.4041 41.7574C86.4898 46.4108 82.0674 49.8526 78.101 51.667C74.0963 53.499 70.7334 53.6031 68.7422 51.9281C66.751 50.2531 66.2778 46.9221 67.397 42.6628C68.5055 38.4443 71.1392 33.498 75.0536 28.8446C78.968 24.1913 83.3903 20.7494 87.3567 18.935C91.3615 17.1031 94.7243 16.9989 96.7155 18.6739C98.7067 20.3489 99.1799 23.6799 98.0607 27.9392C96.9523 32.1577 94.3185 37.1041 90.4041 41.7574Z" fill="#83BFE9" stroke="#0E2230"/>
<path d="M88.4171 39.2838C85.2161 43.0891 81.7252 46.0056 78.6853 47.6529C77.1639 48.4773 75.779 48.9709 74.6156 49.1138C73.453 49.2565 72.5628 49.0451 71.9487 48.5285C71.3346 48.012 70.9739 47.171 70.9154 46.0013C70.857 44.8305 71.1062 43.3816 71.6579 41.7415C72.7603 38.4644 75.036 34.5257 78.237 30.7204C81.4381 26.915 84.9289 23.9985 87.9689 22.3513C89.4903 21.5268 90.8751 21.0332 92.0386 20.8904C93.2011 20.7477 94.0914 20.959 94.7055 21.4756C95.3196 21.9922 95.6803 22.8331 95.7387 24.0029C95.7972 25.1736 95.548 26.6226 94.9963 28.2627C93.8939 31.5398 91.6181 35.4785 88.4171 39.2838Z" fill="#83BFE9" stroke="#0E2230"/>
<mask id="path-15-inside-1_1962_76321" fill="white">
<path fill-rule="evenodd" clip-rule="evenodd" d="M70.8338 47.8646C75.0458 48.0742 81.4528 44.2094 86.8198 37.8292C92.1119 31.538 94.8214 24.6692 94.0064 20.5347C94.388 20.658 94.7302 20.8431 95.0272 21.093C98.0497 23.6355 95.2615 31.9239 88.7996 39.6057C82.3377 47.2874 74.6492 51.4536 71.6267 48.9112C71.2922 48.6298 71.0289 48.2781 70.8338 47.8646Z"/>
</mask>
<path fill-rule="evenodd" clip-rule="evenodd" d="M70.8338 47.8646C75.0458 48.0742 81.4528 44.2094 86.8198 37.8292C92.1119 31.538 94.8214 24.6692 94.0064 20.5347C94.388 20.658 94.7302 20.8431 95.0272 21.093C98.0497 23.6355 95.2615 31.9239 88.7996 39.6057C82.3377 47.2874 74.6492 51.4536 71.6267 48.9112C71.2922 48.6298 71.0289 48.2781 70.8338 47.8646Z" fill="#0E2230"/>
<path d="M86.8198 37.8292L86.0545 37.1855L86.8198 37.8292ZM70.8338 47.8646L70.8836 46.8658L69.2179 46.7829L69.9294 48.2912L70.8338 47.8646ZM94.0064 20.5347L94.3139 19.5831L92.6966 19.0606L93.0253 20.7281L94.0064 20.5347ZM95.0272 21.093L94.3835 21.8582L94.3835 21.8582L95.0272 21.093ZM88.7996 39.6057L88.0344 38.9619L88.7996 39.6057ZM71.6267 48.9112L70.983 49.6764L70.983 49.6764L71.6267 48.9112ZM86.0545 37.1855C83.4296 40.3059 80.5642 42.7937 77.8663 44.4685C75.1422 46.1594 72.6958 46.956 70.8836 46.8658L70.7841 48.8633C73.1838 48.9828 76.047 47.9518 78.9211 46.1677C81.8214 44.3674 84.8429 41.7327 87.585 38.4729L86.0545 37.1855ZM93.0253 20.7281C93.3784 22.5197 92.9813 25.0556 91.7779 27.9942C90.5851 30.9066 88.6427 34.1087 86.0545 37.1855L87.585 38.4729C90.289 35.2585 92.3474 31.8806 93.6287 28.7522C94.8992 25.6499 95.4494 22.6842 94.9875 20.3413L93.0253 20.7281ZM93.6989 21.4863C93.9662 21.5726 94.1922 21.6973 94.3835 21.8582L95.671 20.3277C95.2681 19.9889 94.8098 19.7434 94.3139 19.5831L93.6989 21.4863ZM94.3835 21.8582C94.8561 22.2558 95.185 22.9429 95.2392 24.0278C95.2935 25.1147 95.0622 26.4981 94.5222 28.1032C93.4444 31.3074 91.2055 35.1922 88.0344 38.9619L89.5649 40.2494C92.8556 36.3374 95.2418 32.2371 96.4179 28.7409C97.0049 26.9959 97.3078 25.3504 97.2367 23.9281C97.1656 22.5038 96.7096 21.2014 95.671 20.3277L94.3835 21.8582ZM88.0344 38.9619C84.8633 42.7317 81.4192 45.6027 78.447 47.2133C76.958 48.0201 75.6346 48.4849 74.5545 48.6175C73.4763 48.7499 72.743 48.5434 72.2704 48.1459L70.983 49.6764C72.0216 50.5501 73.3828 50.7764 74.7982 50.6026C76.2117 50.429 77.7811 49.8489 79.3998 48.9717C82.6429 47.2144 86.2741 44.1614 89.5649 40.2494L88.0344 38.9619ZM72.2704 48.1459C72.0556 47.9652 71.8773 47.7327 71.7383 47.4379L69.9294 48.2912C70.1805 48.8234 70.5288 49.2944 70.983 49.6764L72.2704 48.1459Z" fill="#0E2230" mask="url(#path-15-inside-1_1962_76321)"/>
</svg>
