<svg width="345" height="330" viewBox="0 0 345 330" fill="none" xmlns="http://www.w3.org/2000/svg">
<path d="M109.028 239.069C155.654 247.607 152.468 190.081 196.548 201.117L192.467 191.336C148.387 180.3 151.573 237.825 104.947 229.287L109.028 239.069Z" fill="white" stroke="#0E2230"/>
<path d="M109.028 239.069C155.655 247.607 152.468 190.081 196.548 201.117L193.795 197.959C149.715 186.923 152.902 244.449 106.275 235.911L109.028 239.069Z" fill="#0E2230"/>
<path d="M120.667 252.055L118.186 216.405C117.849 211.555 114.072 207.651 109.237 207.152L82.8297 204.426C77.7279 203.899 72.6298 205.458 68.6944 208.747L35.6507 236.365C31.2243 240.064 28.9761 245.756 29.6796 251.482L33.892 285.764C34.451 290.314 38.0325 293.901 42.5817 294.468L73.1498 298.274C79.0628 299.01 84.9787 296.93 89.1294 292.655L115.905 265.077C119.27 261.61 121.002 256.875 120.667 252.055Z" fill="#F4E9FF" stroke="#0E2230"/>
<path d="M120.946 256.065L118.193 216.494C117.958 213.118 113.897 211.541 111.445 213.874L74 249.5L81.8754 295.562C82.1512 297.175 84.1418 297.792 85.2818 296.618L118.705 262.193C120.289 260.562 121.104 258.333 120.946 256.065Z" fill="#C39CFF"/>
<path d="M42.581 294.468L77.4262 298.807C80.0172 299.129 82.2177 296.923 81.8885 294.333L75.9996 248L33.6206 242.908C31.0421 242.598 28.8566 244.789 29.1733 247.367L33.8913 285.764C34.4504 290.314 38.0318 293.901 42.581 294.468Z" fill="#DFC3FF"/>
<path d="M108.073 232.054L120.768 250.371L118.502 218.641C118.063 212.491 113.364 207.496 107.253 206.681L103.711 206.209L103.065 210.49C101.924 218.054 103.716 225.767 108.073 232.054Z" fill="#0E2230"/>
<path d="M81.5381 297.443L77.4141 255.605C76.9432 250.827 73.1438 247.058 68.3626 246.626L31.5506 243.298" stroke="#0E2230"/>
<path d="M115.603 210.015L74.6035 249.371" stroke="#0E2230"/>
<path d="M68.5474 285.162L65.7109 257.936C65.5291 256.192 64.1188 254.83 62.3687 254.71C60.107 254.556 58.2645 256.5 58.5409 258.75L61.8792 285.919C62.0687 287.461 63.2916 288.671 64.8354 288.845C66.9646 289.084 68.7695 287.293 68.5474 285.162Z" fill="#0E2230"/>
<path d="M68.5474 285.162L65.7109 257.936C65.5291 256.192 64.1188 254.83 62.3687 254.71C60.107 254.556 58.2645 256.5 58.5409 258.75L61.8792 285.919C62.0687 287.461 63.2916 288.671 64.8354 288.845C66.9646 289.084 68.7695 287.293 68.5474 285.162Z" stroke="#0E2230"/>
<path d="M49.693 282.98L46.8564 255.754C46.6746 254.009 45.2643 252.648 43.5142 252.528C41.2525 252.373 39.41 254.318 39.6864 256.568L43.0247 283.737C43.2142 285.279 44.4371 286.489 45.9809 286.662C48.1101 286.902 49.915 285.111 49.693 282.98Z" fill="#0E2230"/>
<path d="M92.1097 281.095L100.361 273.346L99.7937 259.946L94.4942 259.286L85.2758 268.156L87.0653 281.047L92.1097 281.095Z" fill="#8C62F2"/>
<path d="M99.7937 259.946L90.5753 268.816M99.7937 259.946L100.361 273.346L92.1098 281.095M99.7937 259.946L94.4942 259.286L85.2758 268.156M90.5753 268.816L92.1098 281.095M90.5753 268.816L85.2758 268.156M92.1098 281.095L87.0653 281.047L85.2758 268.156" stroke="#0E2230"/>
<path d="M90.5753 268.816L99.7937 259.946L94.4942 259.286L85.2758 268.156L90.5753 268.816Z" fill="#0E2230"/>
<path d="M89.3998 264.282L97.6506 256.533L97.0837 243.132L91.7842 242.472L82.5658 251.343L84.3553 264.233L89.3998 264.282Z" fill="#8C62F2"/>
<path d="M97.0837 243.132L87.8653 252.002M97.0837 243.132L97.6506 256.533L89.3998 264.282M97.0837 243.132L91.7842 242.472L82.5658 251.343M87.8653 252.002L89.3998 264.282M87.8653 252.002L82.5658 251.343M89.3998 264.282L84.3553 264.233L82.5658 251.343" stroke="#0E2230"/>
<path d="M87.8653 252.002L97.0837 243.132L91.7842 242.472L82.5658 251.343L87.8653 252.002Z" fill="#0E2230"/>
<path d="M120.667 252.055L118.186 216.405C117.849 211.555 114.072 207.651 109.237 207.152L82.8297 204.426C77.7279 203.899 72.6298 205.458 68.6944 208.747L35.6507 236.365C31.2243 240.064 28.9761 245.756 29.6796 251.482L33.892 285.764C34.451 290.314 38.0325 293.901 42.5817 294.468L73.1498 298.274C79.0628 299.01 84.9787 296.93 89.1294 292.655L115.905 265.077C119.27 261.61 121.002 256.875 120.667 252.055Z" stroke="#0E2230"/>
<path d="M53.9502 300.634L67.2211 284.223C68.1778 283.039 68.1463 281.34 67.1464 280.193C65.8843 278.745 63.6288 278.763 62.3899 280.231L48.7748 296.358C47.7308 297.595 47.7178 299.4 48.7439 300.652C50.0928 302.297 52.6124 302.289 53.9502 300.634Z" fill="#C39CFF" stroke="#0E2230"/>
<circle cx="10.5984" cy="10.5984" r="10.0984" transform="matrix(-0.922893 0.385056 0.385056 0.922893 50.0781 292.172)" fill="#8C62F2" stroke="#0E2230"/>
<path fill-rule="evenodd" clip-rule="evenodd" d="M40.7304 315.985C41.3418 315.851 41.9498 315.66 42.548 315.411C47.95 313.157 50.5021 306.951 48.2482 301.549C47.0644 298.711 44.7901 296.66 42.1147 295.679C47.025 294.599 52.1549 297.15 54.1592 301.953C56.4131 307.355 53.861 313.562 48.459 315.816C45.8944 316.886 43.1485 316.872 40.7304 315.985Z" fill="#0E2230"/>
<path d="M22.1014 253.845L41.1644 262.904C42.5387 263.557 44.1836 263.128 45.0645 261.888C46.1764 260.322 45.6308 258.133 43.914 257.272L25.0469 247.812C23.6001 247.087 21.8417 247.497 20.8652 248.788C19.5815 250.484 20.1798 252.932 22.1014 253.845Z" fill="#C39CFF" stroke="#0E2230"/>
<circle cx="10.5984" cy="10.5984" r="10.0984" transform="matrix(-0.922893 0.385056 0.385056 0.922893 24.3691 233.995)" fill="#8C62F2" stroke="#0E2230"/>
<path fill-rule="evenodd" clip-rule="evenodd" d="M15.0215 257.809C15.6329 257.674 16.2409 257.484 16.8391 257.234C22.2411 254.98 24.7932 248.774 22.5393 243.372C21.3555 240.534 19.0812 238.483 16.4058 237.502C21.3161 236.423 26.446 238.973 28.4503 243.777C30.7042 249.179 28.1521 255.385 22.7501 257.639C20.1855 258.709 17.4396 258.696 15.0215 257.809Z" fill="#0E2230"/>
<path d="M54.3826 228.974C54.4491 229.579 54.9131 230.203 55.9092 230.786C56.8952 231.364 58.3153 231.847 60.0883 232.197C63.6283 232.898 68.46 233.048 73.7372 232.469C79.0144 231.889 83.6982 230.693 87.0018 229.241C88.6564 228.514 89.9378 227.734 90.775 226.957C91.6206 226.171 91.9382 225.461 91.8717 224.856L91.0321 217.212C90.6053 217.208 89.9572 217.235 89.1085 217.293C87.9492 217.372 86.4595 217.505 84.7444 217.677C81.315 218.02 76.9983 218.516 72.6496 219.038C67.8974 219.609 63.102 220.211 59.3927 220.677C56.7684 221.006 54.6878 221.267 53.5508 221.401L54.3826 228.974Z" fill="#C39CFF" stroke="#0E2230"/>
<path d="M75 232L73.5701 223.191C82.2764 222.428 89.2559 219.62 90.5653 218C90.8535 218.835 92.2922 221.475 91.9999 225.5C88.5 230 78.4189 231.754 75 232Z" fill="#0E2230"/>
<path d="M53.4616 220.594C53.535 221.262 54.0192 221.933 55.0156 222.555C56.006 223.173 57.429 223.693 59.2038 224.076C62.7479 224.84 67.5811 225.031 72.856 224.452C78.1308 223.872 82.8073 222.637 86.1011 221.122C87.7505 220.363 89.0267 219.546 89.8592 218.728C90.6969 217.904 91.024 217.144 90.9506 216.476C90.8773 215.808 90.393 215.137 89.3966 214.515C88.4062 213.897 86.9832 213.377 85.2084 212.994C81.6643 212.23 76.8311 212.039 71.5562 212.618C66.2814 213.197 61.6049 214.433 58.3111 215.948C56.6617 216.707 55.3855 217.524 54.553 218.342C53.7153 219.166 53.3882 219.926 53.4616 220.594Z" fill="#DFC3FF" stroke="#0E2230"/>
<mask id="path-28-inside-1_682_17002" fill="white">
<path fill-rule="evenodd" clip-rule="evenodd" d="M80.3413 202.631C79.3815 197.53 74.6127 193.982 69.3858 194.614C64.1589 195.246 60.373 199.828 60.6561 205.01L60.6345 205.013L62.3833 219.48C67.7752 221.497 77.3557 220.339 82.1117 217.096L80.4441 203.3C80.4435 203.295 80.443 203.291 80.4424 203.286C80.4418 203.281 80.4412 203.276 80.4406 203.271L80.3629 202.628L80.3413 202.631Z"/>
</mask>
<path fill-rule="evenodd" clip-rule="evenodd" d="M80.3413 202.631C79.3815 197.53 74.6127 193.982 69.3858 194.614C64.1589 195.246 60.373 199.828 60.6561 205.01L60.6345 205.013L62.3833 219.48C67.7752 221.497 77.3557 220.339 82.1117 217.096L80.4441 203.3C80.4435 203.295 80.443 203.291 80.4424 203.286C80.4418 203.281 80.4412 203.276 80.4406 203.271L80.3629 202.628L80.3413 202.631Z" fill="#8C62F2"/>
<path d="M80.3413 202.631L80.4613 203.623L79.5317 203.736L79.3586 202.816L80.3413 202.631ZM60.6561 205.01L61.6546 204.956L61.7056 205.891L60.7761 206.003L60.6561 205.01ZM60.6345 205.013L59.6417 205.133L59.5217 204.14L60.5145 204.02L60.6345 205.013ZM62.3833 219.48L62.0329 220.417L61.4635 220.204L61.3905 219.6L62.3833 219.48ZM82.1117 217.096L83.1045 216.976L83.1774 217.579L82.6751 217.922L82.1117 217.096ZM80.4441 203.3L79.4513 203.42L79.4512 203.419L80.4441 203.3ZM80.4406 203.271L79.448 203.393L79.4478 203.391L80.4406 203.271ZM80.3629 202.628L80.2429 201.635L81.2356 201.515L81.3556 202.508L80.3629 202.628ZM79.3586 202.816C78.4955 198.23 74.2062 195.038 69.5058 195.607L69.2658 193.621C75.0191 192.926 80.2674 196.831 81.3241 202.446L79.3586 202.816ZM69.5058 195.607C64.8054 196.175 61.4 200.296 61.6546 204.956L59.6575 205.065C59.3459 199.36 63.5125 194.317 69.2658 193.621L69.5058 195.607ZM60.7761 206.003L60.7545 206.006L60.5145 204.02L60.5361 204.017L60.7761 206.003ZM61.6273 204.893L63.3761 219.36L61.3905 219.6L59.6417 205.133L61.6273 204.893ZM62.7337 218.544C65.2249 219.476 68.7911 219.7 72.366 219.268C75.9409 218.836 79.3508 217.768 81.5482 216.269L82.6751 217.922C80.1166 219.667 76.3583 220.8 72.606 221.254C68.8537 221.707 64.9336 221.502 62.0329 220.417L62.7337 218.544ZM81.1189 217.216L79.4513 203.42L81.4369 203.18L83.1045 216.976L81.1189 217.216ZM79.4512 203.419C79.4507 203.414 79.4501 203.41 79.4496 203.406L81.4351 203.166C81.4358 203.171 81.4364 203.176 81.4371 203.182L79.4512 203.419ZM79.4496 203.406C79.4491 203.401 79.4485 203.397 79.448 203.393L81.4332 203.15C81.4339 203.155 81.4345 203.16 81.4351 203.166L79.4496 203.406ZM79.4478 203.391L79.3701 202.748L81.3556 202.508L81.4334 203.151L79.4478 203.391ZM80.4829 203.621L80.4613 203.623L80.2213 201.638L80.2429 201.635L80.4829 203.621Z" fill="#0E2230" mask="url(#path-28-inside-1_682_17002)"/>
<path d="M69.5 220L68.0278 206.998C67.6672 203.814 69.8876 200.914 73.0558 200.431C76.3376 199.931 79.396 202.207 79.8599 205.494L81.4424 216.709C79 218.5 74.4593 220.025 69.5 220Z" fill="#6540C6"/>
<mask id="path-31-inside-2_682_17002" fill="white">
<path fill-rule="evenodd" clip-rule="evenodd" d="M80.3413 202.63C79.3815 197.53 74.6127 193.982 69.3858 194.613C64.1589 195.245 60.373 199.828 60.6561 205.01L60.6345 205.012L62.3833 219.48C67.7752 221.497 77.3557 220.339 82.1117 217.095L80.4441 203.3C80.4435 203.295 80.443 203.29 80.4424 203.285C80.4418 203.28 80.4412 203.276 80.4406 203.271L80.3629 202.628L80.3413 202.63Z"/>
</mask>
<path d="M80.3413 202.63L80.4613 203.623L79.5317 203.735L79.3586 202.815L80.3413 202.63ZM60.6561 205.01L61.6546 204.955L61.7056 205.89L60.7761 206.003L60.6561 205.01ZM60.6345 205.012L59.6417 205.132L59.5217 204.14L60.5145 204.02L60.6345 205.012ZM62.3833 219.48L62.0329 220.417L61.4635 220.204L61.3905 219.6L62.3833 219.48ZM82.1117 217.095L83.1045 216.975L83.1774 217.579L82.6751 217.921L82.1117 217.095ZM80.4441 203.3L79.4513 203.42L79.4512 203.418L80.4441 203.3ZM80.4406 203.271L79.448 203.392L79.4478 203.391L80.4406 203.271ZM80.3629 202.628L80.2429 201.635L81.2356 201.515L81.3556 202.508L80.3629 202.628ZM79.3586 202.815C78.4955 198.229 74.2062 195.038 69.5058 195.606L69.2658 193.621C75.0191 192.925 80.2674 196.831 81.3241 202.445L79.3586 202.815ZM69.5058 195.606C64.8054 196.174 61.4 200.296 61.6546 204.955L59.6575 205.064C59.3459 199.36 63.5125 194.316 69.2658 193.621L69.5058 195.606ZM60.7761 206.003L60.7545 206.005L60.5145 204.02L60.5361 204.017L60.7761 206.003ZM61.6273 204.892L63.3761 219.36L61.3905 219.6L59.6417 205.132L61.6273 204.892ZM62.7337 218.543C65.2249 219.475 68.7911 219.7 72.366 219.268C75.9409 218.836 79.3508 217.768 81.5482 216.269L82.6751 217.921C80.1166 219.666 76.3583 220.8 72.606 221.253C68.8537 221.707 64.9336 221.502 62.0329 220.417L62.7337 218.543ZM81.1189 217.215L79.4513 203.42L81.4369 203.18L83.1045 216.975L81.1189 217.215ZM79.4512 203.418C79.4507 203.414 79.4501 203.41 79.4496 203.405L81.4351 203.165C81.4358 203.171 81.4364 203.176 81.4371 203.181L79.4512 203.418ZM79.4496 203.405C79.4491 203.401 79.4485 203.397 79.448 203.392L81.4332 203.149C81.4339 203.155 81.4345 203.16 81.4351 203.165L79.4496 203.405ZM79.4478 203.391L79.3701 202.748L81.3556 202.508L81.4334 203.151L79.4478 203.391ZM80.4829 203.62L80.4613 203.623L80.2213 201.638L80.2429 201.635L80.4829 203.62Z" fill="#0E2230" mask="url(#path-31-inside-2_682_17002)"/>
<path d="M303.307 174.291L295.961 172.121C293.322 171.341 290.499 171.456 287.932 172.447L283.158 174.291L307.163 214.059L313.595 210.957C315.361 210.105 316.581 208.421 316.838 206.476L318.481 194.039L330.817 188.2C333.584 186.89 333.264 182.856 330.325 181.999L318.482 178.546L319.053 165.957C319.187 162.984 316.246 160.836 313.454 161.87L308.109 163.849L303.307 174.291Z" fill="#DFC3FF" stroke="#0E2230" stroke-linecap="round"/>
<path d="M287.871 190.983L278.412 203.023C276.894 204.955 278.789 207.687 281.131 206.942L294.741 202.609L303.173 213.799C304.483 215.537 307.235 214.882 307.621 212.741L310.355 197.594L324.671 190.818C326.745 189.836 326.505 186.81 324.302 186.167L310.355 182.101L310.881 166.53C310.96 164.181 308.045 163.035 306.503 164.81L295.18 177.846L284.754 174.511C281.828 173.575 279.305 176.765 280.89 179.396L287.871 190.983Z" fill="#C39CFF" stroke="#0E2230" stroke-linecap="round"/>
<path d="M318.882 193.993L310.368 197.179L309.31 206.29L317.242 202.33L318.882 193.993Z" fill="#0E2230"/>
<path d="M318.923 178.82L310.112 182.495L310.892 172.416L318.241 169.345L318.923 178.82Z" fill="#0E2230"/>
<path d="M85.1747 149.637L75.7752 149.898L68.9321 135.63C68.2451 134.198 66.1518 134.374 65.7144 135.901L60.6334 153.64L49.5739 161.181C48.7192 161.764 48.565 162.962 49.2443 163.742L53.7838 168.955L63.5709 168.668L71.2229 178.294C71.7811 178.997 72.8924 178.819 73.204 177.978L78.2514 164.35L89.7656 155.138L86.6667 150.416C86.3381 149.915 85.7735 149.62 85.1747 149.637Z" fill="#DFC3FF" stroke="#0E2230"/>
<path d="M88.632 154.655L78.827 154.851L73.1875 144.005C72.4891 142.662 70.5236 142.804 70.0246 144.233L65.01 158.593L53.9255 166.2C52.6352 167.085 53.0934 169.093 54.6401 169.331L65.2978 170.97L72.9499 180.597C73.5081 181.3 74.6194 181.122 74.931 180.281L79.9784 166.653L89.8311 157.657C91.0081 156.582 90.2254 154.623 88.632 154.655Z" fill="#C39CFF" stroke="#0E2230"/>
<path d="M60.634 153.928L65.0107 158.593L58.1022 162.911L53.7255 158.534L60.634 153.928Z" fill="#0E2230"/>
<path d="M97.4724 123.391L92.0691 123.541L87.9202 114.891C87.5374 114.093 86.3866 114.137 86.0658 114.962L81.8785 125.732L75.4205 130.136C74.9139 130.481 74.8288 131.194 75.2398 131.649L79.1927 136.025L84.9232 135.856L89.4036 141.493C89.7305 141.904 90.3812 141.8 90.5636 141.307L93.519 133.328L100.261 127.934L98.4172 123.975C98.2469 123.61 97.8756 123.38 97.4724 123.391Z" fill="#DFC3FF" stroke="#0E2230"/>
<path d="M99.597 127.651L93.856 127.766L90.5539 121.416C90.145 120.63 88.9942 120.712 88.702 121.549L85.7659 129.957L79.2757 134.411C78.5202 134.93 78.7885 136.105 79.6941 136.244L85.9344 137.204L90.4148 142.841C90.7417 143.252 91.3924 143.148 91.5748 142.656L94.5302 134.676L100.299 129.409C100.988 128.78 100.53 127.633 99.597 127.651Z" fill="#A774F4" stroke="#0E2230"/>
<path d="M82 126L85.7656 129.957L83.0454 131.16L79.2797 127.372L82 126Z" fill="#0E2230"/>
<mask id="mask0_682_17002" style="mask-type:alpha" maskUnits="userSpaceOnUse" x="124" y="175" width="142" height="100">
<path d="M187.987 270.92L266 179.5L206.065 215.172C190.094 224.677 169.681 221.93 156.791 208.541L124.5 175L171.436 268.9C174.638 275.306 183.339 276.368 187.987 270.92Z" fill="#F4E9FF"/>
</mask>
<g mask="url(#mask0_682_17002)">
<path d="M187.987 270.92L266 179.5L206.065 215.172C190.094 224.677 169.681 221.93 156.791 208.541L124.5 175L171.436 268.9C174.638 275.306 183.339 276.368 187.987 270.92Z" fill="#DFC3FF"/>
<path d="M178.187 282.405L266 179.5L181.798 211.4L178.187 282.405Z" fill="#A774F4"/>
<path d="M125.753 176.388L164.631 201.087C175.401 207.929 188.765 209.296 200.697 204.775L264.354 180.658L187.607 270.595C183.191 275.771 174.925 274.762 171.883 268.676L125.753 176.388Z" stroke="#0E2230"/>
</g>
<path d="M262.652 166.516L203.994 139.665L130.574 166.228C125.091 168.212 123.504 175.207 127.594 179.363L157.398 209.643C170.5 222.954 191.069 225.427 206.952 215.6L263.531 180.593C268.963 177.232 268.46 169.174 262.652 166.516Z" fill="#C39CFF" stroke="#0E2230"/>
<path d="M167.121 195.212L136.429 163.836L154.976 156.549L238.776 156.537L260.323 165.122L201.316 199.777C190.223 206.292 176.117 204.409 167.121 195.212Z" fill="#0E2230"/>
<mask id="mask1_682_17002" style="mask-type:alpha" maskUnits="userSpaceOnUse" x="126" y="48" width="142" height="143">
<path d="M174.951 185.865L129.563 145.41C126.222 142.433 125.973 137.293 129.012 134.007L206.333 50.3853C209.571 46.8842 215.285 47.5739 217.596 51.7447L266.632 140.235C268.783 144.117 267.363 149.007 263.469 151.134L195.555 188.225C188.878 191.872 180.63 190.927 174.951 185.865Z" fill="#F4E9FF"/>
</mask>
<g mask="url(#mask1_682_17002)">
<path d="M174.951 185.865L129.563 145.41C126.222 142.433 125.973 137.293 129.012 134.007L206.333 50.3853C209.571 46.8842 215.285 47.5739 217.596 51.7447L266.632 140.235C268.783 144.117 267.363 149.007 263.469 151.134L195.555 188.225C188.878 191.872 180.63 190.927 174.951 185.865Z" fill="#F4E9FF"/>
<path d="M270.533 147.276L184.421 194.306L212.904 43.2788L270.533 147.276Z" fill="#DFC3FF"/>
<path d="M175.283 185.492L129.895 145.037C126.763 142.245 126.531 137.427 129.379 134.347L206.701 50.7247C209.707 47.4737 215.012 48.1142 217.158 51.9871L266.195 140.477C268.211 144.116 266.88 148.701 263.229 150.695L195.316 187.786C188.824 191.332 180.805 190.413 175.283 185.492Z" stroke="#0E2230"/>
<path d="M184.5 192.5L212.5 50" stroke="#0E2230"/>
</g>
<path d="M151.885 114.589L125.728 107.487L120.603 92.2612L127.38 64.7787L147.566 69.9826L158.791 87.6005L151.885 114.589Z" fill="#F4E9FF"/>
<path d="M125.728 107.487L151.885 114.589L158.791 87.6005M125.728 107.487L133.227 80.0507M125.728 107.487L120.603 92.2612L127.38 64.7787M158.791 87.6005L133.227 80.0507M158.791 87.6005L147.566 69.9826L127.38 64.7787M133.227 80.0507L127.38 64.7787" stroke="#0E2230"/>
<path d="M151.885 114.589L125.727 107.487L133.227 80.0507L158.791 87.6005L151.885 114.589Z" fill="#DFC3FF" stroke="#0E2230"/>
<path d="M125.728 107.487L133.227 80.0507L127.38 63.4539L120.603 90.9364L125.728 107.487Z" fill="#0E2230"/>
<path fill-rule="evenodd" clip-rule="evenodd" d="M192.111 65.3988L191.393 66.1174C190.967 65.5021 190.541 64.8932 190.116 64.2907L190.525 64.0026L190.934 63.7145C191.326 64.2705 191.718 64.8319 192.111 65.3988ZM187.869 59.4653L187.467 59.7623L187.065 60.0593C186.01 58.6308 184.96 57.2445 183.917 55.902L184.312 55.5952L184.707 55.2884C185.755 56.6377 186.81 58.0305 187.869 59.4653ZM181.427 51.1859L181.041 51.5037L180.655 51.8216C179.518 50.4407 178.39 49.1153 177.273 47.8471L177.648 47.5166L178.023 47.1861C179.148 48.4631 180.283 49.797 181.427 51.1859ZM174.482 43.3189L174.12 43.6641L173.759 44.0093C172.522 42.7135 171.302 41.4943 170.101 40.354L170.445 39.9914L170.789 39.6287C172.003 40.7812 173.235 42.0122 174.482 43.3189ZM166.861 36.1256L166.542 36.5099L166.222 36.8942C164.829 35.7351 163.47 34.6961 162.146 33.7808L162.43 33.3695L162.715 32.9583C164.066 33.8925 165.449 34.95 166.861 36.1256ZM158.225 30.2493L157.998 30.6949L157.771 31.1406C156.131 30.3062 154.573 29.7031 153.105 29.332L153.228 28.8473L153.35 28.3625C154.903 28.7551 156.531 29.3879 158.225 30.2493ZM148.145 28L148.216 28.495L148.287 28.9899C147.494 29.1032 146.738 29.3105 146.017 29.6136C145.297 29.9167 144.62 30.3124 143.984 30.7999L143.68 30.4032L143.376 30.0065C144.076 29.4687 144.828 29.0291 145.63 28.6918C146.431 28.3545 147.271 28.1249 148.145 28ZM139.995 33.9806L140.427 34.232L140.859 34.4833C140.098 35.7921 139.44 37.3275 138.889 39.0836L138.412 38.934L137.935 38.7844C138.504 36.9715 139.19 35.3654 139.995 33.9806ZM136.732 43.8886L137.224 43.9729L137.717 44.0571C137.446 45.6433 137.238 47.3419 137.093 49.1476L136.594 49.1076L136.096 49.0675C136.243 47.2359 136.455 45.5075 136.732 43.8886ZM135.854 54.3248L136.354 54.3324L136.854 54.3399C136.828 55.9961 136.847 57.7209 136.908 59.511L136.409 59.5282L135.909 59.5453C135.847 57.7402 135.828 55.9988 135.854 54.3248ZM136.197 64.781L136.696 64.7439L137.194 64.7068C137.258 65.5683 137.331 66.4422 137.413 67.3283L136.383 67.0475C136.315 66.283 136.253 65.5274 136.197 64.781ZM141.171 96.2272C141.521 97.7837 141.888 99.358 142.272 100.949L142.758 100.832L143.244 100.715C142.879 99.2033 142.53 97.7071 142.196 96.2272H141.171ZM143.538 106.029L144.022 105.905L144.506 105.78C144.935 107.446 145.381 109.128 145.845 110.827L145.362 110.959L144.88 111.09C144.415 109.387 143.968 107.7 143.538 106.029ZM146.294 116.134L146.774 115.996L147.255 115.858C147.732 117.516 148.224 119.187 148.733 120.872L148.254 121.016L147.775 121.161C147.266 119.472 146.772 117.796 146.294 116.134ZM149.321 126.172L149.798 126.021L150.275 125.871C150.796 127.521 151.331 129.182 151.88 130.854L151.405 131.01L150.93 131.166C150.379 129.491 149.843 127.826 149.321 126.172ZM152.598 136.144L153.071 135.982L153.544 135.821C154.103 137.456 154.675 139.1 155.26 140.752L154.788 140.919L154.317 141.086C153.731 139.43 153.158 137.783 152.598 136.144ZM156.093 146.014L156.562 145.842L157.032 145.67C157.628 147.297 158.237 148.932 158.858 150.573L158.391 150.75L157.923 150.927C157.301 149.283 156.69 147.645 156.093 146.014ZM159.808 155.826L160.274 155.644L160.739 155.462C161.371 157.077 162.014 158.698 162.668 160.324L162.205 160.51L161.741 160.697C161.085 159.068 160.44 157.444 159.808 155.826ZM163.722 165.544C164.057 166.353 164.395 167.162 164.736 167.972C165.077 168.782 165.419 169.59 165.762 170.395L166.222 170.198L166.682 170.002C166.339 169.199 165.998 168.393 165.658 167.584C165.317 166.776 164.98 165.968 164.646 165.161L164.184 165.353L163.722 165.544ZM167.842 175.201L168.3 175L168.757 174.799C169.462 176.404 170.171 177.997 170.884 179.578L170.428 179.783L169.973 179.989C169.258 178.405 168.547 176.809 167.842 175.201ZM172.156 184.761L172.61 184.551L173.063 184.341C173.802 185.932 174.544 187.511 175.291 189.075L174.839 189.291L174.388 189.506C173.64 187.938 172.896 186.356 172.156 184.761ZM176.669 194.221L177.118 194.001L177.567 193.781C178.339 195.354 179.114 196.913 179.893 198.456L179.446 198.681L179 198.906C178.22 197.36 177.443 195.798 176.669 194.221ZM181.392 203.579L181.835 203.349L182.279 203.118C183.09 204.68 183.903 206.224 184.719 207.75L184.278 207.986L183.837 208.222C183.02 206.692 182.204 205.144 181.392 203.579ZM186.338 212.831L186.776 212.59L187.214 212.349C188.062 213.89 188.913 215.411 189.765 216.912L189.33 217.159L188.895 217.405C188.041 215.901 187.188 214.376 186.338 212.831ZM191.512 221.943L191.943 221.69L192.375 221.437C193.265 222.956 194.156 224.452 195.047 225.924L194.619 226.182L194.191 226.441C193.298 224.966 192.404 223.466 191.512 221.943ZM196.937 230.899L197.36 230.633L197.784 230.368C198.723 231.865 199.66 233.334 200.597 234.775L200.177 235.047L199.758 235.32C198.819 233.875 197.878 232.401 196.937 230.899ZM202.655 239.691L203.07 239.411L203.484 239.131C204.475 240.598 205.465 242.031 206.45 243.429L206.042 243.717L205.633 244.005C204.643 242.602 203.651 241.163 202.655 239.691ZM208.698 248.254L209.1 247.957L209.502 247.66C210.557 249.089 211.606 250.475 212.65 251.818L212.255 252.125L211.86 252.431C210.811 251.082 209.757 249.689 208.698 248.254ZM215.14 256.534L215.526 256.216L215.912 255.898C217.049 257.279 218.177 258.605 219.294 259.873L218.919 260.203L218.543 260.534C217.419 259.257 216.284 257.923 215.14 256.534ZM222.085 264.401C223.332 265.708 224.563 266.939 225.778 268.091L226.122 267.728L226.466 267.366C225.265 266.226 224.045 265.006 222.808 263.71L222.446 264.056L222.085 264.401ZM229.705 271.594L230.025 271.21L230.345 270.826C231.737 271.985 233.097 273.024 234.421 273.939L234.136 274.35L233.852 274.761C232.501 273.827 231.118 272.77 229.705 271.594ZM238.342 277.471L238.569 277.025L238.795 276.579C240.436 277.414 241.994 278.017 243.462 278.388L243.339 278.873L243.216 279.357C241.663 278.965 240.036 278.332 238.342 277.471ZM248.421 279.72L248.351 279.225L248.28 278.73C249.073 278.617 249.829 278.409 250.549 278.106C251.27 277.803 251.947 277.407 252.582 276.92L252.887 277.317L253.191 277.713C252.49 278.251 251.739 278.691 250.937 279.028C250.135 279.365 249.296 279.595 248.421 279.72ZM256.572 273.739L256.139 273.488L255.707 273.236C256.468 271.928 257.127 270.392 257.677 268.636L258.154 268.786L258.632 268.935C258.063 270.748 257.377 272.354 256.572 273.739ZM259.835 263.831L259.342 263.747L258.849 263.663C259.121 262.076 259.329 260.378 259.474 258.572L259.972 258.612L260.471 258.652C260.323 260.484 260.112 262.212 259.835 263.831ZM260.713 253.395L260.213 253.387L259.713 253.38C259.738 251.724 259.72 249.999 259.658 248.209L260.158 248.192L260.658 248.174C260.72 249.98 260.738 251.721 260.713 253.395ZM260.37 242.939L259.871 242.976L259.372 243.013C259.247 241.328 259.088 239.595 258.896 237.816L259.394 237.762L259.891 237.709C260.084 239.498 260.243 241.242 260.37 242.939ZM259.252 232.495L258.756 232.563L258.261 232.631C258.031 230.946 257.774 229.227 257.49 227.474L257.984 227.394L258.477 227.314C258.762 229.075 259.02 230.802 259.252 232.495ZM257.583 222.152L257.091 222.242L256.599 222.333C256.289 220.651 255.957 218.942 255.601 217.207L256.091 217.107L256.581 217.006C256.938 218.747 257.272 220.463 257.583 222.152ZM255.482 211.879L254.994 211.988L254.506 212.097C254.132 210.42 253.737 208.722 253.323 207.005L253.809 206.888L254.295 206.77C254.71 208.493 255.106 210.197 255.482 211.879ZM253.029 201.691C252.599 200.02 252.151 198.333 251.687 196.629L251.204 196.761L250.722 196.893C251.185 198.591 251.632 200.274 252.06 201.94L252.545 201.815L253.029 201.691Z" fill="#0E2230"/>
<path d="M235.541 115.426C236.932 120.798 233.435 126.402 227.654 127.899C221.872 129.395 216.096 126.191 214.706 120.819C213.316 115.447 216.812 109.843 222.593 108.346C228.375 106.85 234.151 110.054 235.541 115.426Z" fill="#C39CFF" stroke="#0E2230"/>
<path d="M297.708 94.5466C284.344 111.073 251.334 90.2588 228.788 120.824C227.1 123.113 223.724 123.55 221.721 121.531C220.249 120.047 220.039 117.699 221.287 116.021C249.042 78.6965 280.452 102.78 294.102 85.9008L297.708 94.5466Z" fill="#DFC3FF" stroke="#0E2230"/>
<path d="M295.43 91.0307C281.998 107.642 248.716 86.5278 226.163 117.784C224.468 120.134 225.622 123.229 228.117 121.755C250.673 89.8394 284.211 111.237 297.708 94.5464L295.43 91.0307Z" fill="#0E2230"/>
<path d="M299.169 71.1893C298.369 77.5047 293.195 81.9471 287.715 81.253C282.236 80.5588 278.332 74.9667 279.132 68.6513C279.932 62.3359 285.107 57.8936 290.586 58.5877C296.066 59.2818 299.969 64.8739 299.169 71.1893Z" fill="#DFC3FF" stroke="#0E2230"/>
<path d="M318.353 65.5729C315.322 71.1705 308.89 73.4389 304.034 70.8086C299.177 68.1782 297.562 61.5525 300.594 55.9548C303.625 50.3571 310.056 48.0887 314.913 50.7191C319.77 53.3495 321.385 59.9752 318.353 65.5729Z" fill="#DFC3FF" stroke="#0E2230"/>
<ellipse cx="292.103" cy="72.9651" rx="8.6112" ry="11.9232" transform="rotate(7.21922 292.103 72.9651)" fill="#0E2230"/>
<ellipse cx="311.123" cy="64.6711" rx="8.6112" ry="11.9232" transform="rotate(28.4386 311.123 64.6711)" fill="#0E2230"/>
<path d="M334.934 91.6418C334.513 95.5466 331.628 98.8875 327.155 101.098C322.683 103.307 316.689 104.347 310.237 103.66C303.802 102.975 298.312 100.455 294.474 97.2267C290.626 93.9898 288.5 90.0997 288.626 86.6779L289.939 71.0786C290.937 70.7147 292.389 70.6463 294.175 70.8045C296.106 70.9755 298.342 71.4018 300.653 71.9178C302.112 72.2437 303.588 72.602 305.029 72.952C305.874 73.1573 306.707 73.3597 307.519 73.5512C309.702 74.0657 311.724 74.4999 313.323 74.67C314.993 74.8478 317.016 74.9157 319.155 74.9686C319.545 74.9783 319.939 74.9874 320.336 74.9967C322.123 75.0382 323.966 75.0811 325.756 75.1763C327.945 75.2927 330.033 75.4865 331.814 75.8462C333.479 76.1825 334.824 76.6543 335.731 77.3021L334.934 91.6418Z" fill="#8C62F2" stroke="#0E2230"/>
<path d="M304.767 101.881C302.148 95.9907 305.267 89.3968 306.804 87.4025C300.364 85.785 292.485 78.55 290 76C288.725 77.2423 288.448 82.5741 289.135 87.8703C289.986 94.4393 297.049 101.142 304.767 101.881Z" fill="#0E2230"/>
<path d="M336.113 77.1569C335.696 81.0669 332.811 84.4126 328.332 86.6252C323.861 88.8346 317.866 89.874 311.415 89.1873C304.963 88.5006 299.321 86.2228 295.415 83.1217C291.503 80.016 289.386 76.1379 289.802 72.2278C290.218 68.3178 293.104 64.9721 297.582 62.7595C302.054 60.5501 308.048 59.5107 314.5 60.1974C320.952 60.8841 326.593 63.1619 330.5 66.263C334.412 69.3687 336.529 73.2468 336.113 77.1569Z" fill="#C39CFF" stroke="#0E2230"/>
<path d="M330.101 75.7208C329.824 78.3289 327.765 80.5882 324.47 82.0841C321.188 83.5745 316.766 84.2581 311.99 83.7497C307.214 83.2414 303.036 81.6425 300.14 79.4946C297.234 77.3387 295.697 74.6966 295.975 72.0886C296.252 69.4805 298.311 67.2213 301.606 65.7253C304.888 64.2349 309.31 63.5514 314.086 64.0597C318.862 64.5681 323.04 66.1669 325.936 68.3149C328.842 70.4707 330.379 73.1128 330.101 75.7208Z" fill="#F4E9FF" stroke="#0E2230"/>
<path d="M316.008 78.362L310.916 73.4124L321.637 71.712" stroke="#0E2230" stroke-linecap="round" stroke-linejoin="round"/>
<path d="M179.5 274L180.5 220.5" stroke="#0E2230"/>
</svg>
