<svg width="346" height="274" viewBox="0 0 346 274" fill="none" xmlns="http://www.w3.org/2000/svg">
<path d="M103.76 201.872C146.66 212.225 146.678 158.587 187.081 171.129L183.795 161.825C143.391 149.283 143.373 202.921 100.473 192.569L103.76 201.872Z" fill="#FFFEEB" stroke="#163349" stroke-width="2"/>
<path d="M103.76 201.872C146.66 212.224 146.678 158.586 187.081 171.129L184.686 168.051C144.282 155.508 144.264 209.146 101.364 198.794L103.76 201.872Z" fill="#163349"/>
<path d="M193.643 103.256L255.312 141.491L165.891 237.079L119.856 132.893L119.022 131.007L193.643 103.256Z" fill="#FFFEEB"/>
<path d="M255.312 141.491L193.643 103.256L119.022 131.007L119.856 132.893M255.312 141.491L165.891 237.079M255.312 141.491L173.908 189.593M165.891 237.079L119.856 132.893M165.891 237.079L173.908 189.593M119.856 132.893L173.908 189.593" stroke="#163349" stroke-width="2"/>
<path d="M119.855 132.894L165.891 237.079L173.908 189.594L119.855 132.894Z" fill="#163349"/>
<path d="M178.225 170.476L130.739 126.691L148.007 119.907L225.094 121.757L242.361 133.475L178.225 170.476Z" fill="#163349"/>
<path d="M180.075 155.059L123.339 104.49L206.593 14.4521L260.246 111.273L180.075 155.059Z" fill="#FFFEEB"/>
<path d="M180.075 155.059L123.339 104.49L206.593 14.4521M180.075 155.059L260.246 111.273L206.593 14.4521M180.075 155.059L206.593 14.4521" stroke="#163349" stroke-width="2"/>
<path d="M149.784 81.7721L125.431 74.2293L120.66 60.0543L126.969 34.468L145.762 39.3128L156.213 55.7151L149.784 81.7721Z" fill="#FF5F77"/>
<path d="M125.431 74.2293L149.784 81.7721L156.213 55.7151M125.431 74.2293L132.413 48.6862M125.431 74.2293L120.66 60.0543L126.969 34.468M156.213 55.7151L132.413 48.6862M156.213 55.7151L145.762 39.3128L126.969 34.468M132.413 48.6862L126.969 34.468" stroke="#163349" stroke-width="2"/>
<path d="M125.431 74.2293L132.413 48.6862L126.969 33.2346L120.66 58.8209L125.431 74.2293Z" fill="#163349"/>
<path fill-rule="evenodd" clip-rule="evenodd" d="M187.232 35.0458L185.459 36.8188C185.012 36.1712 184.566 35.5313 184.12 34.8992L185.128 34.1885L186.136 33.4778C186.501 33.9954 186.866 34.5181 187.232 35.0458ZM183.283 29.5218L182.291 30.2544L181.298 30.987C180.324 29.6667 179.354 28.3862 178.391 27.1467L179.365 26.3899L180.339 25.6331C181.315 26.8893 182.297 28.186 183.283 29.5218ZM177.285 21.8136L176.333 22.5977L175.381 23.3818C174.332 22.1085 173.293 20.8875 172.265 19.7203L173.191 18.9051L174.116 18.0898C175.164 19.2787 176.22 20.5205 177.285 21.8136ZM170.82 14.4895L169.927 15.341L169.035 16.1925C167.9 15.003 166.782 13.8859 165.683 12.8432L166.532 11.9485L167.381 11.0539C168.512 12.1269 169.659 13.2729 170.82 14.4895ZM163.725 7.79253L162.936 8.74044L162.146 9.68834C160.881 8.63481 159.651 7.69571 158.461 6.87262L159.163 5.85819L159.864 4.84376C161.122 5.71354 162.41 6.69799 163.725 7.79253ZM155.684 2.32163L155.125 3.42099L154.565 4.52034C153.12 3.78495 151.777 3.26896 150.541 2.95661L150.843 1.76083L151.146 0.565059C152.592 0.930579 154.107 1.51973 155.684 2.32163ZM146.3 0.227539L146.475 1.44853L146.649 2.66953C146.037 2.75697 145.46 2.91582 144.914 3.14544C144.368 3.37505 143.852 3.67624 143.361 4.05266L142.61 3.07414L141.859 2.09563C142.512 1.59489 143.211 1.18569 143.958 0.87165C144.704 0.557606 145.486 0.343861 146.3 0.227539ZM138.712 5.79548C137.962 7.08473 137.324 8.58005 136.794 10.2678L137.971 10.6369L139.148 11.0059C139.633 9.45815 140.204 8.13743 140.844 7.03573L139.778 6.4156L138.712 5.79548ZM135.674 15.0199L136.89 15.2277L138.105 15.4356C137.861 16.862 137.673 18.3976 137.541 20.039L136.312 19.9402L135.082 19.8415C135.219 18.1362 135.416 16.5271 135.674 15.0199ZM134.856 24.736L136.09 24.7546L137.323 24.7733C137.3 26.2879 137.317 27.8683 137.373 29.5116L136.141 29.5539L134.908 29.5963C134.85 27.9157 134.833 26.2945 134.856 24.736ZM135.176 34.4707L136.406 34.3792L137.636 34.2877C137.709 35.265 137.794 36.2604 137.891 37.2733L135.349 36.5801C135.286 35.8686 135.228 35.1654 135.176 34.4707ZM139.807 63.7468C140.133 65.196 140.474 66.6618 140.831 68.1435L142.031 67.8545L143.23 67.5655C142.92 66.2801 142.622 65.007 142.336 63.7468H139.807ZM142.01 72.8729L143.205 72.5654L144.399 72.258C144.797 73.8015 145.21 75.361 145.64 76.9354L144.45 77.2601L143.26 77.5848C142.827 75.999 142.411 74.4281 142.01 72.8729ZM144.576 82.2803L145.761 81.9394L146.947 81.5985C147.389 83.1356 147.846 84.6856 148.317 86.2477L147.136 86.604L145.955 86.9603C145.481 85.3881 145.021 83.8279 144.576 82.2803ZM147.395 91.6253L148.571 91.2543L149.748 90.8833C150.23 92.4138 150.726 93.9548 151.236 95.5054L150.064 95.8904L148.893 96.2755C148.38 94.7156 147.881 93.1653 147.395 91.6253ZM150.445 100.909L151.613 100.511L152.78 100.112C153.298 101.629 153.828 103.154 154.371 104.687L153.208 105.099L152.046 105.511C151.5 103.969 150.966 102.435 150.445 100.909ZM153.699 110.099L154.857 109.674L156.015 109.25C156.568 110.76 157.134 112.277 157.71 113.799L156.557 114.236L155.403 114.673C154.824 113.142 154.255 111.617 153.699 110.099ZM157.158 119.233L158.307 118.784L159.455 118.335C160.041 119.834 160.638 121.338 161.245 122.847L160.101 123.308L158.957 123.769C158.347 122.252 157.747 120.74 157.158 119.233ZM160.802 128.281C161.114 129.034 161.428 129.787 161.746 130.542C162.063 131.296 162.382 132.048 162.701 132.797L163.836 132.313L164.97 131.829C164.652 131.084 164.335 130.336 164.02 129.585C163.704 128.835 163.391 128.085 163.08 127.337L161.941 127.809L160.802 128.281ZM164.637 137.271L165.767 136.776L166.896 136.28C167.55 137.769 168.208 139.248 168.87 140.715L167.745 141.222L166.621 141.729C165.956 140.255 165.294 138.768 164.637 137.271ZM168.654 146.172L169.773 145.653L170.892 145.134C171.577 146.611 172.266 148.076 172.958 149.528L171.845 150.059L170.732 150.59C170.036 149.13 169.343 147.657 168.654 146.172ZM172.856 154.98L173.963 154.436L175.07 153.893C175.787 155.353 176.506 156.799 177.228 158.23L176.127 158.786L175.026 159.341C174.299 157.902 173.576 156.448 172.856 154.98ZM177.252 163.692L178.347 163.123L179.441 162.555C180.194 164.004 180.948 165.436 181.705 166.851L180.617 167.433L179.529 168.014C178.768 166.59 178.009 165.149 177.252 163.692ZM181.857 172.305L182.938 171.71L184.018 171.116C184.805 172.545 185.594 173.955 186.383 175.346L185.311 175.955L184.238 176.564C183.443 175.164 182.649 173.744 181.857 172.305ZM186.674 180.788L187.738 180.165L188.803 179.541C189.628 180.949 190.453 182.336 191.279 183.699L190.224 184.338L189.169 184.977C188.337 183.603 187.505 182.207 186.674 180.788ZM191.725 189.127L192.77 188.472L193.815 187.817C194.684 189.203 195.553 190.564 196.42 191.898L195.386 192.57L194.352 193.242C193.477 191.897 192.601 190.525 191.725 189.127ZM197.049 197.312L198.071 196.621L199.092 195.931C200.01 197.288 200.925 198.614 201.837 199.907L200.829 200.618L199.821 201.329C198.9 200.022 197.975 198.683 197.049 197.312ZM202.674 205.285L203.666 204.552L204.659 203.819C205.633 205.14 206.603 206.42 207.566 207.66L206.592 208.416L205.618 209.173C204.642 207.917 203.66 206.62 202.674 205.285ZM208.672 212.993L209.624 212.209L210.576 211.425C211.625 212.698 212.664 213.919 213.692 215.086L212.766 215.901L211.841 216.716C210.793 215.528 209.737 214.286 208.672 212.993ZM215.137 220.317L216.03 219.465L216.922 218.614C218.057 219.803 219.175 220.92 220.274 221.963L219.425 222.858L218.576 223.752C217.445 222.679 216.298 221.533 215.137 220.317ZM222.232 227.014L223.021 226.066L223.811 225.118C225.076 226.171 226.306 227.111 227.496 227.934L226.794 228.948L226.093 229.963C224.835 229.093 223.547 228.108 222.232 227.014ZM230.273 232.485L230.832 231.385L231.392 230.286C232.837 231.021 234.18 231.537 235.416 231.85L235.114 233.045L234.811 234.241C233.365 233.876 231.85 233.287 230.273 232.485ZM239.657 234.579L239.482 233.358L239.308 232.137C239.92 232.049 240.497 231.89 241.043 231.661C241.589 231.431 242.105 231.13 242.596 230.754L243.347 231.732L244.098 232.711C243.445 233.211 242.746 233.621 241.999 233.935C241.253 234.249 240.471 234.462 239.657 234.579ZM247.245 229.011L246.179 228.391L245.113 227.771C245.753 226.669 246.324 225.348 246.809 223.8L247.986 224.169L249.163 224.538C248.633 226.226 247.995 227.722 247.245 229.011ZM250.283 219.786L249.067 219.579L247.852 219.371C248.096 217.944 248.284 216.409 248.416 214.767L249.645 214.866L250.875 214.965C250.738 216.67 250.541 218.279 250.283 219.786ZM251.101 210.07L249.867 210.052L248.634 210.033C248.657 208.518 248.64 206.938 248.584 205.295L249.816 205.252L251.049 205.21C251.107 206.891 251.124 208.512 251.101 210.07ZM250.781 200.336L249.551 200.427L248.321 200.519C248.205 198.968 248.059 197.371 247.882 195.731L249.109 195.599L250.335 195.466C250.515 197.132 250.663 198.756 250.781 200.336ZM249.74 190.613L248.518 190.78L247.296 190.947C247.083 189.391 246.846 187.803 246.584 186.183L247.801 185.986L249.019 185.789C249.284 187.428 249.525 189.037 249.74 190.613ZM248.186 180.983L246.973 181.206L245.76 181.43C245.474 179.874 245.166 178.293 244.837 176.687L246.045 176.44L247.254 176.193C247.586 177.813 247.896 179.411 248.186 180.983ZM246.231 171.418L245.027 171.688L243.823 171.957C243.476 170.404 243.111 168.832 242.727 167.241L243.926 166.952L245.126 166.663C245.512 168.267 245.881 169.853 246.231 171.418ZM243.947 161.933L242.752 162.241L241.558 162.548C241.16 161.005 240.747 159.445 240.317 157.871L241.507 157.546L242.697 157.222C243.13 158.807 243.546 160.378 243.947 161.933Z" fill="#163349"/>
<path d="M227.177 88.455C227.177 93.2959 222.989 97.3221 217.693 97.3221C212.398 97.3221 208.209 93.2959 208.209 88.455C208.209 83.6141 212.398 79.5879 217.693 79.5879C222.989 79.5879 227.177 83.6141 227.177 88.455Z" fill="#FFFEEB" stroke="#163349" stroke-width="2"/>
<path d="M288.613 84.1386C272.713 95.9162 247.817 69.4561 220.366 91.7453C218.311 93.4143 215.166 93.0208 213.832 90.7338C212.851 89.0526 213.209 86.8873 214.725 85.6663C248.448 58.5002 271.14 87.5343 287.38 75.5049L288.613 84.1386Z" fill="#FFFEEB" stroke="#163349" stroke-width="2"/>
<path d="M287.379 80.439C271.398 92.2772 246.326 65.4832 218.708 88.3935C216.632 90.1159 216.951 93.1747 219.543 92.4279C247.318 68.9247 272.554 96.0343 288.613 84.1392L287.379 80.439Z" fill="#163349"/>
<path d="M294.883 63.2302C292.776 68.518 287.356 71.1033 282.907 69.33C278.458 67.5567 276.302 61.9522 278.409 56.6643C280.517 51.3765 285.937 48.7912 290.386 50.5645C294.835 52.3378 296.991 57.9424 294.883 63.2302Z" fill="#FFF968" stroke="#163349" stroke-width="2"/>
<path d="M313.589 62.4766C309.711 66.6431 303.723 67.0916 300.217 63.8281C296.711 60.5646 296.73 54.5599 300.609 50.3933C304.487 46.2268 310.475 45.7784 313.981 49.0419C317.487 52.3053 317.468 58.3101 313.589 62.4766Z" fill="#FFF968" stroke="#163349" stroke-width="2"/>
<ellipse cx="288.598" cy="63.3805" rx="8.01703" ry="11.1005" transform="rotate(21.7301 288.598 63.3805)" fill="#163349"/>
<ellipse cx="307.675" cy="60.3414" rx="8.01703" ry="11.1005" transform="rotate(42.9495 307.675 60.3414)" fill="#163349"/>
<path d="M322.342 90.029C321.135 93.2125 317.957 95.4644 313.521 96.3896C309.089 97.3141 303.547 96.8691 297.972 94.7752C292.429 92.6931 288.156 89.2061 285.513 85.4904C282.855 81.753 281.936 77.9282 282.777 75.0932L287.475 61.6908C288.307 61.6878 289.422 61.9321 290.793 62.4198C292.459 63.0122 294.35 63.9051 296.308 64.9065C297.544 65.539 298.78 66.201 299.994 66.8508C300.709 67.2335 301.415 67.6119 302.109 67.9775C303.955 68.9498 305.704 69.8277 307.14 70.3671C308.627 70.9257 310.455 71.4642 312.368 72.0103C312.719 72.1105 313.074 72.2111 313.43 72.3122C315.03 72.7664 316.673 73.2325 318.255 73.7332C320.192 74.3458 322 74.9983 323.486 75.7211C324.748 76.3343 325.699 76.9615 326.309 77.5956L322.342 90.029Z" fill="#FFF968" stroke="#163349" stroke-width="2"/>
<path d="M294.164 91.5394C293.178 85.6191 296.631 81.2611 298.481 79.8222C293.054 76.862 288.408 70.3662 286.764 67.4883C285.325 68.3105 283.064 71.1884 282.447 76.122C281.682 82.2413 287.381 89.0726 294.164 91.5394Z" fill="#163349"/>
<path d="M326.785 77.2366C325.585 80.4323 322.402 82.6927 317.955 83.6202C313.523 84.5447 307.982 84.0997 302.407 82.0058C296.832 79.9119 292.368 76.5986 289.64 72.9849C286.904 69.3595 285.996 65.5625 287.196 62.3668C288.396 59.1711 291.579 56.9107 296.026 55.9832C300.458 55.0587 306 55.5038 311.575 57.5977C317.149 59.6916 321.614 63.0048 324.341 66.6186C327.078 70.2439 327.986 74.0409 326.785 77.2366Z" fill="#FFF968" stroke="#163349" stroke-width="2"/>
<path d="M321.706 74.5407C320.941 76.5772 318.777 78.0607 315.554 78.6237C312.357 79.1822 308.31 78.7846 304.197 77.2398C300.085 75.6951 296.776 73.33 294.738 70.805C292.682 68.2593 292.03 65.7183 292.795 63.6819C293.56 61.6455 295.724 60.162 298.947 59.5989C302.143 59.0404 306.191 59.4381 310.303 60.9828C314.416 62.5276 317.724 64.8927 319.763 67.4177C321.819 69.9633 322.471 72.5043 321.706 74.5407Z" fill="#FFFEEB" stroke="#163349" stroke-width="2"/>
<path d="M308.887 73.8206L305.452 68.1719L315.511 69.1402" stroke="#163349" stroke-width="2"/>
<path d="M114.005 221.615L113.341 173.451L73.8285 167.134L28.7864 200.705L31.9819 248.63L76.01 256.621L114.005 221.615Z" fill="#FFFEEB"/>
<path d="M113.341 173.451L114.005 221.615L76.01 256.621M113.341 173.451L73.1906 207.91M113.341 173.451L73.8285 167.134L28.7864 200.705M76.01 256.621L31.9819 248.63L28.7864 200.705M76.01 256.621L73.1906 207.91M28.7864 200.705L73.1906 207.91" stroke="#163349" stroke-width="2"/>
<path d="M97.438 185.853L114.089 212.988L113.472 173.52L100.521 171.053L97.438 185.853Z" fill="#163349"/>
<path d="M63.7446 242.623L62.5185 217.168C62.4399 215.537 61.1995 214.198 59.5789 213.996C57.4845 213.735 55.671 215.447 55.8114 217.553L57.5069 242.981C57.6031 244.424 58.6772 245.613 60.1033 245.854C62.0701 246.186 63.8406 244.615 63.7446 242.623Z" fill="#163349"/>
<path d="M63.7446 242.623L62.5185 217.168C62.4399 215.537 61.1995 214.198 59.5789 213.996C57.4845 213.735 55.671 215.447 55.8114 217.553L57.5069 242.981C57.6031 244.424 58.6772 245.613 60.1033 245.854C62.0701 246.186 63.8406 244.615 63.7446 242.623Z" stroke="#163349" stroke-width="2"/>
<path d="M46.3325 239.617L45.1064 214.162C45.0278 212.531 43.7874 211.192 42.1668 210.99C40.0724 210.729 38.2589 212.441 38.3993 214.547L40.0948 239.975C40.191 241.418 41.2651 242.607 42.6911 242.848C44.658 243.18 46.4285 241.61 46.3325 239.617Z" fill="#163349"/>
<path d="M49.3734 256.248L62.5597 241.68C63.5104 240.63 63.5692 239.049 62.6991 237.931C61.6009 236.52 59.5034 236.419 58.2757 237.719L44.7841 252.005C43.7496 253.101 43.644 254.778 44.5329 255.995C45.7016 257.594 48.0441 257.717 49.3734 256.248Z" fill="#FFFEEB" stroke="#163349" stroke-width="2"/>
<circle cx="9.86712" cy="9.86712" r="8.86712" transform="matrix(-0.942892 0.333099 0.333099 0.942892 46.2124 248.182)" fill="#FFF968" stroke="#163349" stroke-width="2"/>
<path fill-rule="evenodd" clip-rule="evenodd" d="M36.2896 269.833C36.865 269.74 37.4403 269.594 38.0094 269.393C43.1476 267.578 45.8415 261.941 44.0263 256.803C43.0729 254.104 41.0652 252.08 38.6292 251.029C43.2494 250.28 47.8856 252.917 49.4997 257.486C51.3149 262.624 48.6211 268.261 43.4828 270.076C41.0434 270.938 38.4915 270.783 36.2896 269.833Z" fill="#163349"/>
<path d="M22.1926 211.105L39.4434 220.513C40.6871 221.191 42.2383 220.878 43.1214 219.77C44.2361 218.372 43.8424 216.31 42.291 215.42L25.2431 205.649C23.9358 204.9 22.2801 205.19 21.3055 206.339C20.0243 207.85 20.4537 210.156 22.1926 211.105Z" fill="#FFFEEB" stroke="#163349" stroke-width="2"/>
<circle cx="9.86712" cy="9.86712" r="8.86712" transform="matrix(-0.942892 0.333099 0.333099 0.942892 25.3291 192.771)" fill="#FFF968" stroke="#163349" stroke-width="2"/>
<path fill-rule="evenodd" clip-rule="evenodd" d="M15.4058 214.423C15.9812 214.33 16.5565 214.184 17.1256 213.983C22.2638 212.168 24.9577 206.531 23.1425 201.393C22.1891 198.694 20.1814 196.67 17.7454 195.619C22.3656 194.87 27.0018 197.506 28.6159 202.076C30.4311 207.214 27.7373 212.851 22.599 214.666C20.1596 215.528 17.6077 215.373 15.4058 214.423Z" fill="#163349"/>
<path d="M85.8567 240.063L93.9278 233.287L94.0951 220.801L89.2031 219.914L80.1745 227.681L81.1701 239.757L85.8567 240.063Z" fill="#FF5F77"/>
<path d="M94.0951 220.801L85.0665 228.569M94.0951 220.801L93.9278 233.287L85.8567 240.063M94.0951 220.801L89.2031 219.914L80.1745 227.681M85.0665 228.569L85.8567 240.063M85.0665 228.569L80.1745 227.681M85.8567 240.063L81.1701 239.757L80.1745 227.681" stroke="#163349" stroke-width="2"/>
<path d="M85.0665 228.569L94.0951 220.801L89.2031 219.914L80.1745 227.681L85.0665 228.569Z" fill="#163349"/>
<path d="M84.2107 224.294L92.2818 217.518L92.4491 205.032L87.5571 204.144L78.5285 211.912L79.5241 223.987L84.2107 224.294Z" fill="#60D2B3"/>
<path d="M92.4491 205.032L83.4205 212.8M92.4491 205.032L92.2818 217.518L84.2107 224.294M92.4491 205.032L87.5571 204.144L78.5285 211.912M83.4205 212.8L84.2107 224.294M83.4205 212.8L78.5285 211.912M84.2107 224.294L79.5241 223.987L78.5285 211.912" stroke="#163349" stroke-width="2"/>
<path d="M83.4205 212.8L92.4491 205.032L87.5571 204.144L78.5285 211.912L83.4205 212.8Z" fill="#163349"/>
<path d="M56.699 189.715C56.7361 190.032 56.9983 190.49 57.8682 190.991C58.718 191.48 59.9786 191.906 61.6015 192.215C64.835 192.83 69.2775 192.941 74.1479 192.37C79.0183 191.8 83.3151 190.666 86.319 189.32C87.8265 188.645 88.9547 187.939 89.6683 187.267C90.3989 186.578 90.5482 186.072 90.5111 185.755L89.7348 179.126C89.4009 179.139 88.9758 179.164 88.4591 179.203C87.3885 179.283 86.0089 179.417 84.4156 179.588C81.2306 179.93 77.2194 180.42 73.1753 180.935C68.7654 181.497 64.3065 182.089 60.854 182.548C58.7708 182.825 57.054 183.053 55.9355 183.196L56.699 189.715Z" fill="#FFFEEB" stroke="#163349" stroke-width="2"/>
<path d="M75.2955 191.652L73.9934 184.264C82.0937 183.495 88.109 181.021 89.3172 179.504C89.5911 180.28 90.0776 182.768 89.8324 186.517C85.838 190.021 78.4768 191.401 75.2955 191.652Z" fill="#163349"/>
<path d="M55.786 181.919C55.8316 182.308 56.1291 182.809 56.9948 183.341C57.8483 183.865 59.1105 184.323 60.7332 184.661C63.9678 185.334 68.4088 185.482 73.2745 184.912C78.1402 184.342 82.4269 183.172 85.4184 181.77C86.9192 181.066 88.0413 180.329 88.7506 179.621C89.47 178.904 89.6437 178.348 89.5981 177.959C89.5526 177.57 89.255 177.069 88.3893 176.537C87.5358 176.013 86.2736 175.554 84.6509 175.217C81.4163 174.543 76.9753 174.396 72.1096 174.965C67.2439 175.535 62.9572 176.705 59.9657 178.108C58.4649 178.811 57.3428 179.549 56.6336 180.256C55.9141 180.973 55.7404 181.53 55.786 181.919Z" fill="#FFFEEB" stroke="#163349" stroke-width="2"/>
<mask id="path-46-inside-1_1063_44890" fill="white">
<path fill-rule="evenodd" clip-rule="evenodd" d="M61.9143 168.096C61.9117 168.077 61.9092 168.058 61.9067 168.038C61.9042 168.019 61.9018 168 61.8995 167.98L61.8284 167.426L61.8483 167.423C61.5505 162.601 65.0443 158.31 69.906 157.687C74.7677 157.064 79.2309 160.335 80.1588 165.076L80.1791 165.074L81.904 178.531C77.498 181.583 68.5866 182.725 63.5533 180.883L61.9143 168.096Z"/>
</mask>
<path fill-rule="evenodd" clip-rule="evenodd" d="M61.9143 168.096C61.9117 168.077 61.9092 168.058 61.9067 168.038C61.9042 168.019 61.9018 168 61.8995 167.98L61.8284 167.426L61.8483 167.423C61.5505 162.601 65.0443 158.31 69.906 157.687C74.7677 157.064 79.2309 160.335 80.1588 165.076L80.1791 165.074L81.904 178.531C77.498 181.583 68.5866 182.725 63.5533 180.883L61.9143 168.096Z" fill="#FF5F77"/>
<path d="M61.9143 168.096L63.8965 167.83L63.8981 167.842L61.9143 168.096ZM61.8995 167.98L63.8833 167.726L63.8848 167.738L61.8995 167.98ZM61.8284 167.426L59.8447 167.68L59.5904 165.696L61.5741 165.442L61.8284 167.426ZM61.8483 167.423L63.8445 167.3L63.96 169.169L62.1026 169.407L61.8483 167.423ZM80.1588 165.076L80.4131 167.06L78.5557 167.298L78.1961 165.461L80.1588 165.076ZM80.1791 165.074L79.9249 163.09L81.9086 162.836L82.1629 164.82L80.1791 165.074ZM81.904 178.531L83.8878 178.277L84.0424 179.483L83.0428 180.175L81.904 178.531ZM63.5533 180.883L62.866 182.761L61.7241 182.344L61.5695 181.137L63.5533 180.883ZM63.8905 167.784C63.8924 167.799 63.8944 167.814 63.8965 167.83L59.9322 168.363C59.929 168.339 59.926 168.316 59.9229 168.293L63.8905 167.784ZM63.8848 167.738C63.8866 167.753 63.8885 167.769 63.8905 167.784L59.9229 168.293C59.9199 168.269 59.917 168.246 59.9142 168.222L63.8848 167.738ZM63.8122 167.172L63.8832 167.726L59.9157 168.234L59.8447 167.68L63.8122 167.172ZM62.1026 169.407L62.0827 169.41L61.5741 165.442L61.5941 165.44L62.1026 169.407ZM70.1603 159.671C66.3505 160.159 63.6112 163.522 63.8445 167.3L59.8521 167.547C59.4897 161.68 63.7382 156.461 69.6517 155.703L70.1603 159.671ZM78.1961 165.461C77.4691 161.746 73.97 159.182 70.1603 159.671L69.6517 155.703C75.5653 154.945 80.9926 158.924 82.1216 164.692L78.1961 165.461ZM80.4334 167.058L80.4131 167.06L79.9046 163.093L79.9249 163.09L80.4334 167.058ZM79.9203 178.785L78.1954 165.328L82.1629 164.82L83.8878 178.277L79.9203 178.785ZM64.2406 179.005C66.3468 179.776 69.4791 179.972 72.7096 179.558C75.9401 179.144 78.9216 178.164 80.7653 176.887L83.0428 180.175C80.4805 181.95 76.8032 183.066 73.2182 183.526C69.6331 183.985 65.7931 183.832 62.866 182.761L64.2406 179.005ZM63.8981 167.842L65.5371 180.629L61.5695 181.137L59.9306 168.351L63.8981 167.842Z" fill="#163349" mask="url(#path-46-inside-1_1063_44890)"/>
<path d="M290.756 136.424L283.917 134.404C281.46 133.678 278.832 133.785 276.442 134.708L271.998 136.424L294.346 173.448L300.334 170.561C301.979 169.768 303.114 168.199 303.353 166.389L304.883 154.809L316.368 149.373C318.944 148.154 318.646 144.398 315.91 143.601L304.884 140.385L305.415 128.666C305.541 125.897 302.802 123.897 300.203 124.86L295.227 126.703L290.756 136.424Z" fill="#FFFEEB" stroke="#163349" stroke-width="2" stroke-linecap="round"/>
<path d="M276.384 151.965L267.578 163.174C266.165 164.973 267.929 167.516 270.109 166.822L282.78 162.789L290.63 173.207C291.85 174.825 294.412 174.215 294.772 172.221L297.317 158.12L310.645 151.811C312.576 150.897 312.353 148.08 310.301 147.482L297.317 143.696L297.806 129.199C297.88 127.012 295.166 125.945 293.731 127.597L283.189 139.734L273.482 136.629C270.758 135.758 268.41 138.728 269.885 141.177L276.384 151.965Z" fill="#60D2B3" stroke="#163349" stroke-width="2" stroke-linecap="round"/>
<path d="M305.256 154.769L297.329 157.734L296.345 166.217L303.729 162.53L305.256 154.769Z" fill="#163349"/>
<path d="M305.293 140.641L297.089 144.062L297.816 134.679L304.658 131.82L305.293 140.641Z" fill="#163349"/>
<path d="M87.6756 113.472L78.9246 113.715L72.5537 100.431C71.9141 99.0978 69.9653 99.2622 69.558 100.684L64.8276 117.199L54.5312 124.219C53.7355 124.762 53.5919 125.877 54.2244 126.604L58.4506 131.457L67.5624 131.189L74.6864 140.152C75.2061 140.806 76.2408 140.64 76.5308 139.857L81.23 127.17L91.9497 118.594L89.0646 114.197C88.7586 113.731 88.233 113.456 87.6756 113.472Z" fill="#FFFEEB" stroke="#163349" stroke-width="2"/>
<path d="M90.8943 118.144L81.7659 118.326L76.5155 108.229C75.8653 106.979 74.0354 107.111 73.5708 108.441L68.9022 121.81L58.5826 128.892C57.3813 129.717 57.8079 131.586 59.2479 131.807L69.1702 133.334L76.2943 142.297C76.814 142.95 77.8486 142.785 78.1387 142.002L82.8379 129.314L92.0107 120.939C93.1065 119.938 92.3779 118.114 90.8943 118.144Z" fill="#60D2B3" stroke="#163349" stroke-width="2"/>
<path d="M64.8276 117.467L68.9023 121.81L62.4705 125.829L58.3958 121.755L64.8276 117.467Z" fill="#163349"/>
<path d="M99.1262 89.0366L94.0957 89.1763L90.2331 81.1226C89.8768 80.3796 88.8053 80.4205 88.5067 81.1886L84.6083 91.2162L78.5959 95.3156C78.1242 95.6371 78.045 96.301 78.4276 96.7246L82.1078 100.798L87.4429 100.641L91.6142 105.889C91.9185 106.272 92.5243 106.175 92.6941 105.716L95.4456 98.2876L101.722 93.2663L100.006 89.5803C99.8473 89.2398 99.5016 89.0262 99.1262 89.0366Z" fill="#FFFEEB" stroke="#163349" stroke-width="2"/>
<path d="M101.104 93.0025L95.7592 93.1094L92.685 87.1975C92.3043 86.4653 91.2329 86.5424 90.9609 87.3214L88.2273 95.1493L82.185 99.296C81.4816 99.7787 81.7314 100.873 82.5745 101.003L88.3843 101.897L92.5555 107.144C92.8598 107.527 93.4656 107.43 93.6355 106.972L96.3869 99.5429L101.758 94.6391C102.399 94.0533 101.973 92.9851 101.104 93.0025Z" fill="#60D2B3" stroke="#163349" stroke-width="2"/>
<path d="M85.8417 91.373L88.2275 95.1492L85.695 96.2695L83.3091 92.6503L85.8417 91.373Z" fill="#163349"/>
</svg>
