<svg width="348" height="330" viewBox="0 0 348 330" fill="none" xmlns="http://www.w3.org/2000/svg">
<mask id="mask0_3345_43633" style="mask-type:alpha" maskUnits="userSpaceOnUse" x="142" y="17" width="82" height="66">
<path d="M142.925 61.5905L157.698 24.7175C159.5 20.2189 164.098 17.4902 168.91 18.0629L212.016 23.1931C213.769 23.4017 215.453 23.9995 216.946 24.9429L222.28 28.3158C222.51 28.4611 222.604 28.7498 222.502 29.0022L206.367 69.2764C204.784 73.2269 200.786 75.6611 196.55 75.2537L174.521 73.1355L172.918 81.7687C172.84 82.1838 172.351 82.37 172.018 82.1114L167.739 78.7955C166.778 78.0505 166.084 77.0146 165.759 75.8426L164.75 72.1959L147.995 70.5848C147.889 70.5746 147.788 70.5345 147.703 70.4692L144.705 68.145C142.715 66.6025 141.988 63.9277 142.925 61.5905Z" fill="#8C62F2" stroke="#071117"/>
</mask>
<g mask="url(#mask0_3345_43633)">
<path d="M142.925 61.5905L157.897 24.2198C159.699 19.7212 164.297 16.9924 169.109 17.5651L211.873 22.6545C213.845 22.8892 215.726 23.616 217.344 24.7681L222.315 28.3093C222.527 28.4603 222.609 28.7367 222.512 28.9783L206.366 69.2764C204.784 73.2269 200.786 75.6611 196.55 75.2537L174.521 73.1355L172.917 81.7687C172.84 82.1838 172.351 82.37 172.017 82.1114L167.739 78.7955C166.778 78.0504 166.083 77.0146 165.759 75.8425L164.75 72.1959L147.995 70.5848C147.889 70.5746 147.788 70.5345 147.703 70.4692L144.705 68.145C142.715 66.6025 141.988 63.9277 142.925 61.5905Z" fill="#4394CD"/>
<path d="M182.459 34.3844L157.725 16.0987L128.923 62.0363L174.262 92.3322L182.459 34.3844Z" fill="#306287"/>
<path d="M179.147 84.4686L162.625 72.3611L139.922 71.3527L144.172 39.8397L165.97 56.0825L179.147 84.4686Z" fill="#071117"/>
<path d="M164.273 70.4736L165.759 75.8426C166.084 77.0146 166.778 78.0505 167.739 78.7955L172.018 82.1114C172.351 82.37 172.84 82.1838 172.918 81.7687L174.849 71.3696L164.273 70.4736ZM222.502 29.0022L206.367 69.2764C204.784 73.2269 200.786 75.6611 196.55 75.2537L147.995 70.5848C147.889 70.5746 147.788 70.5345 147.703 70.4692L144.705 68.145C142.715 66.6025 141.988 63.9277 142.925 61.5905L157.698 24.7175C159.5 20.2189 164.098 17.4902 168.91 18.0629L212.016 23.1931C213.769 23.4017 215.453 23.9995 216.946 24.9429L222.28 28.3158C222.51 28.4611 222.604 28.7498 222.502 29.0022Z" stroke="#071117"/>
</g>
<mask id="mask1_3345_43633" style="mask-type:alpha" maskUnits="userSpaceOnUse" x="145" y="20" width="81" height="64">
<path fill-rule="evenodd" clip-rule="evenodd" d="M160.837 27.4985L146.172 64.1015C144.792 67.5464 147.058 71.3623 150.743 71.7988L170.427 74.1305L172.312 81.908C172.657 83.3353 174.715 83.5818 176.12 82.3644L183.797 75.7142L199.647 77.5917C203.952 78.1015 208.062 75.6602 209.674 71.6369L224.339 35.034C225.719 31.5891 223.453 27.7732 219.768 27.3367L170.864 21.5438C166.56 21.0339 162.449 23.4753 160.837 27.4985Z" fill="#C39CFF"/>
<path d="M146.172 64.1015L146.636 64.2874L146.172 64.1015ZM160.837 27.4985L160.373 27.3126L160.837 27.4985ZM150.743 71.7988L150.685 72.2953L150.685 72.2953L150.743 71.7988ZM170.427 74.1305L170.913 74.0127L170.831 73.6748L170.486 73.6339L170.427 74.1305ZM172.312 81.908L172.798 81.7903L172.798 81.7903L172.312 81.908ZM176.12 82.3644L175.793 81.9865L176.12 82.3644ZM183.797 75.7142L183.856 75.2177L183.637 75.1917L183.47 75.3363L183.797 75.7142ZM199.647 77.5917L199.589 78.0882L199.647 77.5917ZM219.768 27.3367L219.827 26.8401L219.768 27.3367ZM170.864 21.5438L170.805 22.0403L170.864 21.5438ZM146.636 64.2874L161.301 27.6845L160.373 27.3126L145.708 63.9155L146.636 64.2874ZM150.802 71.3023C147.444 70.9044 145.378 67.4269 146.636 64.2874L145.708 63.9155C144.205 67.6659 146.673 71.8201 150.685 72.2953L150.802 71.3023ZM170.486 73.6339L150.802 71.3023L150.685 72.2953L170.369 74.627L170.486 73.6339ZM172.798 81.7903L170.913 74.0127L169.941 74.2482L171.826 82.0257L172.798 81.7903ZM175.793 81.9865C175.191 82.5079 174.464 82.7017 173.878 82.6315C173.297 82.5619 172.909 82.2519 172.798 81.7903L171.826 82.0257C172.06 82.9914 172.874 83.5183 173.759 83.6244C174.64 83.7299 175.644 83.4383 176.448 82.7423L175.793 81.9865ZM183.47 75.3363L175.793 81.9865L176.448 82.7423L184.125 76.0921L183.47 75.3363ZM199.706 77.0952L183.856 75.2177L183.738 76.2107L199.589 78.0882L199.706 77.0952ZM209.21 71.451C207.682 75.2644 203.786 77.5784 199.706 77.0952L199.589 78.0882C204.117 78.6247 208.442 76.056 210.138 71.8229L209.21 71.451ZM223.875 34.8481L209.21 71.451L210.138 71.8229L224.803 35.22L223.875 34.8481ZM219.709 27.8332C223.067 28.231 225.133 31.7086 223.875 34.8481L224.803 35.22C226.306 31.4696 223.839 27.3154 219.827 26.8401L219.709 27.8332ZM170.805 22.0403L219.709 27.8332L219.827 26.8401L170.922 21.0472L170.805 22.0403ZM161.301 27.6845C162.829 23.8711 166.725 21.557 170.805 22.0403L170.922 21.0472C166.394 20.5108 162.069 23.0795 160.373 27.3126L161.301 27.6845Z" fill="#071117"/>
</mask>
<g mask="url(#mask1_3345_43633)">
<path fill-rule="evenodd" clip-rule="evenodd" d="M160.837 27.4985L146.172 64.1015C144.792 67.5464 147.058 71.3623 150.743 71.7988L170.427 74.1305L172.312 81.908C172.657 83.3353 174.715 83.5818 176.12 82.3644L183.797 75.7142L199.647 77.5917C203.952 78.1015 208.062 75.6602 209.674 71.6369L224.339 35.034C225.719 31.5891 223.453 27.7732 219.768 27.3367L170.864 21.5438C166.56 21.0339 162.449 23.4753 160.837 27.4985Z" fill="#73B9EB"/>
<path d="M182.138 49.092C190.889 48.537 194.014 46.6842 195.257 43.5813C196.5 40.4785 195.061 38.4797 191.288 38.0275C187.605 37.5862 184.145 39.0871 182.118 43.4324L174.071 42.4681C177.909 34.5534 185.636 31.203 194.093 32.2163C203.049 33.2896 206.677 37.9116 204.071 44.4148C201.942 49.7279 196.761 53.0271 187.499 54.5008L185.915 58.4538L178.732 57.593L182.138 49.092ZM173.98 68.3827L176.671 61.6669L184.627 62.6203L181.937 69.3361L173.98 68.3827Z" fill="#3B7CA8"/>
<path opacity="0.35" d="M225.687 103.115L165.938 22.277C171.005 5.59109 211.464 14.6185 231.06 21.2179L225.687 103.115Z" fill="white"/>
<path d="M146.172 64.1015L146.636 64.2874L146.172 64.1015ZM160.837 27.4985L160.373 27.3126L160.837 27.4985ZM150.743 71.7988L150.685 72.2953L150.685 72.2953L150.743 71.7988ZM170.427 74.1305L170.913 74.0127L170.831 73.6748L170.486 73.6339L170.427 74.1305ZM172.312 81.908L172.798 81.7903L172.798 81.7903L172.312 81.908ZM176.12 82.3644L175.793 81.9865L176.12 82.3644ZM183.797 75.7142L183.856 75.2177L183.637 75.1917L183.47 75.3363L183.797 75.7142ZM199.647 77.5917L199.589 78.0882L199.647 77.5917ZM219.768 27.3367L219.827 26.8401L219.768 27.3367ZM170.864 21.5438L170.805 22.0403L170.864 21.5438ZM146.636 64.2874L161.301 27.6845L160.373 27.3126L145.708 63.9155L146.636 64.2874ZM150.802 71.3023C147.444 70.9044 145.378 67.4269 146.636 64.2874L145.708 63.9155C144.205 67.6659 146.673 71.8201 150.685 72.2953L150.802 71.3023ZM170.486 73.6339L150.802 71.3023L150.685 72.2953L170.369 74.627L170.486 73.6339ZM172.798 81.7903L170.913 74.0127L169.941 74.2482L171.826 82.0257L172.798 81.7903ZM175.793 81.9865C175.191 82.5079 174.464 82.7017 173.878 82.6315C173.297 82.5619 172.909 82.2519 172.798 81.7903L171.826 82.0257C172.06 82.9914 172.874 83.5183 173.759 83.6244C174.64 83.7299 175.644 83.4383 176.448 82.7423L175.793 81.9865ZM183.47 75.3363L175.793 81.9865L176.448 82.7423L184.125 76.0921L183.47 75.3363ZM199.706 77.0952L183.856 75.2177L183.738 76.2107L199.589 78.0882L199.706 77.0952ZM209.21 71.451C207.682 75.2644 203.786 77.5784 199.706 77.0952L199.589 78.0882C204.117 78.6247 208.442 76.056 210.138 71.8229L209.21 71.451ZM223.875 34.8481L209.21 71.451L210.138 71.8229L224.803 35.22L223.875 34.8481ZM219.709 27.8332C223.067 28.231 225.133 31.7086 223.875 34.8481L224.803 35.22C226.306 31.4696 223.839 27.3154 219.827 26.8401L219.709 27.8332ZM170.805 22.0403L219.709 27.8332L219.827 26.8401L170.922 21.0472L170.805 22.0403ZM161.301 27.6845C162.829 23.8711 166.725 21.557 170.805 22.0403L170.922 21.0472C166.394 20.5108 162.069 23.0795 160.373 27.3126L161.301 27.6845Z" fill="#071117"/>
</g>
<mask id="mask2_3345_43633" style="mask-type:alpha" maskUnits="userSpaceOnUse" x="58" y="53" width="111" height="134">
<path d="M81.6425 180.091L59.6928 119.463C57.0149 112.066 59.6354 103.792 66.0835 99.2859L123.843 58.9198C126.192 57.2784 128.878 56.1828 131.705 55.7132L141.811 54.0342C142.247 53.9618 142.672 54.2105 142.822 54.6256L166.797 120.847C169.148 127.342 166.936 134.611 161.364 138.695L132.391 159.933L139.778 172.124C140.133 172.71 139.742 173.464 139.058 173.511L130.293 174.118C128.323 174.254 126.363 173.75 124.703 172.681L119.54 169.354L97.5033 185.508C97.3637 185.61 97.1979 185.671 97.0252 185.683L90.8813 186.107C86.804 186.39 83.0337 183.934 81.6425 180.091Z" fill="#8C62F2" stroke="#071117"/>
</mask>
<g mask="url(#mask2_3345_43633)">
<path d="M81.6419 180.091L59.3959 118.644C56.718 111.247 59.3385 102.974 65.7866 98.4675L123.087 58.4224C125.729 56.5758 128.793 55.4234 131.998 55.071L141.847 53.988C142.267 53.9418 142.664 54.1891 142.807 54.5863L166.796 120.847C169.148 127.342 166.935 134.611 161.364 138.695L132.391 159.933L139.777 172.124C140.132 172.71 139.741 173.464 139.057 173.511L130.292 174.118C128.323 174.254 126.362 173.75 124.702 172.681L119.539 169.354L97.5027 185.508C97.3631 185.61 97.1973 185.671 97.0247 185.683L90.8808 186.107C86.8035 186.39 83.0332 183.934 81.6419 180.091Z" fill="#4394CD"/>
<path d="M100.132 104.415L50.4118 108.993L65.1621 195.762L152.82 183.467L100.132 104.415Z" fill="#306287"/>
<path d="M150.241 168.664L117.143 171.852L88.5535 195.163L59.6484 152.398L103.604 148.519L150.241 168.664Z" fill="#071117"/>
<path d="M117.101 167.783L124.703 172.681C126.363 173.75 128.323 174.254 130.293 174.118L139.058 173.511C139.742 173.464 140.133 172.71 139.778 172.124L130.881 157.44L117.101 167.783ZM142.822 54.6256L166.797 120.847C169.148 127.342 166.936 134.611 161.364 138.695L97.5033 185.508C97.3637 185.61 97.1979 185.671 97.0252 185.683L90.8813 186.107C86.804 186.39 83.0337 183.934 81.6425 180.091L59.6928 119.463C57.0149 112.066 59.6354 103.792 66.0835 99.2859L123.843 58.9198C126.192 57.2784 128.878 56.1828 131.705 55.7132L141.811 54.0342C142.247 53.9618 142.672 54.2105 142.822 54.6256Z" stroke="#071117"/>
</g>
<mask id="mask3_3345_43633" style="mask-type:alpha" maskUnits="userSpaceOnUse" x="65" y="53" width="110" height="134">
<path fill-rule="evenodd" clip-rule="evenodd" d="M66.4981 119.44L88.287 179.625C90.3377 185.289 97.2062 187.463 102.142 184.009L128.505 165.563L139.192 172.948C141.153 174.304 143.912 172.379 144.299 169.386L146.412 153.035L167.641 138.181C173.405 134.148 175.746 126.749 173.352 120.133L151.563 59.9485C149.512 54.2841 142.643 52.1107 137.708 55.5643L72.2091 101.392C66.4445 105.426 64.1031 112.825 66.4981 119.44Z" fill="#C39CFF"/>
<path d="M102.142 184.009L101.855 183.6L102.142 184.009ZM128.505 165.563L128.789 165.152L128.503 164.954L128.219 165.154L128.505 165.563ZM139.192 172.948L139.476 172.537L139.476 172.537L139.192 172.948ZM144.299 169.386L144.795 169.45L144.795 169.45L144.299 169.386ZM146.412 153.035L146.125 152.625L145.944 152.751L145.916 152.97L146.412 153.035ZM167.641 138.181L167.354 137.772L167.641 138.181ZM173.352 120.133L172.881 120.303L173.352 120.133ZM151.563 59.9485L152.033 59.7783L151.563 59.9485ZM137.708 55.5643L137.994 55.974L137.994 55.974L137.708 55.5643ZM72.2091 101.392L71.9224 100.983L72.2091 101.392ZM88.7571 179.455L66.9682 119.27L66.028 119.611L87.8168 179.795L88.7571 179.455ZM101.855 183.6C97.1891 186.865 90.6958 184.81 88.7571 179.455L87.8168 179.795C89.9795 185.769 97.2232 188.061 102.429 184.419L101.855 183.6ZM128.219 165.154L101.855 183.6L102.429 184.419L128.792 165.973L128.219 165.154ZM139.476 172.537L128.789 165.152L128.221 165.975L138.908 173.36L139.476 172.537ZM143.803 169.322C143.627 170.686 142.911 171.787 142.05 172.388C141.192 172.986 140.244 173.067 139.476 172.537L138.908 173.36C140.102 174.185 141.513 173.981 142.622 173.208C143.727 172.437 144.584 171.079 144.795 169.45L143.803 169.322ZM145.916 152.97L143.803 169.322L144.795 169.45L146.908 153.099L145.916 152.97ZM167.354 137.772L146.125 152.625L146.699 153.444L167.927 138.591L167.354 137.772ZM172.881 120.303C175.199 126.706 172.933 133.868 167.354 137.772L167.927 138.591C173.877 134.428 176.294 126.791 173.822 119.963L172.881 120.303ZM151.093 60.1187L172.881 120.303L173.822 119.963L152.033 59.7783L151.093 60.1187ZM137.994 55.974C142.66 52.709 149.154 54.7637 151.093 60.1187L152.033 59.7783C149.87 53.8045 142.626 51.5124 137.421 55.1546L137.994 55.974ZM72.4957 101.802L137.994 55.974L137.421 55.1546L71.9224 100.983L72.4957 101.802ZM66.9682 119.27C64.6502 112.867 66.9164 105.706 72.4957 101.802L71.9224 100.983C65.9727 105.146 63.5561 112.783 66.028 119.611L66.9682 119.27Z" fill="#071117"/>
</mask>
<g mask="url(#mask3_3345_43633)">
<path fill-rule="evenodd" clip-rule="evenodd" d="M66.4981 119.44L88.287 179.625C90.3377 185.289 97.2062 187.463 102.142 184.009L128.505 165.563L139.192 172.948C141.153 174.304 143.912 172.379 144.299 169.386L146.412 153.035L167.641 138.181C173.405 134.148 175.746 126.749 173.352 120.133L151.563 59.9485C149.512 54.2841 142.643 52.1107 137.708 55.5643L72.2091 101.392C66.4445 105.426 64.1031 112.825 66.4981 119.44Z" fill="#AAD3F1"/>
<path d="M115.487 122.182C125.488 112.054 127.271 106.433 125.424 101.331C123.577 96.2291 119.674 95.3625 114.615 98.8924C109.677 102.337 107.107 107.894 109.348 115.348L98.5581 122.875C94.6547 109.141 100.394 96.7328 111.733 88.8224C123.741 80.4443 133.13 82.1231 137.001 92.8161C140.164 101.552 137.453 111.147 127.826 122.941L130.179 129.441L120.548 136.16L115.487 122.182ZM126.451 154.365L122.453 143.322L133.121 135.88L137.119 146.922L126.451 154.365Z" fill="#3B7CA8"/>
<path opacity="0.35" d="M226.763 140.96L67.0346 107.603C55.1427 81.915 113.906 49.1309 144.775 35.9498L226.763 140.96Z" fill="white"/>
<path d="M102.142 184.009L101.855 183.6L102.142 184.009ZM128.505 165.563L128.789 165.152L128.503 164.954L128.219 165.154L128.505 165.563ZM139.192 172.948L139.476 172.537L139.476 172.537L139.192 172.948ZM144.299 169.386L144.795 169.45L144.795 169.45L144.299 169.386ZM146.412 153.035L146.125 152.625L145.944 152.751L145.916 152.97L146.412 153.035ZM167.641 138.181L167.354 137.772L167.641 138.181ZM173.352 120.133L172.881 120.303L173.352 120.133ZM151.563 59.9485L152.033 59.7783L151.563 59.9485ZM137.708 55.5643L137.994 55.974L137.994 55.974L137.708 55.5643ZM72.2091 101.392L71.9224 100.983L72.2091 101.392ZM88.7571 179.455L66.9682 119.27L66.028 119.611L87.8168 179.795L88.7571 179.455ZM101.855 183.6C97.1891 186.865 90.6958 184.81 88.7571 179.455L87.8168 179.795C89.9795 185.769 97.2232 188.061 102.429 184.419L101.855 183.6ZM128.219 165.154L101.855 183.6L102.429 184.419L128.792 165.973L128.219 165.154ZM139.476 172.537L128.789 165.152L128.221 165.975L138.908 173.36L139.476 172.537ZM143.803 169.322C143.627 170.686 142.911 171.787 142.05 172.388C141.192 172.986 140.244 173.067 139.476 172.537L138.908 173.36C140.102 174.185 141.513 173.981 142.622 173.208C143.727 172.437 144.584 171.079 144.795 169.45L143.803 169.322ZM145.916 152.97L143.803 169.322L144.795 169.45L146.908 153.099L145.916 152.97ZM167.354 137.772L146.125 152.625L146.699 153.444L167.927 138.591L167.354 137.772ZM172.881 120.303C175.199 126.706 172.933 133.868 167.354 137.772L167.927 138.591C173.877 134.428 176.294 126.791 173.822 119.963L172.881 120.303ZM151.093 60.1187L172.881 120.303L173.822 119.963L152.033 59.7783L151.093 60.1187ZM137.994 55.974C142.66 52.709 149.154 54.7637 151.093 60.1187L152.033 59.7783C149.87 53.8045 142.626 51.5124 137.421 55.1546L137.994 55.974ZM72.4957 101.802L137.994 55.974L137.421 55.1546L71.9224 100.983L72.4957 101.802ZM66.9682 119.27C64.6502 112.867 66.9164 105.706 72.4957 101.802L71.9224 100.983C65.9727 105.146 63.5561 112.783 66.028 119.611L66.9682 119.27Z" fill="#071117"/>
</g>
<mask id="mask4_3345_43633" style="mask-type:alpha" maskUnits="userSpaceOnUse" x="172" y="81" width="138" height="164">
<path d="M230.423 224.9C229.674 224.54 228.94 224.182 228.231 223.831L218.009 242.5C217.882 242.731 217.926 242.912 217.987 243.018C218.058 243.14 218.233 243.303 218.542 243.311L218.55 243.311L218.559 243.311L228.384 244.045C230.787 244.104 233.15 243.389 235.119 242.004L244.248 232.059L230.423 224.9ZM227.796 222.506L227.83 222.445L228.156 222.613L230.633 223.896C232.291 224.694 234.033 225.509 235.779 226.31C241.571 228.963 247.37 231.425 250.261 232.473C250.298 232.487 250.334 232.494 250.378 232.496L261.952 232.961C261.953 232.961 261.955 232.961 261.956 232.961C283.374 233.362 299.066 220.357 305.901 198.536C317.884 160.28 296.521 117.226 260.477 94.3588C248.381 86.6847 235.838 82.5664 224.428 81.8641L207.955 81.6039C207.908 81.6031 207.866 81.6104 207.826 81.6254L207.63 81.0999L207.826 81.6254C201.476 84.0261 194.605 88.8543 188.73 94.9681C182.854 101.084 178.007 108.455 175.67 115.915C165 149.981 185.389 196.181 221.423 219.042C222.886 219.97 225.147 221.182 227.796 222.506Z" fill="#D9D9D9" stroke="#071117"/>
</mask>
<g mask="url(#mask4_3345_43633)">
<path d="M175.248 115.647C164.472 150.051 185.078 196.556 221.274 219.519C226.957 223.124 244.386 230.887 250.204 232.996C250.284 233.025 250.36 233.039 250.44 233.042L262.022 233.508C283.605 233.914 299.434 220.8 306.323 198.804C318.415 160.2 296.822 116.845 260.626 93.8816C248.463 86.1646 235.847 82.0222 224.366 81.317L207.884 81.0567C207.795 81.0553 207.711 81.0694 207.63 81.0999C194.817 85.9438 179.978 100.545 175.248 115.647Z" fill="#73B9EB"/>
<path d="M218.609 243.858L228.442 244.592C230.937 244.655 233.384 243.91 235.421 242.468L245.087 231.937L228.044 223.112L217.623 242.145C217.207 242.905 217.743 243.836 218.609 243.858Z" fill="#73B9EB"/>
<path d="M317.045 263.424L205.683 252.752L241.007 128.938L326.875 134.507L317.045 263.424Z" fill="#3B7CA8"/>
<path d="M302.393 242.119L215.114 235.531L247.885 200.836L321.744 206.102L302.393 242.119Z" fill="#071117"/>
<path d="M230.423 224.9C229.674 224.54 228.94 224.182 228.231 223.831L218.009 242.5C217.882 242.731 217.926 242.912 217.987 243.018C218.058 243.14 218.233 243.303 218.542 243.311L218.55 243.311L218.559 243.311L228.384 244.045C230.787 244.104 233.15 243.389 235.119 242.004L244.248 232.059L230.423 224.9ZM227.796 222.506L227.83 222.445L228.156 222.613L230.633 223.896C232.291 224.694 234.033 225.509 235.779 226.31C241.571 228.963 247.37 231.425 250.261 232.473C250.298 232.487 250.334 232.494 250.378 232.496L261.952 232.961C261.953 232.961 261.955 232.961 261.956 232.961C283.374 233.362 299.066 220.357 305.901 198.536C317.884 160.28 296.521 117.226 260.477 94.3588C248.381 86.6847 235.838 82.5664 224.428 81.8641L207.955 81.6039C207.908 81.6031 207.866 81.6104 207.826 81.6254L207.63 81.0999L207.826 81.6254C201.476 84.0261 194.605 88.8543 188.73 94.9681C182.854 101.084 178.007 108.455 175.67 115.915C165 149.981 185.389 196.181 221.423 219.042C222.886 219.97 225.147 221.182 227.796 222.506Z" stroke="#071117"/>
</g>
<mask id="mask5_3345_43633" style="mask-type:alpha" maskUnits="userSpaceOnUse" x="160" y="80" width="140" height="164">
<path fill-rule="evenodd" clip-rule="evenodd" d="M203.61 214.63C171.616 190.895 153.216 151.59 164.514 115.517C176.606 76.9143 213.368 71.8389 249.564 94.8019C285.759 117.765 307.681 160.071 295.59 198.674C285.853 229.758 260.121 239.103 231.569 229.576L220.163 242.174C218.141 244.408 214.191 242.836 212.851 239.264L203.61 214.63Z" fill="#D9D9D9"/>
<path d="M203.61 214.63L203.908 214.228L204.027 214.316L204.078 214.454L203.61 214.63ZM231.569 229.576L231.198 229.24L231.417 228.998L231.727 229.102L231.569 229.576ZM220.163 242.174L219.792 241.839L220.163 242.174ZM212.851 239.264L212.383 239.44L212.851 239.264ZM164.991 115.667C153.775 151.478 172.03 190.579 203.908 214.228L203.312 215.031C171.202 191.21 152.656 151.702 164.037 115.368L164.991 115.667ZM249.296 95.2242C231.267 83.7863 213.161 79.3734 198.104 82.5615C183.078 85.7429 170.991 96.513 164.991 115.667L164.037 115.368C170.129 95.9187 182.469 84.8495 197.896 81.5832C213.292 78.3236 231.665 82.8545 249.832 94.3797L249.296 95.2242ZM295.112 198.525C307.116 160.201 285.363 118.106 249.296 95.2242L249.832 94.3797C286.155 117.424 308.246 159.941 296.067 198.823L295.112 198.525ZM231.727 229.102C245.917 233.837 259.354 233.865 270.431 228.898C281.497 223.935 290.279 213.955 295.112 198.525L296.067 198.823C291.164 214.477 282.211 224.711 270.84 229.81C259.478 234.905 245.772 234.843 231.41 230.05L231.727 229.102ZM219.792 241.839L231.198 229.24L231.939 229.912L220.533 242.51L219.792 241.839ZM213.319 239.089C213.942 240.75 215.166 241.926 216.436 242.432C217.701 242.935 218.955 242.763 219.792 241.839L220.533 242.51C219.348 243.819 217.616 243.978 216.066 243.361C214.521 242.746 213.1 241.35 212.383 239.44L213.319 239.089ZM204.078 214.454L213.319 239.089L212.383 239.44L203.142 214.806L204.078 214.454Z" fill="#071117"/>
</mask>
<g mask="url(#mask5_3345_43633)">
<path fill-rule="evenodd" clip-rule="evenodd" d="M203.61 214.63C171.616 190.895 153.216 151.59 164.514 115.517C176.606 76.9143 213.368 71.8389 249.564 94.8019C285.759 117.765 307.681 160.071 295.59 198.674C285.853 229.758 260.121 239.103 231.569 229.576L220.163 242.174C218.141 244.408 214.191 242.836 212.851 239.264L203.61 214.63Z" fill="#E9F5FE"/>
<path d="M189.09 160.03L194.538 142.639L208.498 151.496L203.051 168.887L189.09 160.03ZM214.498 176.149L219.946 158.758L233.907 167.615L228.459 185.007L214.498 176.149ZM239.907 192.269L245.354 174.878L259.315 183.735L253.868 201.126L239.907 192.269Z" fill="#3B7CA8"/>
<path d="M203.61 214.63L203.908 214.228L204.027 214.316L204.078 214.454L203.61 214.63ZM231.569 229.576L231.198 229.24L231.417 228.998L231.727 229.102L231.569 229.576ZM220.163 242.174L219.792 241.839L220.163 242.174ZM212.851 239.264L212.383 239.44L212.851 239.264ZM164.991 115.667C153.775 151.478 172.03 190.579 203.908 214.228L203.312 215.031C171.202 191.21 152.656 151.702 164.037 115.368L164.991 115.667ZM249.296 95.2242C231.267 83.7863 213.161 79.3734 198.104 82.5615C183.078 85.7429 170.991 96.513 164.991 115.667L164.037 115.368C170.129 95.9187 182.469 84.8495 197.896 81.5832C213.292 78.3236 231.665 82.8545 249.832 94.3797L249.296 95.2242ZM295.112 198.525C307.116 160.201 285.363 118.106 249.296 95.2242L249.832 94.3797C286.155 117.424 308.246 159.941 296.067 198.823L295.112 198.525ZM231.727 229.102C245.917 233.837 259.354 233.865 270.431 228.898C281.497 223.935 290.279 213.955 295.112 198.525L296.067 198.823C291.164 214.477 282.211 224.711 270.84 229.81C259.478 234.905 245.772 234.843 231.41 230.05L231.727 229.102ZM219.792 241.839L231.198 229.24L231.939 229.912L220.533 242.51L219.792 241.839ZM213.319 239.089C213.942 240.75 215.166 241.926 216.436 242.432C217.701 242.935 218.955 242.763 219.792 241.839L220.533 242.51C219.348 243.819 217.616 243.978 216.066 243.361C214.521 242.746 213.1 241.35 212.383 239.44L213.319 239.089ZM204.078 214.454L213.319 239.089L212.383 239.44L203.142 214.806L204.078 214.454Z" fill="#071117"/>
</g>
<path opacity="0.4" d="M166.556 94.2117L107.317 224.087L177.306 283.292L347.13 235.639L166.556 94.2117Z" fill="url(#paint0_linear_3345_43633)"/>
<mask id="mask6_3345_43633" style="mask-type:alpha" maskUnits="userSpaceOnUse" x="47" y="216" width="135" height="99">
<path d="M48.3895 288.154L49.9198 301.729C50.0375 302.774 50.8429 303.609 51.8826 303.764L119.989 313.942C120.839 314.069 121.691 313.715 122.201 313.023L179.636 234.973C181.694 232.176 180.064 228.192 176.636 227.64L112.209 217.274C111.815 217.21 111.411 217.249 111.037 217.387L85.172 226.928C80.158 228.777 75.9361 232.301 73.2195 236.903L51.4647 273.76C48.9047 278.097 47.8253 283.149 48.3895 288.154Z" fill="#D9D9D9" stroke="#071117"/>
</mask>
<g mask="url(#mask6_3345_43633)">
<path d="M48.3895 288.154L49.9198 301.729C50.0375 302.774 50.8429 303.609 51.8826 303.764L119.989 313.942C120.839 314.069 121.691 313.715 122.201 313.023L179.636 234.973C181.694 232.176 180.064 228.192 176.636 227.64L112.209 217.274C111.815 217.21 111.411 217.249 111.037 217.387L85.172 226.928C80.158 228.777 75.9361 232.301 73.2195 236.903L51.4647 273.76C48.9047 278.097 47.8253 283.149 48.3895 288.154Z" fill="#53ACEC"/>
<path d="M57.9426 227.897L158.927 243.366L138.892 293.493L41.3663 277.634L57.9426 227.897Z" fill="#4394CD"/>
<path d="M130.352 321.309L129.149 289.922L43.6722 277.374L43.4626 306.586L130.352 321.309Z" fill="#3B7CA8"/>
<circle cx="5.69853" cy="5.69853" r="5.19853" transform="matrix(0.991189 0.132457 0.128595 0.991697 99.5586 293.897)" fill="#83BFE9" stroke="#071117"/>
<circle cx="5.69853" cy="5.69853" r="5.19853" transform="matrix(0.991189 0.132457 0.128595 0.991697 84.0781 291.8)" fill="#E9F5FE" stroke="#071117"/>
<circle cx="5.69853" cy="5.69853" r="5.19853" transform="matrix(0.991189 0.132457 0.128595 0.991697 68.9492 289.471)" fill="#83BFE9" stroke="#071117"/>
<circle cx="5.69853" cy="5.69853" r="5.19853" transform="matrix(0.991189 0.132457 0.128595 0.991697 53.6289 287.166)" fill="#4394CD" stroke="#071117"/>
<path d="M48.3895 288.154L49.9198 301.729C50.0375 302.774 50.8429 303.609 51.8826 303.764L119.989 313.942C120.839 314.069 121.691 313.715 122.201 313.023L179.636 234.973C181.694 232.176 180.064 228.192 176.636 227.64L112.209 217.274C111.815 217.21 111.411 217.249 111.037 217.387L85.172 226.928C80.158 228.777 75.9361 232.301 73.2195 236.903L51.4647 273.76C48.9047 278.097 47.8253 283.149 48.3895 288.154Z" stroke="#071117"/>
<mask id="mask7_3345_43633" style="mask-type:alpha" maskUnits="userSpaceOnUse" x="66" y="239" width="64" height="41">
<path d="M118.872 271.91L128.358 256.207C130.909 251.984 128.379 246.521 123.508 245.735L91.8338 240.628C86.2289 239.724 80.6367 242.314 77.701 247.173L68.2144 262.876C65.6632 267.1 68.1935 272.563 73.0644 273.348L104.739 278.456C110.344 279.36 115.936 276.77 118.872 271.91Z" fill="#DFC3FF" stroke="#071117"/>
</mask>
<g mask="url(#mask7_3345_43633)">
<path d="M118.872 271.91L128.358 256.207C130.909 251.984 128.379 246.521 123.508 245.735L91.8338 240.628C86.2289 239.724 80.6367 242.314 77.701 247.173L68.2144 262.876C65.6632 267.1 68.1935 272.563 73.0644 273.348L104.739 278.456C110.344 279.36 115.936 276.77 118.872 271.91Z" fill="#83BFE9"/>
<path d="M118.872 271.91L128.358 256.207C130.909 251.984 128.379 246.521 123.508 245.735L91.8338 240.628C86.2289 239.724 80.6367 242.314 77.701 247.173L68.2144 262.876C65.6632 267.1 68.1935 272.563 73.0644 273.348L104.739 278.456C110.344 279.36 115.936 276.77 118.872 271.91Z" stroke="#071117"/>
</g>
</g>
<mask id="mask8_3345_43633" style="mask-type:alpha" maskUnits="userSpaceOnUse" x="116" y="227" width="72" height="87">
<path d="M121.9 313.264L183.916 288.203C185.848 287.422 187.022 285.45 186.789 283.38L180.768 229.968C180.596 228.443 179.016 227.502 177.593 228.077L153.659 237.749C148.93 239.66 144.963 243.076 142.37 247.468L120.413 284.668C117.853 289.005 116.773 294.058 117.337 299.062L118.725 311.372C118.897 312.898 120.477 313.839 121.9 313.264Z" fill="#306287" stroke="#071117"/>
</mask>
<g mask="url(#mask8_3345_43633)">
<path d="M121.9 313.264L183.916 288.203C185.848 287.422 187.022 285.45 186.789 283.38L180.768 229.968C180.596 228.443 179.016 227.502 177.593 228.077L153.659 237.749C148.93 239.66 144.963 243.076 142.37 247.468L120.413 284.668C117.853 289.005 116.773 294.058 117.337 299.062L118.725 311.372C118.897 312.898 120.477 313.839 121.9 313.264Z" fill="#306287"/>
<path d="M179.81 279.477L177.713 268.706C177.452 267.368 176.035 266.601 174.772 267.115L161.757 272.417C160.32 273.002 159.498 274.521 159.795 276.044L161.893 286.815C162.153 288.153 163.571 288.92 164.833 288.406L177.849 283.104C179.285 282.519 180.107 281 179.81 279.477Z" fill="#3B7CA8" stroke="#071117"/>
<path d="M158.452 305.373L118.496 288.732C104.688 293.311 112.216 311.579 117.706 320.141L158.452 305.373Z" fill="#071117"/>
<path d="M121.9 313.264L183.916 288.203C185.848 287.422 187.022 285.45 186.789 283.38L180.768 229.968C180.596 228.443 179.016 227.502 177.593 228.077L153.659 237.749C148.93 239.66 144.963 243.076 142.37 247.468L120.413 284.668C117.853 289.005 116.773 294.058 117.337 299.062L118.725 311.372C118.897 312.898 120.477 313.839 121.9 313.264Z" stroke="#071117"/>
</g>
<mask id="mask9_3345_43633" style="mask-type:alpha" maskUnits="userSpaceOnUse" x="105" y="196" width="42" height="38">
<path d="M128.026 233.236L144.806 226.736C145.789 226.355 146.392 225.36 146.273 224.312L144.283 206.659C143.812 202.481 140.591 199.141 136.432 198.519L129.036 197.414C126.826 197.084 124.568 197.29 122.455 198.016L107.2 203.257C106.171 203.611 105.526 204.631 105.648 205.712L108.214 228.474C108.387 230.006 109.978 230.947 111.403 230.36L124.179 225.1L124.882 231.332C125.052 232.844 126.607 233.786 128.026 233.236Z" fill="#A774F4" stroke="#071117"/>
</mask>
<g mask="url(#mask9_3345_43633)">
<path d="M128.026 233.236L144.806 226.736C145.789 226.355 146.392 225.36 146.273 224.312L144.283 206.659C143.812 202.481 140.591 199.141 136.432 198.519L129.036 197.414C126.826 197.084 124.568 197.29 122.455 198.016L107.2 203.257C106.171 203.611 105.526 204.631 105.648 205.712L108.214 228.474C108.387 230.006 109.978 230.947 111.403 230.36L124.179 225.1L124.882 231.332C125.052 232.844 126.607 233.786 128.026 233.236Z" fill="#306287"/>
<path d="M120.037 226.453L111.613 230.145L109.748 212.096L117.88 212.179L120.037 226.453Z" fill="#071117"/>
<path d="M114.421 211.023L148.097 199.054L127.589 193.193L99.2863 201.053L114.421 211.023Z" fill="#53ACEC"/>
<path d="M128.026 233.236L144.806 226.736C145.789 226.355 146.392 225.36 146.273 224.312L144.283 206.659C143.812 202.481 140.591 199.141 136.432 198.519L129.036 197.414C126.826 197.084 124.568 197.29 122.455 198.016L107.2 203.257C106.171 203.611 105.526 204.631 105.648 205.712L108.214 228.474C108.387 230.006 109.978 230.947 111.403 230.36L124.179 225.1L124.882 231.332C125.052 232.844 126.607 233.786 128.026 233.236Z" stroke="#071117"/>
</g>
<path d="M126.341 213.221L128.332 230.876C128.504 232.408 127.163 233.68 125.642 233.425L122.072 232.827C121.051 232.655 120.266 231.827 120.15 230.798L118.529 216.417C118.297 214.358 116.728 212.702 114.684 212.36L112.841 212.051C111.32 211.796 109.979 213.067 110.151 214.599L111.671 228.084C111.844 229.616 110.503 230.888 108.982 230.633L105.412 230.034C104.39 229.863 103.606 229.035 103.49 228.006L101.601 211.246C101.083 206.651 105.107 202.837 109.668 203.601L118.652 205.107C122.739 205.792 125.877 209.103 126.341 213.221Z" fill="#3B7CA8" stroke="#071117"/>
<path d="M163.432 275.914L175.51 270.933" stroke="#071117" stroke-linecap="round"/>
<path d="M164.178 280.312L176.256 275.331" stroke="#071117" stroke-linecap="round"/>
<path d="M164.924 284.71L177.002 279.729" stroke="#071117" stroke-linecap="round"/>
<path fill-rule="evenodd" clip-rule="evenodd" d="M115.809 262.313C111.418 266.668 103.652 270.242 96.7312 269.583C88.7687 268.821 83.3707 262.765 86.095 257.444C88.8328 252.145 99.1553 248.93 108.612 249.827C115.277 250.465 119.431 252.948 119.163 256.562C118.814 255.737 117.807 255.337 116.386 255.234C114.335 255.085 112.074 255.604 110.67 257.304C109.859 257.036 108.982 257.114 108.325 257.255C108.624 255.38 107.133 254.655 104.826 254.488C102.465 254.317 99.9938 254.784 98.4006 256.672L96.3083 256.59C95.5892 256.562 94.7944 256.788 94.1229 257.213L92.6015 258.174C92.246 258.398 92.1141 258.759 92.3069 258.98C92.4997 259.201 92.9441 259.198 93.2996 258.973L94.821 258.012C95.1262 257.82 95.4875 257.717 95.8144 257.729L97.6484 257.801C97.6164 257.863 97.585 257.925 97.5544 257.989C96.1126 260.981 97.2428 263.573 100.079 263.778C102.915 263.984 106.382 261.725 107.824 258.734C107.873 258.633 107.918 258.534 107.96 258.437C108.393 258.304 109.234 258.133 109.952 258.44C108.743 260.996 109.718 263.202 112.144 263.378C113.325 263.463 114.633 263.052 115.809 262.313ZM117.448 258.94C116.385 261.146 114.104 262.344 112.692 262.241C111.279 262.139 110.268 260.702 111.331 258.496C111.798 257.527 112.458 257.031 113.113 256.75C113.845 256.435 114.797 256.295 115.839 256.37C116.878 256.446 117.418 256.693 117.654 257.008C117.877 257.305 117.972 257.854 117.448 258.94ZM100.626 262.642C102.435 262.773 105.201 261.259 106.466 258.635C107.082 257.356 106.944 256.727 106.641 256.378C106.303 255.989 105.565 255.718 104.278 255.624C102.995 255.531 101.875 255.667 101.017 256.019C100.259 256.33 99.4855 256.899 98.9126 258.087C97.6481 260.711 98.8172 262.511 100.626 262.642ZM102.32 259.631C102.978 259.74 103.792 259.368 104.139 258.799C104.486 258.23 104.235 257.681 103.578 257.572C102.92 257.463 102.106 257.836 101.759 258.405C101.412 258.973 101.663 259.523 102.32 259.631ZM116.086 259.265C115.739 259.834 114.925 260.207 114.267 260.098C113.61 259.989 113.359 259.44 113.706 258.871C114.053 258.303 114.867 257.93 115.525 258.039C116.182 258.147 116.433 258.697 116.086 259.265Z" fill="#F7FBFF"/>
<mask id="mask10_3345_43633" style="mask-type:alpha" maskUnits="userSpaceOnUse" x="48" y="128" width="41" height="42">
<path d="M70.8437 132.655L71.3316 132.545L70.8437 132.655L72.2383 138.887L72.3373 139.329L72.7869 139.274L80.7589 138.3C80.7592 138.3 80.7595 138.3 80.7598 138.3C82.242 138.126 83.1256 138.146 84.0216 138.657C84.9596 139.191 85.9682 140.293 87.553 142.5C87.5629 142.514 87.5609 142.536 87.543 142.548L76.8186 149.707L76.4858 149.929L76.6296 150.303L80.2108 159.6C80.6714 160.796 80.2295 162.012 79.3559 162.779C78.4827 163.547 77.254 163.804 76.18 163.168L67.7218 158.157L67.3576 157.941L67.0848 158.265L58.1255 168.888C58.1207 168.894 58.1168 168.896 58.1135 168.897C58.1094 168.899 58.1038 168.9 58.0972 168.9C58.0905 168.9 58.0849 168.898 58.0807 168.896C58.0772 168.894 58.0732 168.891 58.0689 168.885C56.5423 166.697 55.731 165.343 55.3785 164.19C55.0384 163.079 55.1165 162.122 55.4968 160.689L55.4971 160.688L57.6293 152.6L57.7517 152.136L57.2927 151.995L50.6089 149.941C50.6026 149.939 50.5942 149.933 50.5897 149.926C49.7492 148.617 49.1711 147.479 48.8584 146.504C48.5454 145.528 48.5109 144.754 48.7035 144.142C49.076 142.959 50.4262 142.068 53.4063 141.677L53.408 141.676L60.4631 140.725L60.7945 140.68L60.8797 140.357L62.9758 132.401C63.5438 130.325 64.7307 129.258 66.0333 129.181C67.3698 129.103 69.1183 130.041 70.8389 132.644C70.8409 132.647 70.843 132.652 70.8437 132.655Z" fill="#D9D9D9" stroke="black"/>
</mask>
<g mask="url(#mask10_3345_43633)">
<path d="M70.8437 132.655L71.3316 132.545L70.8437 132.655L72.2383 138.887L72.3373 139.329L72.7869 139.274L80.7589 138.3C80.7592 138.3 80.7595 138.3 80.7598 138.3C82.242 138.126 83.1256 138.146 84.0216 138.657C84.9596 139.191 85.9682 140.293 87.553 142.5C87.5629 142.514 87.5609 142.536 87.543 142.548L76.8186 149.707L76.4858 149.929L76.6296 150.303L80.2108 159.6C80.6714 160.796 80.2295 162.012 79.3559 162.779C78.4827 163.547 77.254 163.804 76.18 163.168L67.7218 158.157L67.3576 157.941L67.0848 158.265L58.1255 168.888C58.1207 168.894 58.1168 168.896 58.1135 168.897C58.1094 168.899 58.1038 168.9 58.0972 168.9C58.0905 168.9 58.0849 168.898 58.0807 168.896C58.0772 168.894 58.0732 168.891 58.0689 168.885C56.5423 166.697 55.731 165.343 55.3785 164.19C55.0384 163.079 55.1165 162.122 55.4968 160.689L55.4971 160.688L57.6293 152.6L57.7517 152.136L57.2927 151.995L50.6089 149.941C50.6026 149.939 50.5942 149.933 50.5897 149.926C49.7492 148.617 49.1711 147.479 48.8584 146.504C48.5454 145.528 48.5109 144.754 48.7035 144.142C49.076 142.959 50.4262 142.068 53.4063 141.677L53.408 141.676L60.4631 140.725L60.7945 140.68L60.8797 140.357L62.9758 132.401C63.5438 130.325 64.7307 129.258 66.0333 129.181C67.3698 129.103 69.1183 130.041 70.8389 132.644C70.8409 132.647 70.843 132.652 70.8437 132.655Z" fill="#3B7CA8" stroke="#071117"/>
<path d="M77.1919 137.402L70.8583 138.176L73.2326 145.781L83.2862 144.633L77.1919 137.402Z" fill="#071117"/>
<path d="M53.4549 147.891L49.1265 140.308L46.1577 145.062L50.0389 152.245L53.4549 147.891Z" fill="#071117"/>
<path d="M60.5609 156.511L55.9947 153.872L55.1456 156.98L58.792 162.985L60.5609 156.511Z" fill="#071117"/>
<path d="M68.3878 134.996L63.7056 128.708L58.1926 136.663L64.874 146.837L68.3878 134.996Z" fill="#071117"/>
</g>
<mask id="mask11_3345_43633" style="mask-type:alpha" maskUnits="userSpaceOnUse" x="50" y="131" width="39" height="40">
<path d="M75.0376 143.086L75.1655 143.418L75.5263 143.375L85.6307 142.185C88.2488 141.877 89.4972 145.118 87.4526 146.915L79.5615 153.852L79.2797 154.099L79.4076 154.431L82.9888 163.729C83.9166 166.138 81.1657 168.556 78.9741 167.258L70.516 162.247L70.214 162.068L69.9322 162.316L62.0411 169.252C59.9965 171.049 57.0478 169.302 57.738 166.703L60.4017 156.67L60.4968 156.311L60.1948 156.132L51.7366 151.122C49.5451 149.823 50.4737 146.326 53.0918 146.017L63.1962 144.827L63.557 144.785L63.6521 144.427L66.3159 134.393C67.006 131.794 70.5286 131.379 71.4565 133.788L75.0376 143.086Z" fill="#D9D9D9" stroke="black"/>
</mask>
<g mask="url(#mask11_3345_43633)">
<path d="M65.8363 134.295C66.6532 131.217 70.8231 130.726 71.9214 133.578L75.5026 142.876L85.607 141.686C88.7061 141.321 90.184 145.157 87.7637 147.285L79.8725 154.221L83.4537 163.519C84.5521 166.371 81.2956 169.233 78.7014 167.696L70.2433 162.685L62.3521 169.622C59.9319 171.749 56.4414 169.681 57.2584 166.604L59.9221 156.571L51.4639 151.56C48.8698 150.023 49.969 145.883 53.0681 145.518L63.1725 144.328L65.8363 134.295Z" fill="#E9F5FE"/>
<path opacity="0.6" d="M92.499 179.152L56.3095 136.426L89.8428 121.657L92.499 179.152Z" fill="white"/>
<path d="M75.0376 143.086L75.1655 143.418L75.5263 143.375L85.6307 142.185C88.2488 141.877 89.4972 145.118 87.4526 146.915L79.5615 153.852L79.2797 154.099L79.4076 154.431L82.9888 163.729C83.9166 166.138 81.1657 168.556 78.9741 167.258L70.516 162.247L70.214 162.068L69.9322 162.316L62.0411 169.252C59.9965 171.049 57.0478 169.302 57.738 166.703L60.4017 156.67L60.4968 156.311L60.1948 156.132L51.7366 151.122C49.5451 149.823 50.4737 146.326 53.0918 146.017L63.1962 144.827L63.557 144.785L63.6521 144.427L66.3159 134.393C67.006 131.794 70.5286 131.379 71.4565 133.788L75.0376 143.086Z" stroke="#071117"/>
</g>
<defs>
<linearGradient id="paint0_linear_3345_43633" x1="144.6" y1="258.901" x2="245.077" y2="159.772" gradientUnits="userSpaceOnUse">
<stop stop-color="white"/>
<stop offset="1" stop-color="white" stop-opacity="0"/>
</linearGradient>
</defs>
</svg>
