<svg width="328" height="300" viewBox="0 0 328 300" fill="none" xmlns="http://www.w3.org/2000/svg">
<path d="M249.993 210.203C205.96 210.065 218.66 158.075 176.527 160.651L181.919 152.414C224.051 149.837 211.352 201.827 255.384 201.965L249.993 210.203Z" fill="#FFFEEB" stroke="#163349" stroke-width="2.61752"/>
<path d="M249.994 210.203C205.961 210.065 218.66 158.075 176.528 160.651L179.579 158.236C221.712 155.66 209.012 207.65 253.045 207.788L249.994 210.203Z" fill="#163349"/>
<path d="M206.357 210.732L253.556 191.976L298.5 218.901L294.325 249.27L248.438 269.815L205.116 237.889L206.357 210.732Z" fill="#FFFEEB"/>
<path d="M206.357 210.732L253.556 191.976L298.5 218.901M206.357 210.732L205.116 237.889L248.438 269.815M206.357 210.732L250.77 239.529M298.5 218.901L294.325 249.27L248.438 269.815M298.5 218.901L250.77 239.529M248.438 269.815L250.77 239.529" stroke="#163349" stroke-width="2.61752"/>
<path d="M205.115 237.89L248.437 269.815L250.768 239.529L206.355 210.732L205.115 237.89Z" fill="#163349"/>
<path d="M253.213 211.702L238.604 201.888L244.419 194.235L257.721 188.709L267.274 195.67L268.946 205.449L253.213 211.702Z" fill="#FFF968"/>
<path d="M253.213 211.702L238.604 201.888L244.419 194.235M253.213 211.702L268.946 205.449L267.274 195.67M253.213 211.702L255.174 200.526M267.274 195.67L255.174 200.526M267.274 195.67L257.721 188.709L244.419 194.235M255.174 200.526L244.419 194.235" stroke="#163349" stroke-width="2.61752"/>
<path d="M253.214 211.702L238.606 201.888L244.42 194.235L255.175 200.526L253.214 211.702Z" fill="#163349"/>
<path d="M230.801 220.102L216.192 210.289L222.007 202.636L235.309 197.109L244.862 204.07L246.534 213.85L230.801 220.102Z" fill="#FFF968"/>
<path d="M230.801 220.102L216.192 210.289L222.007 202.636M230.801 220.102L246.534 213.85L244.862 204.07M230.801 220.102L232.762 208.927M244.862 204.07L232.762 208.927M244.862 204.07L235.309 197.109L222.007 202.636M232.762 208.927L222.007 202.636" stroke="#163349" stroke-width="2.61752"/>
<path d="M230.8 220.102L216.192 210.289L222.006 202.636L232.761 208.927L230.8 220.102Z" fill="#163349"/>
<path d="M270.979 223.22L256.37 213.407L262.185 205.754L275.487 200.227L285.039 207.188L286.712 216.968L270.979 223.22Z" fill="#FFF968"/>
<path d="M270.979 223.22L256.37 213.407L262.185 205.754M270.979 223.22L286.712 216.968L285.039 207.188M270.979 223.22L272.939 212.045M285.039 207.188L272.939 212.045M285.039 207.188L275.487 200.227L262.185 205.754M272.939 212.045L262.185 205.754" stroke="#163349" stroke-width="2.61752"/>
<path d="M270.98 223.22L256.371 213.407L262.186 205.754L272.94 212.045L270.98 223.22Z" fill="#163349"/>
<path d="M249.852 232.795L235.243 222.982L241.058 215.329L254.36 209.802L263.912 216.763L265.585 226.543L249.852 232.795Z" fill="#FFF968"/>
<path d="M249.852 232.795L235.243 222.982L241.058 215.329M249.852 232.795L265.585 226.543L263.912 216.763M249.852 232.795L251.812 221.62M263.912 216.763L251.812 221.62M263.912 216.763L254.36 209.802L241.058 215.329M251.812 221.62L241.058 215.329" stroke="#163349" stroke-width="2.61752"/>
<path d="M249.853 232.795L235.244 222.982L241.059 215.329L251.813 221.62L249.853 232.795Z" fill="#163349"/>
<ellipse cx="286.95" cy="238.57" rx="7.99917" ry="13.5371" transform="rotate(12.9843 286.95 238.57)" fill="#163349"/>
<path d="M297.712 243.578C296.915 247.032 295.378 249.906 293.605 251.771C291.808 253.66 289.964 254.34 288.445 253.99C286.926 253.64 285.566 252.22 284.778 249.735C284 247.283 283.877 244.026 284.673 240.571C285.47 237.117 287.007 234.243 288.78 232.378C290.577 230.489 292.421 229.809 293.94 230.159C295.459 230.509 296.819 231.928 297.607 234.413C298.385 236.866 298.508 240.123 297.712 243.578Z" fill="#60D2B3" stroke="#163349" stroke-width="2.61752"/>
<ellipse cx="270.071" cy="246.044" rx="7.99917" ry="13.5371" transform="rotate(12.9843 270.071 246.044)" fill="#163349"/>
<path d="M280.833 251.052C280.036 254.507 278.5 257.381 276.726 259.245C274.929 261.134 273.085 261.815 271.566 261.465C270.047 261.114 268.687 259.695 267.899 257.21C267.121 254.757 266.998 251.5 267.794 248.046C268.591 244.591 270.128 241.717 271.901 239.853C273.698 237.963 275.542 237.283 277.061 237.633C278.58 237.984 279.94 239.403 280.728 241.888C281.506 244.341 281.63 247.598 280.833 251.052Z" fill="#FF5F77" stroke="#163349" stroke-width="2.61752"/>
<path d="M193.821 177.324C137.589 205.447 65.5311 134.08 33.8379 161.988C38.3907 140.818 45.6174 127.479 54.8637 119.531C113.83 57.3839 193.821 139.837 267.044 97.9951C255.23 142.79 213.306 169.546 193.821 177.324Z" fill="#FFFEEB"/>
<path d="M238.74 119.531C226.218 151.404 210.736 168.865 193.821 177.324M238.74 119.531C175.551 154.135 95.6035 84.5111 54.8637 119.531M238.74 119.531L267.044 97.9951M193.821 177.324C137.589 205.447 65.5311 134.08 33.8379 161.988C38.3907 140.818 45.6174 127.479 54.8637 119.531M193.821 177.324C213.306 169.546 255.23 142.79 267.044 97.9951M267.044 97.9951C193.821 139.837 113.83 57.3839 54.8637 119.531" stroke="#163349" stroke-width="2.61752"/>
<path d="M193.821 177.324C210.736 168.865 226.218 151.404 238.74 119.531C184.592 236.442 71.9878 92.4572 33.8379 161.988C65.5311 134.079 137.589 205.446 193.821 177.324Z" fill="#163349"/>
<circle cx="80.2995" cy="196.123" r="22.6888" transform="rotate(18.5841 80.2995 196.123)" fill="#FF5F77" stroke="#163349" stroke-width="2.61752"/>
<path fill-rule="evenodd" clip-rule="evenodd" d="M102.754 204.586C97.5739 211.027 88.7441 213.894 80.4525 211.106C69.8228 207.532 64.103 196.018 67.6771 185.388C69.9581 178.604 75.4738 173.82 81.9295 172.175C71.3017 171.444 61.1051 177.906 57.5513 188.475C53.3275 201.038 60.0872 214.646 72.6496 218.869C84.9375 223.001 98.2258 216.624 102.754 204.586Z" fill="#163349"/>
<path fill-rule="evenodd" clip-rule="evenodd" d="M131.744 177.722L130.073 176.986L129.993 177.288L131.182 177.604L132.372 177.92C132.776 176.399 133.173 174.857 133.561 173.297L133.258 173.222L131.744 177.722ZM143.23 99.0731L140.769 97.8011L140.768 97.7161L141.999 97.7122L143.23 97.7083C143.231 98.1611 143.231 98.616 143.23 99.0731ZM143.162 92.93L141.932 92.9613L140.702 92.9926C140.661 91.3872 140.602 89.8145 140.524 88.2765L141.753 88.2147L142.982 88.1529C143.061 89.712 143.121 91.305 143.162 92.93ZM142.678 83.3911L141.451 83.4873L140.224 83.5835C140.098 81.9834 139.952 80.4279 139.784 78.9196L141.008 78.7838L142.231 78.648C142.401 80.1841 142.55 81.766 142.678 83.3911ZM141.613 73.9016L140.397 74.0846L139.18 74.2676C138.94 72.6759 138.675 71.1498 138.385 69.6927L139.592 69.4522L140.798 69.2117C141.097 70.7099 141.369 72.2745 141.613 73.9016ZM139.727 64.552L138.537 64.8663L137.347 65.1807C136.933 63.6126 136.485 62.1557 136.006 60.8147L137.165 60.4005L138.323 59.9864C138.829 61.4009 139.297 62.925 139.727 64.552ZM136.457 55.6003L135.36 56.1592L134.264 56.7181C133.536 55.2902 132.773 54.1078 131.989 53.1609L132.937 52.376L133.885 51.5912C134.807 52.705 135.665 54.0469 136.457 55.6003ZM130.239 48.5695L129.691 49.6715L129.143 50.7735C128.627 50.5169 128.106 50.3476 127.576 50.2593C127.046 50.171 126.499 50.1623 125.927 50.2377L125.766 49.0176L125.605 47.7975C126.408 47.6917 127.2 47.7014 127.981 47.8315C128.761 47.9615 129.514 48.2092 130.239 48.5695ZM121.177 49.4741L121.819 50.5238L122.461 51.5736C121.412 52.2151 120.307 53.0863 119.156 54.2011L118.3 53.3169L117.444 52.4328C118.696 51.22 119.943 50.2287 121.177 49.4741ZM114.256 55.9768L115.218 56.7443L116.18 57.5117C115.292 58.625 114.396 59.8579 113.495 61.2071L112.472 60.5239L111.448 59.8408C112.382 58.4411 113.319 57.151 114.256 55.9768ZM108.924 63.9015L109.988 64.5203L111.051 65.1391C110.304 66.4233 109.559 67.781 108.816 69.2091L107.724 68.6415L106.632 68.0738C107.391 66.6139 108.156 65.222 108.924 63.9015ZM104.51 72.3638L105.623 72.8888L106.736 73.4138C106.088 74.7864 105.445 76.2103 104.808 77.6833L103.679 77.1946L102.549 76.7058C103.196 75.2098 103.85 73.7616 104.51 72.3638ZM100.717 81.1116L101.86 81.5685L103.002 82.0255C102.431 83.4553 101.865 84.9239 101.306 86.4294L100.152 86.0009L98.9984 85.5724C99.5643 84.0486 100.137 82.5611 100.717 81.1116ZM97.3855 90.0708L98.5484 90.4735L99.7113 90.8761C99.2053 92.3375 98.706 93.8289 98.2141 95.349L97.0432 94.9701L95.8724 94.5911C96.3693 93.0557 96.8739 91.5484 97.3855 90.0708ZM94.4468 99.1438L95.6245 99.5006L96.8023 99.8574C96.3512 101.346 95.9074 102.86 95.4714 104.396L94.2876 104.06L93.1037 103.724C93.5435 102.174 93.9914 100.647 94.4468 99.1438ZM91.839 108.327L93.0283 108.643L94.2176 108.959C93.8163 110.468 93.4228 111.997 93.0375 113.545L91.8433 113.247L90.6492 112.95C91.0375 111.39 91.4343 109.848 91.839 108.327ZM89.5314 117.591C89.1736 119.128 88.8241 120.681 88.4833 122.249L89.6858 122.51L90.8884 122.771C91.2267 121.215 91.5735 119.674 91.9285 118.149L90.7299 117.87L89.5314 117.591ZM87.5029 126.921L88.7091 127.165L89.9153 127.409C89.6042 128.946 89.3016 130.497 89.0079 132.061L87.7984 131.833L86.5889 131.606C86.8847 130.032 87.1895 128.469 87.5029 126.921ZM85.74 136.304C85.6039 137.088 85.47 137.875 85.3385 138.664C85.2069 139.454 85.0785 140.242 84.9531 141.027L86.1683 141.221L87.3836 141.415C87.5081 140.635 87.6357 139.853 87.7663 139.069C87.8969 138.285 88.0298 137.503 88.165 136.725L86.9525 136.514L85.74 136.304ZM84.2332 145.747L85.451 145.924L86.6688 146.101C86.4398 147.675 86.2233 149.24 86.0192 150.795L84.799 150.635L83.5788 150.475C83.7844 148.909 84.0025 147.332 84.2332 145.747ZM82.9915 155.213L84.2139 155.355L85.4362 155.498C85.2517 157.08 85.0802 158.65 84.9217 160.208L83.6974 160.083L82.4731 159.958C82.6328 158.389 82.8056 156.807 82.9915 155.213ZM82.0258 164.711L83.2519 164.817L84.478 164.923C84.3407 166.512 84.2174 168.086 84.1077 169.644L82.8801 169.557L81.6525 169.471C81.7631 167.9 81.8875 166.313 82.0258 164.711ZM81.3566 174.235L82.5855 174.301L83.8144 174.367C83.7288 175.962 83.6581 177.537 83.6021 179.092L82.3722 179.047L81.1424 179.003C81.1989 177.434 81.2703 175.844 81.3566 174.235ZM81.0151 183.772L82.2455 183.793L83.476 183.814C83.459 184.805 83.4482 185.786 83.4436 186.757L80.9835 186.527C80.9886 185.617 80.9991 184.698 81.0151 183.772ZM85.3265 216.654L85.8259 216.554C85.6701 215.772 85.5215 214.971 85.3803 214.149L85.3265 216.654ZM84.4837 221.695L85.6735 221.381L86.8633 221.066C87.2776 222.634 87.7255 224.091 88.2048 225.432L87.046 225.847L85.8871 226.261C85.3816 224.846 84.9135 223.322 84.4837 221.695ZM87.7537 230.647L88.8501 230.088L89.9465 229.529C90.6744 230.957 91.4375 232.139 92.2215 233.086L91.2737 233.871L90.3258 234.656C89.4035 233.542 88.5456 232.2 87.7537 230.647ZM93.9716 237.678C94.6964 238.038 95.4493 238.286 96.2298 238.416C97.0104 238.546 97.803 238.555 98.6054 238.45L98.4444 237.229L98.2834 236.009C97.712 236.085 97.1645 236.076 96.6343 235.988C96.1041 235.899 95.5834 235.73 95.0672 235.474L94.5194 236.576L93.9716 237.678ZM103.034 236.773L102.392 235.723L101.749 234.673C102.798 234.032 103.903 233.161 105.055 232.046L105.911 232.93L106.767 233.814C105.514 235.027 104.267 236.018 103.034 236.773ZM109.955 230.27L108.993 229.503L108.031 228.735C108.919 227.622 109.815 226.389 110.715 225.04L111.739 225.723L112.762 226.406C111.828 227.806 110.891 229.096 109.955 230.27ZM115.287 222.346L114.223 221.727L113.159 221.108C113.906 219.824 114.652 218.466 115.394 217.038L116.486 217.606L117.578 218.173C116.819 219.633 116.055 221.025 115.287 222.346ZM119.701 213.883L118.588 213.358L117.475 212.833C118.122 211.461 118.765 210.037 119.403 208.564L120.532 209.052L121.661 209.541C121.014 211.037 120.36 212.485 119.701 213.883ZM123.493 205.135L122.351 204.678L121.208 204.222C121.78 202.792 122.346 201.323 122.905 199.818L124.058 200.246L125.212 200.675C124.646 202.198 124.073 203.686 123.493 205.135ZM126.825 196.176L125.662 195.774L124.499 195.371C125.005 193.91 125.505 192.418 125.996 190.898L127.167 191.277L128.338 191.656C127.841 193.191 127.337 194.699 126.825 196.176ZM129.764 187.103L128.586 186.746L127.408 186.39C127.859 184.901 128.303 183.388 128.739 181.851L129.923 182.187L131.107 182.523C130.667 184.073 130.219 185.6 129.764 187.103Z" fill="#163349"/>
<path d="M83.8603 60.9947L69.6254 87.6375L39.3983 97.4794L13.7085 70.8217L18.6929 55.508L34.5157 43.1287L65.0711 42.9125L83.8603 60.9947Z" fill="#FFFEEB"/>
<path d="M58.1773 66.8268L44.0327 79.9749L39.3983 97.4794M58.1773 66.8268L83.8603 60.9947M58.1773 66.8268L34.5157 43.1287M83.8603 60.9947L69.6254 87.6375L39.3983 97.4794M83.8603 60.9947L65.0711 42.9125L34.5157 43.1287M39.3983 97.4794L13.7085 70.8217L18.6929 55.508L34.5157 43.1287" stroke="#163349" stroke-width="2.61752"/>
<path d="M58.1753 66.8268L44.0308 79.9749L39.3964 97.4794L69.6234 87.6375L83.8583 60.9946L58.1753 66.8268Z" fill="#163349"/>
<path d="M73.5098 74.3935L67.3203 85.9427L54.6586 90.0321L49.3946 85.8227L55.5841 74.2734L69.3292 69.7813L73.5098 74.3935Z" fill="#FFF968"/>
<path d="M54.6586 90.0321L60.5077 79.2259M54.6586 90.0321L67.3203 85.9427L73.5098 74.3935M54.6586 90.0321L49.3946 85.8227L55.5841 74.2734M60.5077 79.2259L73.5098 74.3935M60.5077 79.2259L55.5841 74.2734M73.5098 74.3935L69.3292 69.7813L55.5841 74.2734" stroke="#163349" stroke-width="2.61752"/>
<path d="M25.0349 107.779C34.8917 98.0817 27.6409 87.3154 35.79 84.3008L25.7036 73.8148C14.4983 77.0004 19.7406 89.7877 12.0744 99.1353L17.878 99.7634L20.1625 102.164L22.9127 102.07L25.0349 107.779Z" fill="#FFF968"/>
<path d="M22.9528 70.955L25.7036 73.8148M38.0823 86.6839L35.79 84.3008M35.79 84.3008C27.6409 87.3154 34.8917 98.0817 25.0349 107.779C24.0648 105.169 23.2159 102.885 22.9127 102.07L20.1625 102.164L17.878 99.7634L12.0744 99.1353C19.7406 89.7877 14.4983 77.0004 25.7036 73.8148M35.79 84.3008L25.7036 73.8148" stroke="#163349" stroke-width="2.61752"/>
<path d="M50.4453 66.7078L34.1969 50.4663L25.062 57.1107L41.6135 74.1679L50.4453 66.7078Z" fill="#FFF968" stroke="#163349" stroke-width="2.61752"/>
<path d="M105.975 123.607C103.155 127.293 103.981 132.83 108.055 135.948C112.129 139.066 117.69 138.416 120.511 134.731C123.331 131.045 122.505 125.508 118.431 122.39C114.357 119.272 108.796 119.922 105.975 123.607Z" fill="#FFFEEB" stroke="#163349" stroke-width="2.61752"/>
<path d="M62.9677 86.1198C69.4056 103.67 101.375 96.7322 109.169 130.259C109.755 132.777 112.427 134.34 114.819 133.358C116.652 132.606 117.653 130.59 117.089 128.691C106.097 91.6329 81.7687 100.131 70.4275 83.7725C68.6822 81.255 64.2824 81.0937 63.0663 83.9054C62.7637 84.605 62.7052 85.4041 62.9677 86.1198Z" fill="#FFFEEB" stroke="#163349" stroke-width="2.61752"/>
<path d="M65.8182 82.8037C71.3023 101.872 104.706 93.7823 112.486 128.5C113.075 131.126 110.969 133.358 109.368 131.194C101.612 95.7287 68.1084 104.151 62.5972 84.9877L65.8182 82.8037Z" fill="#163349"/>
<path d="M178.664 26.915L196.661 27.4149L207.341 6.87702C208.663 4.33367 212.385 4.60127 213.33 7.30767L222.826 34.5014L243.92 48.8836C245.485 49.9501 245.819 52.1179 244.65 53.6066L240.815 58.4866L222.281 57.9414L207.791 76.1719C206.733 77.5018 204.629 77.1655 204.039 75.5724L194.48 49.7647L172.676 32.321L176.02 28.1413C176.66 27.3405 177.639 26.8865 178.664 26.915Z" fill="#FFFEEB" stroke="#163349" stroke-width="2.61752"/>
<path d="M174.823 31.4045L193.391 31.7759L204.07 11.238C205.393 8.69466 209.115 8.96227 210.06 11.6687L219.556 38.8624L240.547 53.268C242.991 54.9449 242.123 58.7468 239.194 59.1974L219.011 62.3024L204.52 80.5329C203.463 81.8628 201.359 81.5265 200.769 79.9334L191.21 54.1257L172.552 37.09C170.323 35.0549 171.805 31.3442 174.823 31.4045Z" fill="#60D2B3" stroke="#163349" stroke-width="2.61752"/>
<path d="M222.827 35.0465L219.557 38.8624L232.639 47.0391L235.91 43.7684L222.827 35.0465Z" fill="#163349"/>
<path fill-rule="evenodd" clip-rule="evenodd" d="M181.562 180.629C179.345 183.95 177.164 187.062 175.032 189.946C168.701 198.509 162.89 204.947 157.978 208.871C155.519 210.835 153.392 212.082 151.63 212.693C149.882 213.298 148.69 213.217 147.858 212.842C147.026 212.467 146.175 211.629 145.47 209.918C144.759 208.194 144.284 205.774 144.125 202.631C143.809 196.353 144.779 187.734 146.996 177.318C151.422 156.527 160.699 129.1 173.804 100.003C183.034 79.5096 192.903 60.9876 202.347 45.8539L200.397 44.3302C190.838 59.6207 180.868 78.3248 171.56 98.9921C145.25 157.406 134.186 209.383 146.847 215.086C154.464 218.517 168.933 204.419 184.981 179.922L181.562 180.629ZM221.378 110.617C229.174 92.4293 235.408 75.0881 239.814 59.8451H237.252C232.829 75.0175 226.59 92.2862 218.79 110.406L221.378 110.617ZM242.866 48.4433L240.686 46.9899C241.153 45.0493 241.582 43.1573 241.974 41.3172C244.191 30.9013 245.162 22.2831 244.845 16.0044C244.687 12.8613 244.211 10.442 243.5 8.71723C242.795 7.00703 241.944 6.16822 241.113 5.79358C240.281 5.41895 239.089 5.33754 237.341 5.94298C235.578 6.55359 233.451 7.80071 230.992 9.765C227.199 12.7949 222.871 17.3241 218.18 23.1731L217.234 20.4306C227.746 7.59217 236.682 1.09881 242.123 3.54942C249.098 6.69098 248.873 23.8756 242.866 48.4433Z" fill="#163349"/>
</svg>
