<svg width="345" height="330" viewBox="0 0 345 330" fill="none" xmlns="http://www.w3.org/2000/svg">
<path d="M276.566 245.03C230.094 250.985 236.288 194.378 192.198 202.933L196.744 193.496C240.835 184.941 234.64 241.547 281.112 235.592L276.566 245.03Z" fill="#D53243" stroke="#0E2230"/>
<path d="M276.565 245.03C230.094 250.985 236.288 194.378 192.197 202.933L195.082 199.963C239.173 191.407 232.978 248.014 279.45 242.059L276.565 245.03Z" fill="#0E2230"/>
<path d="M277.798 225.307L236.244 248.487C232.811 250.402 230.818 254.151 231.152 258.069L232.604 275.132C232.888 278.458 234.812 281.424 237.735 283.038L273.993 303.059C279.672 306.195 286.6 306.032 292.126 302.632L319.293 285.918C325.172 282.3 328.771 275.907 328.813 269.005L328.903 254.092C328.927 250.085 326.558 246.451 322.882 244.857L277.798 225.307Z" fill="#FFABA7" stroke="#0E2230"/>
<path d="M328.745 280.102L328.912 252.669C328.926 250.363 326.44 248.904 324.433 250.041L279.5 275.5L282.477 301.875C282.806 304.787 286.052 306.369 288.548 304.833L328.745 280.102Z" fill="#FF8A88"/>
<path d="M277.798 225.307L236.244 248.487C232.811 250.402 230.818 254.151 231.152 258.069L232.604 275.132C232.888 278.458 234.812 281.424 237.735 283.038L273.993 303.059C279.672 306.195 286.6 306.032 292.126 302.632L319.293 285.918C325.172 282.3 328.771 275.907 328.813 269.005L328.903 254.092C328.927 250.085 326.558 246.451 322.882 244.857L277.798 225.307Z" stroke="#0E2230"/>
<path d="M237.733 283.038L278.445 305.518C280.508 306.657 283.018 305.083 282.891 302.731L281.892 284.168C281.617 279.047 278.564 274.487 273.935 272.281L233.751 253.134C232.356 252.47 230.767 253.57 230.898 255.109L232.602 275.132C232.886 278.458 234.81 281.424 237.733 283.038Z" fill="#0E2230"/>
<path d="M326.5 248L277.001 277" stroke="#0E2230"/>
<path d="M280.17 246.164L263.399 237.836L268.473 228.957L281.74 221.283L292.782 227.304L295.901 237.389L280.17 246.164Z" fill="#FF8A88"/>
<path d="M280.17 246.164L263.399 237.836L268.473 228.957M280.17 246.164L295.901 237.389L292.782 227.304M280.17 246.164L280.69 234.103M292.782 227.304L280.69 234.103M292.782 227.304L281.74 221.283L268.473 228.957M280.69 234.103L268.473 228.957" stroke="#0E2230"/>
<path d="M280.171 246.164L263.4 237.836L268.474 228.956L280.691 234.103L280.171 246.164Z" fill="#0E2230"/>
<path d="M257.689 258.132L240.918 249.804L245.992 240.924L259.259 233.251L270.301 239.271L273.421 249.357L257.689 258.132Z" fill="#F8545C"/>
<path d="M257.689 258.132L240.918 249.804L245.992 240.924M257.689 258.132L273.421 249.357L270.301 239.271M257.689 258.132L258.209 246.071M270.301 239.271L258.209 246.071M270.301 239.271L259.259 233.251L245.992 240.924M258.209 246.071L245.992 240.924" stroke="#0E2230"/>
<path d="M257.69 258.132L240.919 249.804L245.993 240.924L258.21 246.071L257.69 258.132Z" fill="#0E2230"/>
<path d="M300.508 255.855L283.737 247.527L288.811 238.647L302.078 230.974L313.12 236.994L316.239 247.08L300.508 255.855Z" fill="#F8545C"/>
<path d="M300.508 255.855L283.737 247.527L288.811 238.647M300.508 255.855L316.239 247.08L313.12 236.994M300.508 255.855L301.028 243.794M313.12 236.994L301.028 243.794M313.12 236.994L302.078 230.974L288.811 238.647M301.028 243.794L288.811 238.647" stroke="#0E2230"/>
<path d="M300.509 255.855L283.738 247.526L288.812 238.647L301.029 243.794L300.509 255.855Z" fill="#0E2230"/>
<path d="M279.547 268.883L262.776 260.554L267.85 251.675L281.117 244.002L292.159 250.022L295.278 260.108L279.547 268.883Z" fill="#FF8A88"/>
<path d="M279.547 268.883L262.776 260.554L267.85 251.675M279.547 268.883L295.278 260.108L292.159 250.022M279.547 268.883L280.067 256.822M292.159 250.022L280.067 256.822M292.159 250.022L281.117 244.002L267.85 251.675M280.067 256.822L267.85 251.675" stroke="#0E2230"/>
<path d="M279.548 268.883L262.777 260.554L267.851 251.675L280.068 256.822L279.548 268.883Z" fill="#0E2230"/>
<ellipse cx="319.476" cy="269.837" rx="8.51122" ry="14.4036" transform="rotate(5.50275 319.476 269.837)" fill="#0E2230"/>
<path d="M332.411 273.714C332.036 277.6 330.768 281.004 329.046 283.367C327.317 285.74 325.195 286.987 323.103 286.786C321.011 286.584 319.167 284.955 317.922 282.295C316.683 279.647 316.088 276.064 316.462 272.178C316.837 268.292 318.105 264.888 319.827 262.525C321.556 260.152 323.678 258.905 325.77 259.106C327.862 259.308 329.706 260.937 330.951 263.597C332.19 266.245 332.785 269.828 332.411 273.714Z" fill="#FFABA7" stroke="#0E2230"/>
<ellipse cx="302.704" cy="280.06" rx="8.51122" ry="14.4036" transform="rotate(5.50275 302.704 280.06)" fill="#0E2230"/>
<path d="M315.639 283.938C315.265 287.824 313.997 291.228 312.275 293.59C310.545 295.964 308.424 297.211 306.332 297.009C304.24 296.808 302.395 295.178 301.151 292.519C299.912 289.871 299.316 286.287 299.691 282.401C300.065 278.516 301.333 275.112 303.055 272.749C304.785 270.376 306.906 269.129 308.998 269.33C311.09 269.532 312.935 271.161 314.179 273.821C315.418 276.469 316.014 280.052 315.639 283.938Z" fill="#F8545C" stroke="#0E2230"/>
<path d="M54.4202 215.979C91.1271 204.173 163.814 251.196 212.745 218.127C230.626 208.116 266.24 178.614 276.802 136.019C277.869 131.715 272.895 128.706 269.067 130.944C198.889 171.959 109.293 106.045 58.1446 176.41C51.5425 183.785 46.6153 194.307 43.8199 209.08C42.9235 213.817 49.8301 217.455 54.4202 215.979Z" fill="#FFEBEA" stroke="#0E2230"/>
<path d="M212.742 218.127C229.414 206.86 242.704 190.359 251.498 155C189.63 200.26 96.2684 133.821 58.1415 176.41C51.5394 183.785 46.6141 194.306 43.8187 209.079C42.9223 213.816 49.8289 217.454 54.419 215.978C91.1259 204.172 163.811 251.196 212.742 218.127Z" fill="#FF8A88" stroke="#0E2230"/>
<path d="M251.5 155C242.706 190.359 229.416 206.86 212.744 218.127M251.5 155C189.632 200.26 96.2704 133.821 58.1435 176.41M251.5 155L274.5 131" stroke="#0E2230"/>
<path d="M212.746 218.127C229.418 206.859 241.706 189.859 250.5 154.5C211.781 278.278 89.3519 159.231 50.3325 212.608C48.9937 214.439 52.2981 217.239 54.4101 216.411C88.5551 203.024 162.927 251.796 212.746 218.127Z" fill="#0E2230"/>
<path d="M116.126 267.502C113.464 281.069 100.312 289.908 86.7492 287.246C73.1865 284.584 64.3492 271.428 67.0108 257.861C69.6723 244.295 82.8248 235.455 96.3875 238.117C109.95 240.78 118.788 253.936 116.126 267.502Z" fill="#FF8A88" stroke="#0E2230"/>
<path fill-rule="evenodd" clip-rule="evenodd" d="M116.501 268.161C111.994 275.883 102.95 280.284 93.6838 278.465C81.9783 276.168 74.3512 264.813 76.6483 253.105C78.1124 245.642 83.2545 239.837 89.8221 237.202C78.5759 237.967 68.7949 246.175 66.521 257.765C63.8063 271.602 72.8201 285.021 86.6538 287.737C100.299 290.415 113.537 281.679 116.501 268.161Z" fill="#0E2230"/>
<path fill-rule="evenodd" clip-rule="evenodd" d="M141.793 135.118L141.304 135.222L140.815 135.325C140.458 133.638 140.084 132.001 139.694 130.415L140.18 130.296L140.665 130.176C141.058 131.773 141.434 133.421 141.793 135.118ZM139.357 125.255L138.876 125.393L138.396 125.531C137.916 123.862 137.418 122.264 136.901 120.741L137.374 120.581L137.848 120.42C138.37 121.959 138.874 123.572 139.357 125.255ZM136.072 115.653L135.61 115.842L135.147 116.032C134.478 114.398 133.785 112.881 133.07 111.487L133.515 111.259L133.96 111.031C134.689 112.453 135.394 113.996 136.072 115.653ZM131.384 106.662L130.972 106.945L130.56 107.228C129.542 105.746 128.498 104.509 127.436 103.521L127.776 103.155L128.116 102.789C129.243 103.836 130.334 105.133 131.384 106.662ZM123.852 100.106L123.69 100.578L123.528 101.051C122.803 100.802 122.072 100.665 121.334 100.639C120.595 100.614 119.857 100.701 119.117 100.899L118.987 100.416L118.858 99.9331C119.689 99.7101 120.527 99.6106 121.368 99.6397C122.209 99.6687 123.038 99.8258 123.852 100.106ZM114.419 102.316C113.223 103.283 112.045 104.501 110.892 105.955L111.283 106.265L111.675 106.576C112.793 105.168 113.92 104.005 115.048 103.094L114.733 102.705L114.419 102.316ZM108.021 110.135L108.449 110.393L108.877 110.652C108.068 111.993 107.272 113.459 106.492 115.042L106.043 114.821L105.595 114.6C106.386 112.994 107.196 111.504 108.021 110.135ZM103.495 119.234L103.956 119.427L104.418 119.62C103.797 121.104 103.189 122.663 102.596 124.295L102.126 124.124L101.656 123.953C102.255 122.308 102.868 120.733 103.495 119.234ZM100.012 128.773L100.488 128.925L100.964 129.078C100.466 130.633 99.9801 132.241 99.5074 133.899L99.0266 133.762L98.5458 133.625C99.0213 131.957 99.5103 130.339 100.012 128.773ZM97.2239 138.526L97.7084 138.65L98.1928 138.773C97.7845 140.374 97.3879 142.015 97.0039 143.693L96.5166 143.582L96.0292 143.47C96.415 141.784 96.8134 140.136 97.2239 138.526ZM94.9512 148.439L95.441 148.54L95.9307 148.64C95.5972 150.263 95.2751 151.916 94.9649 153.598L94.4733 153.508L93.9816 153.417C94.293 151.728 94.6164 150.068 94.9512 148.439ZM93.1086 158.417L93.602 158.499L94.0953 158.58C93.8242 160.223 93.5642 161.89 93.3159 163.58L92.8212 163.507L92.3265 163.434C92.5757 161.739 92.8366 160.066 93.1086 158.417ZM91.6303 168.465L92.1261 168.53L92.6219 168.594C92.4066 170.25 92.2023 171.926 92.0093 173.621L91.5126 173.564L91.0158 173.507C91.2093 171.808 91.4143 170.127 91.6303 168.465ZM90.4798 178.558L90.9774 178.607L91.4749 178.656C91.3109 180.322 91.1578 182.004 91.016 183.7L90.5177 183.658L90.0195 183.617C90.1618 181.915 90.3153 180.229 90.4798 178.558ZM89.6327 188.681L90.1315 188.716L90.6303 188.75C90.5146 190.423 90.4097 192.108 90.3161 193.805L89.8169 193.778L89.3177 193.75C89.4115 192.048 89.5167 190.358 89.6327 188.681ZM89.073 198.823C89.0381 199.669 89.0059 200.518 88.9765 201.369C88.9471 202.22 88.9207 203.069 88.8973 203.915L89.3971 203.929L89.8969 203.943C89.9203 203.099 89.9466 202.252 89.9759 201.404C90.0052 200.555 90.0373 199.708 90.0721 198.865L89.5726 198.844L89.073 198.823ZM88.7917 208.993L89.2916 209L89.7916 209.007C89.7679 210.707 89.7563 212.396 89.7565 214.072L89.2565 214.072L88.7565 214.072C88.7564 212.391 88.768 210.698 88.7917 208.993ZM88.7933 219.151L89.2932 219.144L89.7931 219.137C89.8177 220.839 89.8545 222.527 89.9033 224.2L89.4036 224.215L88.9038 224.229C88.8549 222.551 88.8179 220.858 88.7933 219.151ZM89.0904 229.305L89.5898 229.283L90.0893 229.261C90.165 230.964 90.2533 232.65 90.3539 234.317L89.8549 234.347L89.3558 234.378C89.2549 232.705 89.1663 231.014 89.0904 229.305ZM89.7036 239.445L90.2021 239.406L90.7006 239.368C90.8319 241.071 90.9763 242.752 91.1335 244.409L90.6358 244.457L90.138 244.504C89.9803 242.84 89.8353 241.153 89.7036 239.445ZM90.6642 249.552L91.161 249.496L91.6577 249.439C91.7724 250.446 91.8919 251.443 92.0162 252.43L91.013 252.467C90.8922 251.505 90.7759 250.533 90.6642 249.552ZM99.5742 289.077L100.037 288.888L100.5 288.698C101.169 290.332 101.862 291.849 102.576 293.243L102.131 293.471L101.687 293.699C100.958 292.277 100.253 290.734 99.5742 289.077ZM104.263 298.068L104.675 297.785L105.087 297.502C106.105 298.984 107.149 300.222 108.211 301.209L107.871 301.575L107.53 301.941C106.404 300.894 105.313 299.597 104.263 298.068ZM111.794 304.625L111.957 304.152L112.119 303.679C112.844 303.928 113.575 304.066 114.313 304.091C115.051 304.117 115.79 304.03 116.53 303.831L116.66 304.314L116.789 304.797C115.957 305.02 115.12 305.12 114.279 305.09C113.437 305.061 112.609 304.904 111.794 304.625ZM121.228 302.414L120.913 302.026L120.599 301.637C121.727 300.725 122.854 299.562 123.972 298.154L124.363 298.465L124.755 298.776C123.602 300.229 122.424 301.447 121.228 302.414ZM127.626 294.595L127.198 294.337L126.769 294.079C127.578 292.737 128.374 291.272 129.155 289.688L129.603 289.909L130.052 290.13C129.26 291.736 128.451 293.227 127.626 294.595ZM132.152 285.496L131.69 285.303L131.229 285.11C131.85 283.626 132.457 282.067 133.05 280.435L133.52 280.606L133.99 280.777C133.392 282.422 132.779 283.997 132.152 285.496ZM135.635 275.958L135.158 275.805L134.682 275.652C135.181 274.097 135.667 272.489 136.139 270.831L136.62 270.968L137.101 271.105C136.625 272.773 136.136 274.392 135.635 275.958ZM138.423 266.204L137.938 266.08L137.454 265.957C137.862 264.356 138.259 262.715 138.643 261.037L139.13 261.149L139.617 261.26C139.232 262.946 138.833 264.595 138.423 266.204ZM140.695 256.291L140.206 256.191L139.716 256.09C140.049 254.467 140.371 252.814 140.682 251.132L141.173 251.222L141.665 251.313C141.354 253.002 141.03 254.662 140.695 256.291ZM142.538 246.313L142.045 246.232L141.551 246.15C141.822 244.507 142.082 242.84 142.331 241.15L142.825 241.223L143.32 241.296C143.071 242.991 142.81 244.664 142.538 246.313ZM144.016 236.265L143.521 236.2L143.025 236.136C143.24 234.48 143.444 232.804 143.637 231.11L144.134 231.166L144.631 231.223C144.437 232.922 144.232 234.603 144.016 236.265ZM145.167 226.172L144.669 226.123L144.172 226.074C144.336 224.408 144.489 222.727 144.631 221.03L145.129 221.072L145.627 221.114C145.485 222.815 145.331 224.501 145.167 226.172ZM146.014 216.049L145.515 216.015L145.105 215.986L146.09 210.967L146.329 210.98C146.235 212.682 146.13 214.372 146.014 216.049Z" fill="#0E2230"/>
<path d="M70.717 136.952L78.4921 116.303C79.7537 112.953 78.6357 109.172 75.7549 107.046L61.574 96.5838C59.4736 95.0341 56.8504 94.3671 54.2648 94.7253L32.8438 97.6927C28.467 98.299 24.4141 100.338 21.3182 103.49L13.2535 111.703C11.8602 113.122 10.9215 114.924 10.5575 116.879L8.74865 126.593C8.27506 129.136 9.24287 131.733 11.2653 133.347L34.3695 151.776C37.0636 153.925 40.7485 154.347 43.8586 152.862L65.6662 142.452C67.997 141.34 69.8069 139.369 70.717 136.952Z" fill="#FFABA7" stroke="#0E2230"/>
<path d="M70.717 136.952L78.4921 116.303C79.7537 112.953 78.6357 109.172 75.7549 107.046L61.574 96.5838C59.4736 95.0341 56.8504 94.3671 54.2648 94.7253L32.8438 97.6927C28.467 98.299 24.4141 100.338 21.3182 103.49L13.2535 111.703C11.8602 113.122 10.9215 114.924 10.5575 116.879L8.74865 126.593C8.27506 129.136 9.24287 131.733 11.2653 133.347L34.3695 151.776C37.0636 153.925 40.7485 154.347 43.8586 152.862L65.6662 142.452C67.997 141.34 69.8069 139.369 70.717 136.952Z" fill="#FFABA7" stroke="#0E2230"/>
<path d="M70.717 136.952L78.4921 116.303C79.7537 112.953 78.6357 109.172 75.7549 107.046L61.574 96.5838C59.4736 95.0341 56.8504 94.3671 54.2648 94.7253L32.8438 97.6927C28.467 98.299 24.4141 100.338 21.3182 103.49L13.2535 111.703C11.8602 113.122 10.9215 114.924 10.5575 116.879L8.74865 126.593C8.27506 129.136 9.24287 131.733 11.2653 133.347L34.3695 151.776C37.0636 153.925 40.7485 154.347 43.8586 152.862L65.6662 142.452C67.997 141.34 69.8069 139.369 70.717 136.952Z" fill="#FFABA7" stroke="#0E2230"/>
<path d="M58.2976 94.1666L26.093 98.6279L50.5 117.5L51.5 123.5L80.6245 110.639L58.2976 94.1666Z" fill="#FFEBEA"/>
<path d="M52 122L41.2357 136.181L39.2415 151.646C39.0389 153.218 40.6568 154.39 42.0866 153.707L69.2964 140.719L79.8257 112.756C80.1316 111.943 79.3279 111.153 78.5209 111.474L52 122Z" fill="#0E2230"/>
<path d="M71.5616 126.209L66.632 139.25L53.8411 145.318L47.7046 141.607L52.6342 128.565L66.5124 121.922L71.5616 126.209Z" fill="#F8545C"/>
<path d="M53.8411 145.318L58.5145 133.108M53.8411 145.318L66.632 139.25L71.5616 126.209M53.8411 145.318L47.7046 141.607L52.6342 128.565M58.5145 133.108L71.5616 126.209M58.5145 133.108L52.6342 128.565M71.5616 126.209L66.5124 121.922L52.6342 128.565" stroke="#0E2230"/>
<path d="M43.5758 119.309L28.8068 107.974C27.6359 107.075 25.9852 107.161 24.9148 108.178L20.5647 112.307C19.2411 113.564 19.3369 115.702 20.7676 116.835L35.6865 128.651C36.9225 129.63 38.7052 129.485 39.767 128.32L43.9671 123.709C45.1498 122.41 44.9691 120.378 43.5758 119.309Z" fill="#F8545C" stroke="#0E2230"/>
<path d="M70.717 136.952L78.4921 116.303C79.7537 112.953 78.6357 109.172 75.7549 107.046L61.574 96.5838C59.4736 95.0341 56.8504 94.3671 54.2648 94.7253L32.8438 97.6927C28.467 98.299 24.4141 100.338 21.3182 103.49L13.2535 111.703C11.8602 113.122 10.9215 114.924 10.5575 116.879L8.74865 126.593C8.27506 129.136 9.24287 131.733 11.2653 133.347L34.3695 151.776C37.0636 153.925 40.7485 154.347 43.8586 152.862L65.6662 142.452C67.997 141.34 69.8069 139.369 70.717 136.952Z" stroke="#0E2230"/>
<path d="M25.0508 168.145C34.1057 156.549 24.9649 146.195 33.1441 141.886L21.0507 132.221C9.67099 137.134 16.9729 149.898 10.1805 160.821L16.39 160.68L19.1327 162.895L22.021 162.415L25.0508 168.145Z" fill="#D53243"/>
<path d="M17.7525 129.585L21.0507 132.221M35.8926 144.082L33.1441 141.886M33.1441 141.886C24.9649 146.195 34.1057 156.549 25.0508 168.145C23.6657 165.526 22.4538 163.234 22.021 162.415L19.1327 162.895L16.39 160.68L10.1805 160.821C16.9729 149.898 9.67099 137.134 21.0507 132.221M33.1441 141.886L21.0507 132.221" stroke="#0E2230" stroke-linecap="round"/>
<path d="M111.855 173.184C109.119 177.933 110.975 184.188 116.087 187.133C121.199 190.078 127.541 188.545 130.277 183.796C133.013 179.046 131.158 172.791 126.046 169.846C120.933 166.901 114.591 168.434 111.855 173.184Z" fill="#FF6A6E" stroke="#0E2230"/>
<path d="M62.0624 140.04C71.2857 157.663 104.051 145.914 116.918 180.204C117.885 182.779 120.921 184.057 123.308 182.69C125.137 181.643 125.914 179.377 125.056 177.452C108.326 139.881 83.8377 152.216 69.607 136.53C67.417 134.116 62.7531 134.556 61.8597 137.69C61.6373 138.47 61.6863 139.321 62.0624 140.04Z" fill="#FFABA7" stroke="#0E2230"/>
<path d="M63.5001 135.5C72.6167 156.133 107.124 142.393 120.172 177.889C121.161 180.577 119.248 183.224 117.259 181.163C104.163 144.823 69.9854 158.349 61.5164 138.897L63.5001 135.5Z" fill="#0E2230"/>
<path d="M175.917 61.5521L194.972 59.5862L203.393 36.4401C204.436 33.5737 208.4 33.3404 209.772 36.0646L223.557 63.4371L247.803 75.6872C249.601 76.5957 250.254 78.8362 249.226 80.5688L245.858 86.2481L226.23 88.2408L213.468 109.481C212.537 111.03 210.27 110.967 209.427 109.368L195.768 83.4663L170.348 68.0848L173.297 63.2122C173.862 62.2787 174.832 61.6641 175.917 61.5521Z" fill="#FFABA7" stroke="#0E2230"/>
<path d="M172.486 66.8206L192.125 64.6399L200.547 41.4938C201.59 38.6274 205.553 38.3941 206.925 41.1183L220.711 68.4908L244.851 80.7799C247.661 82.2104 247.272 86.3415 244.245 87.2227L223.383 93.2945L210.622 114.534C209.691 116.084 207.424 116.021 206.581 114.422L192.922 88.52L170.878 73.133C168.245 71.2949 169.294 67.175 172.486 66.8206Z" fill="#FF6A6E" stroke="#0E2230"/>
<path d="M223.634 64.0121L220.712 68.4908L235.647 75.3044L238.644 71.4008L223.634 64.0121Z" fill="#0E2230"/>
<path d="M136.046 76.106L145.445 76.3671L151.147 64.479C152.233 62.215 155.542 62.494 156.233 64.9078L160.587 80.1092L171.647 87.6498C172.501 88.2325 172.656 89.4308 171.976 90.2109L167.437 95.4244L157.65 95.1366L149.998 104.763C149.44 105.466 148.328 105.288 148.017 104.447L142.969 90.8188L131.455 81.6074L134.554 76.8849C134.883 76.3842 135.447 76.0894 136.046 76.106Z" fill="#FF8A88" stroke="#0E2230"/>
<path d="M132.588 81.1235L142.393 81.3196L148.032 70.4744C148.731 69.1313 150.696 69.2726 151.195 70.7018L156.21 85.0617L167.294 92.6687C168.585 93.5542 168.126 95.5619 166.58 95.7998L155.922 97.4395L148.27 107.066C147.712 107.769 146.6 107.591 146.289 106.75L141.241 93.1216L131.389 84.1258C130.212 83.0511 130.994 81.0916 132.588 81.1235Z" fill="#D53243" stroke="#0E2230"/>
<path d="M160.586 80.3972L156.209 85.0617L163.117 89.3796L167.494 85.0028L160.586 80.3972Z" fill="#0E2230"/>
<path fill-rule="evenodd" clip-rule="evenodd" d="M202.441 222.557C200.309 226.941 198.184 231.043 196.085 234.83C190.564 244.793 185.246 252.529 180.467 257.496C178.076 259.98 175.859 261.731 173.857 262.733C171.861 263.732 170.155 263.952 168.707 263.515C167.259 263.079 165.959 261.954 164.847 260.018C163.731 258.077 162.85 255.393 162.229 252.002C160.989 245.222 160.83 235.836 161.73 224.481C163.53 201.788 169.546 171.451 179.363 138.863C186.298 115.845 194.193 94.8099 202.121 77.424L201.255 76.9134C193.289 94.3685 185.362 115.482 178.406 138.575C158.743 203.844 154.272 260.211 168.419 264.473C176.93 267.037 190.24 250.159 203.777 222.093L202.441 222.557ZM232.573 143.937C238.277 123.67 242.451 104.512 244.988 87.8205L243.956 87.956C241.409 104.62 237.229 123.749 231.519 143.989L232.573 143.937ZM246.627 75.3687L245.673 74.8988C245.925 72.5653 246.139 70.2985 246.313 68.1032C247.214 56.7484 247.054 47.3621 245.814 40.5822C245.193 37.1907 244.312 34.5066 243.196 32.5657C242.084 30.6304 240.784 29.5049 239.336 29.0687C237.888 28.6325 236.182 28.8523 234.186 29.8512C232.184 30.8531 229.967 32.6036 227.576 35.088C224.044 38.7587 220.217 43.9424 216.232 50.4199L215.707 49.3672C225.017 34.3677 233.545 26.2798 239.624 28.1112C247.418 30.459 249.561 48.6189 246.627 75.3687Z" fill="#0E2230"/>
<path d="M39 153.5L40.5345 141.627C40.9944 138.069 42.4525 134.714 44.74 131.949L49.6949 125.962C52.2292 122.899 51.7078 118.344 48.547 115.933L27 99.5" stroke="#0E2230"/>
</svg>
