<svg width="345" height="296" viewBox="0 0 345 296" fill="none" xmlns="http://www.w3.org/2000/svg">
<path d="M113.399 273.283L109.544 255.088L130.682 252.931L141.17 251.328L142.613 260.767L133.487 271.286C124.677 272.633 116.424 273.179 113.399 273.283Z" fill="#FFFEEB"/>
<path d="M133.487 271.286C124.677 272.633 116.424 273.179 113.399 273.283L109.544 255.088L130.682 252.931M133.487 271.286C132.718 266.251 131.296 256.952 130.682 252.931M133.487 271.286L142.613 260.767L141.17 251.328L130.682 252.931" stroke="#163349" stroke-width="2.14079"/>
<path d="M113.399 273.283L60.7912 325.869" stroke="#163349" stroke-width="2.14079" stroke-dasharray="4.03 4.03"/>
<path d="M252.897 251.961L318.811 286.431" stroke="#163349" stroke-width="2.14079" stroke-dasharray="4.03 4.03"/>
<path d="M131.731 252.771L109.989 254.484L110.95 260.778L132.693 259.064L131.731 252.771Z" fill="#163349"/>
<path d="M130.682 252.931L133.487 271.286L142.613 260.768L141.17 251.328L130.682 252.931Z" fill="#163349"/>
<path d="M252.897 251.961L251.141 233.446L230.324 237.701L219.835 239.304L221.278 248.744L233.129 256.056C241.94 254.709 249.979 252.765 252.897 251.961Z" fill="#FFFEEB"/>
<path d="M233.129 256.056C241.94 254.709 249.979 252.765 252.897 251.961L251.141 233.446L230.324 237.701M233.129 256.056C232.36 251.022 230.938 241.722 230.324 237.701M233.129 256.056L221.278 248.744L219.835 239.304L230.324 237.701" stroke="#163349" stroke-width="2.14079"/>
<path d="M230.324 237.701L233.129 256.056L221.278 248.744L219.835 239.304L230.324 237.701Z" fill="#163349"/>
<path d="M100.993 255.323L76.4673 133.488L110.299 102.019C153.774 91.5098 193.093 87.754 207.318 87.1897L249.005 107.115L261.993 230.714C193.73 247.588 126.217 254.151 100.993 255.323Z" fill="#FFFEEB"/>
<path d="M76.4673 133.488L100.993 255.323C126.217 254.151 193.73 247.588 261.993 230.714L249.005 107.115M76.4673 133.488C149.409 116.328 221.885 108.756 249.005 107.115M76.4673 133.488L110.299 102.019C153.774 91.5098 193.093 87.754 207.318 87.1897L249.005 107.115" stroke="#163349" stroke-width="2.14079"/>
<path d="M169.586 98.6056L158.306 93.0711C176.573 88.9909 195.795 87.8775 203.123 87.8309L198.218 94.9209C196.601 97.2588 193.98 98.7019 191.14 98.8185L173.947 99.524C172.44 99.5859 170.941 99.2702 169.586 98.6056Z" fill="#163349"/>
<path d="M94.2937 137.88L79.3598 145.389L77.5963 133.851L99.9635 111.648L104.91 126.456L102.28 130.629C100.327 133.727 97.5658 136.234 94.2937 137.88Z" fill="#163349"/>
<path d="M112.908 238.474L95.3699 148.309C140.943 137.479 209.106 129.314 232.771 127.307L242.967 218.595C197.394 229.424 136.573 236.467 112.908 238.474Z" fill="#FFFEEB" stroke="#163349" stroke-width="2.14079"/>
<path d="M201.238 222.763L194.298 244.281C221.988 240.049 239.239 236.339 245.896 234.248L237.384 221.267C235.709 218.714 232.86 217.176 229.806 217.177L208.899 217.183C205.405 217.184 202.31 219.438 201.238 222.763Z" fill="#163349"/>
<path d="M210.67 139.824L222.463 145.787C224.971 157.769 228.921 186.711 229.487 210.173L219.341 212.522L208.658 206.889L207.42 197.073L212.027 196.492C211.31 187.229 209.537 169.978 206.514 154.308L201.663 151.43L200.363 141.124L210.67 139.824Z" fill="#FFFEEB"/>
<path d="M200.363 141.124L212.156 147.087M200.363 141.124L210.67 139.824L222.463 145.787M200.363 141.124L201.663 151.43L206.514 154.308C209.537 169.978 211.31 187.229 212.027 196.492M212.156 147.087L222.463 145.787M212.156 147.087C214.665 159.069 218.775 189.06 219.341 212.522M222.463 145.787C224.971 157.769 228.921 186.711 229.487 210.173L219.341 212.522M219.341 212.522L208.658 206.889L207.42 197.073M207.42 197.073L212.271 199.952C212.211 198.981 212.13 197.818 212.027 196.492M207.42 197.073L212.027 196.492" stroke="#163349" stroke-width="2.14079"/>
<path d="M207.628 163.143L200.744 152.045L206.452 153.818L207.628 163.143Z" fill="#163349"/>
<path d="M211.107 147.247L200.363 141.124L210.67 139.824L221.414 145.947L211.107 147.247Z" fill="#163349"/>
<path d="M212.271 199.952L207.42 197.073L212.027 196.492C212.13 197.818 212.211 198.981 212.271 199.952Z" fill="#163349"/>
<mask id="path-21-inside-1_1038_34537" fill="white">
<path fill-rule="evenodd" clip-rule="evenodd" d="M163.107 215.775C185.988 212.277 201.702 190.893 198.204 168.012C194.707 145.131 173.323 129.417 150.442 132.915C127.561 136.412 111.847 157.796 115.344 180.677C118.842 203.558 140.226 219.272 163.107 215.775ZM161.183 203.189C177.113 200.754 188.053 185.866 185.618 169.936C183.183 154.006 168.295 143.066 152.365 145.501C136.436 147.936 125.496 162.824 127.93 178.754C130.365 194.684 145.253 205.623 161.183 203.189Z"/>
</mask>
<path fill-rule="evenodd" clip-rule="evenodd" d="M163.107 215.775C185.988 212.277 201.702 190.893 198.204 168.012C194.707 145.131 173.323 129.417 150.442 132.915C127.561 136.412 111.847 157.796 115.344 180.677C118.842 203.558 140.226 219.272 163.107 215.775ZM161.183 203.189C177.113 200.754 188.053 185.866 185.618 169.936C183.183 154.006 168.295 143.066 152.365 145.501C136.436 147.936 125.496 162.824 127.93 178.754C130.365 194.684 145.253 205.623 161.183 203.189Z" fill="#60D2B3"/>
<path d="M196.088 168.336C199.407 190.048 184.496 210.34 162.783 213.658L163.43 217.891C187.48 214.215 203.997 191.739 200.321 167.689L196.088 168.336ZM150.765 135.031C172.478 131.712 192.77 146.623 196.088 168.336L200.321 167.689C196.645 143.639 174.168 127.122 150.118 130.798L150.765 135.031ZM117.461 180.354C114.142 158.641 129.053 138.349 150.765 135.031L150.118 130.798C126.069 134.474 109.552 156.951 113.228 181.001L117.461 180.354ZM162.783 213.658C141.071 216.977 120.779 202.066 117.461 180.354L113.228 181.001C116.904 205.05 139.38 221.567 163.43 217.891L162.783 213.658ZM183.502 170.26C185.758 185.021 175.621 198.816 160.859 201.072L161.506 205.305C178.605 202.691 190.348 186.711 187.734 169.613L183.502 170.26ZM152.689 147.617C167.45 145.361 181.245 155.498 183.502 170.26L187.734 169.613C185.121 152.514 169.141 140.772 152.042 143.385L152.689 147.617ZM130.047 178.43C127.79 163.669 137.928 149.874 152.689 147.617L152.042 143.385C134.943 145.999 123.201 161.978 125.814 179.077L130.047 178.43ZM160.859 201.072C146.098 203.329 132.303 193.191 130.047 178.43L125.814 179.077C128.428 196.176 144.408 207.918 161.506 205.305L160.859 201.072Z" fill="#163349" mask="url(#path-21-inside-1_1038_34537)"/>
<path fill-rule="evenodd" clip-rule="evenodd" d="M162.916 203.997C180.874 201.252 193.278 184.939 190.622 167.561C187.965 150.183 171.255 138.32 153.297 141.065C135.34 143.81 122.936 160.122 125.592 177.501C128.248 194.879 144.959 206.741 162.916 203.997ZM161.183 203.188C177.113 200.753 188.053 185.866 185.618 169.936C183.183 154.006 168.295 143.066 152.366 145.501C136.436 147.936 125.496 162.823 127.931 178.753C130.365 194.683 145.253 205.623 161.183 203.188Z" fill="#163349"/>
<path d="M153.835 179.634L161.159 178.514L164.925 203.153C165.234 205.176 163.845 207.066 161.823 207.375C159.8 207.684 157.91 206.295 157.601 204.273L153.835 179.634Z" fill="#60D2B3" stroke="#163349" stroke-width="2.14079"/>
<path d="M161.22 206.94L157.292 181.243L154.065 181.199L157.672 204.799L161.22 206.94Z" fill="#163349"/>
<path d="M127.888 166.19L150.288 178.113L153.721 171.548L131.369 159.65C129.554 158.684 127.299 159.381 126.346 161.203C125.403 163.007 126.092 165.234 127.888 166.19Z" fill="#60D2B3" stroke="#163349" stroke-width="2.14079"/>
<path d="M126.579 161.884L149.883 174.328L148.878 177.395L127.454 165.934L126.579 161.884Z" fill="#163349"/>
<path d="M181.391 158.362L163.576 176.432L158.338 171.192L176.115 153.161C177.559 151.697 179.919 151.688 181.373 153.143C182.812 154.582 182.82 156.913 181.391 158.362Z" fill="#60D2B3" stroke="#163349" stroke-width="2.14079"/>
<path d="M181.355 153.862L162.832 172.699L164.707 175.326L181.73 157.989L181.355 153.862Z" fill="#163349"/>
<circle cx="157.095" cy="176.442" r="9.00951" transform="rotate(-8.69031 157.095 176.442)" fill="#60D2B3" stroke="#163349" stroke-width="2.14079"/>
<path fill-rule="evenodd" clip-rule="evenodd" d="M166.637 173.188C166.467 176.951 163.664 180.196 159.798 180.787C155.396 181.46 151.281 178.437 150.609 174.034C150.229 171.551 151.025 169.16 152.581 167.426C148.775 169.331 146.453 173.531 147.131 177.965C147.972 183.468 153.115 187.248 158.618 186.406C164.121 185.565 167.9 180.422 167.059 174.919C166.968 174.32 166.825 173.742 166.637 173.188Z" fill="#163349"/>
<path fill-rule="evenodd" clip-rule="evenodd" d="M197.932 166.433C200.409 188.136 185.293 208.09 163.514 211.419C141.212 214.828 120.369 199.512 116.961 177.21C115.658 168.691 117.089 160.384 120.597 153.181C115.908 161.186 113.833 170.792 115.344 180.677C118.841 203.559 140.225 219.272 163.106 215.775C185.988 212.278 201.701 190.894 198.204 168.012C198.123 167.482 198.032 166.956 197.932 166.433Z" fill="#163349"/>
<path d="M90.94 159.999L102.808 157.597L106.655 176.602C107.235 179.466 105.384 182.257 102.52 182.837L101.023 183.14C98.1589 183.72 95.3674 181.868 94.7876 179.005L90.94 159.999Z" fill="#FF5F77" stroke="#163349" stroke-width="2.14079"/>
<path d="M92.9114 170.908C95.1038 171.177 100.638 171.054 105.234 168.413" stroke="#163349" stroke-width="2.14079"/>
<path d="M102.512 156.136C102.518 156.163 102.534 156.289 102.355 156.551C102.174 156.816 101.842 157.14 101.332 157.482C100.316 158.163 98.7737 158.794 96.948 159.164C95.1222 159.533 93.4562 159.551 92.2553 159.319C91.6521 159.203 91.2207 159.034 90.9503 158.86C90.6838 158.688 90.6499 158.566 90.6444 158.539C90.639 158.512 90.6228 158.386 90.8015 158.125C90.9829 157.859 91.3145 157.535 91.8248 157.193C92.8409 156.512 94.3828 155.881 96.2085 155.511C98.0343 155.142 99.7003 155.124 100.901 155.356C101.504 155.472 101.936 155.641 102.206 155.816C102.473 155.987 102.507 156.109 102.512 156.136Z" fill="#FF5F77" stroke="#163349" stroke-width="2.14079"/>
<path d="M100.66 182.921L96.0045 159.482L90.5999 159.235L95.5397 181.02L100.66 182.921Z" fill="#163349"/>
<path d="M100.573 208.975L112.44 206.572L116.288 225.577C116.868 228.441 115.016 231.233 112.152 231.812L110.655 232.116C107.791 232.695 105 230.844 104.42 227.98L100.573 208.975Z" fill="#FF5F77" stroke="#163349" stroke-width="2.14079"/>
<path d="M110.898 232.341L105.557 207.933L100.837 208.655L105.253 230.521L110.898 232.341Z" fill="#163349"/>
<path d="M102.544 219.885C104.736 220.154 110.27 220.031 114.867 217.39" stroke="#163349" stroke-width="2.14079"/>
<path d="M112.145 205.113C112.15 205.14 112.166 205.265 111.987 205.527C111.806 205.793 111.474 206.116 110.964 206.458C109.948 207.139 108.406 207.771 106.58 208.14C104.755 208.51 103.089 208.528 101.888 208.296C101.285 208.179 100.853 208.01 100.583 207.836C100.316 207.664 100.282 207.542 100.277 207.515C100.271 207.488 100.255 207.363 100.434 207.101C100.615 206.835 100.947 206.512 101.457 206.17C102.473 205.489 104.015 204.858 105.841 204.488C107.667 204.118 109.333 204.1 110.534 204.332C111.137 204.449 111.568 204.618 111.839 204.792C112.105 204.964 112.139 205.086 112.145 205.113Z" fill="#FF5F77" stroke="#163349" stroke-width="2.14079"/>
<path d="M251.141 233.446L230.404 238.226L231.125 242.946L251.942 238.69L251.141 233.446Z" fill="#163349"/>
<path d="M48.046 130.447L34.0443 115.399C30.3976 111.479 29.0383 105.952 30.4514 100.788L35.3105 83.0322C36.8582 77.3766 41.4723 73.0835 47.2246 71.947L65.2844 68.3788C70.5365 67.3411 75.9516 69.0947 79.5984 73.0142L93.6001 88.063C97.2468 91.9824 98.6061 97.5097 97.193 102.673L92.3339 120.43C90.7862 126.085 86.1721 130.378 80.4198 131.515L62.36 135.083C57.1079 136.121 51.6928 134.367 48.046 130.447Z" fill="#FFF968" stroke="#163349" stroke-width="2.14079"/>
<path d="M45.6504 138.747L31.6487 123.699C28.0019 119.779 26.6427 114.252 28.0558 109.088L32.9148 91.332C34.4625 85.6764 39.0767 81.3833 44.829 80.2468L62.8888 76.6786C68.1409 75.6409 73.5559 77.3945 77.2027 81.314L91.2044 96.3628C94.8512 100.282 96.2104 105.81 94.7973 110.973L89.9382 128.729C88.3905 134.385 83.7764 138.678 78.0241 139.815L59.9643 143.383C54.7122 144.42 49.2971 142.667 45.6504 138.747Z" fill="#FFF968" stroke="#163349" stroke-width="2.14079"/>
<path d="M50.9322 131.375L39.8869 119.503C37.5724 117.016 36.7055 113.51 37.5938 110.23L41.4081 96.1484C42.3884 92.5291 45.3411 89.7818 49.0216 89.0646L63.3418 86.274C66.6768 85.6241 70.1111 86.7412 72.4255 89.2287L83.4708 101.1C85.7853 103.588 86.6522 107.093 85.7639 110.373L81.9496 124.455C80.9693 128.074 78.0166 130.822 74.3361 131.539L60.0159 134.329C56.6809 134.979 53.2467 133.862 50.9322 131.375Z" stroke="#163349" stroke-width="2.14079"/>
<path d="M45.9192 119.462L59.2595 133.8L54.025 133.611L36.8694 115.172L44.0186 91.3204L48.3193 88.3306L42.9946 107.453C41.8142 111.692 42.9218 116.24 45.9192 119.462Z" fill="#163349"/>
<path d="M83.9514 88.5671C92.4283 97.6779 95.0945 104.168 95.368 106.275L98.1928 100.611L96.8677 93.7497L87.3939 80.3052C86.6331 82.0248 84.8795 86.0847 83.9514 88.5671Z" fill="#163349"/>
<path d="M195.329 59.6188L198.205 44.088C198.955 40.043 197.558 35.8983 194.513 33.1321L184.042 23.6205C180.707 20.5909 175.945 19.7089 171.746 21.3431L158.564 26.4739C154.73 27.966 151.941 31.3354 151.192 35.3804L148.316 50.9112C147.566 54.9562 148.963 59.1009 152.008 61.8671L162.479 71.3787C165.814 74.4083 170.576 75.2903 174.775 73.6561L187.957 68.5253C191.791 67.0332 194.58 63.6638 195.329 59.6188Z" fill="#FFF968" stroke="#163349" stroke-width="2.14079"/>
<path d="M200.304 64.0133L203.181 48.4825C203.93 44.4375 202.533 40.2928 199.488 37.5267L189.017 28.015C185.682 24.9855 180.92 24.1035 176.721 25.7377L163.539 30.8684C159.705 32.3605 156.916 35.7299 156.167 39.775L153.291 55.3058C152.542 59.3508 153.939 63.4955 156.984 66.2616L167.454 75.7732C170.789 78.8028 175.551 79.6848 179.75 78.0506L192.932 72.9199C196.766 71.4278 199.555 68.0584 200.304 64.0133Z" fill="#FFF968" stroke="#163349" stroke-width="2.14079"/>
<path d="M193.84 61.4097L196.109 49.1581C196.584 46.5909 195.701 43.9601 193.773 42.1995L185.495 34.6397C183.367 32.6967 180.32 32.1323 177.637 33.1844L167.201 37.2778C164.77 38.2311 163.003 40.3712 162.528 42.9385L160.259 55.19C159.783 57.7572 160.666 60.3881 162.594 62.1486L170.873 69.7084C173 71.6514 176.048 72.2158 178.73 71.1637L189.167 67.0703C191.598 66.117 193.364 63.9769 193.84 61.4097Z" stroke="#163349" stroke-width="2.14079"/>
<path d="M192.18 51.618L189.439 66.4152L192.756 64.1351L196.28 45.1059L181.812 32.5851L177.79 32.4192L189.126 42.6251C191.639 44.8875 192.796 48.2933 192.18 51.618Z" fill="#163349"/>
<path d="M154.781 47.2606C153.039 56.6632 153.986 61.9713 154.677 63.45L150.51 60.9416L148.541 55.9459L149.143 43.3219C150.345 44.1234 153.156 46.0334 154.781 47.2606Z" fill="#163349"/>
<path d="M189.078 286.639L177.681 267.664C174.712 262.722 174.512 256.596 177.152 251.471L186.229 233.847C189.12 228.234 194.938 224.739 201.252 224.824L221.073 225.09C226.838 225.167 232.152 228.222 235.12 233.164L246.518 252.139C249.486 257.081 249.686 263.207 247.046 268.333L237.969 285.956C235.078 291.569 229.26 295.064 222.947 294.979L203.125 294.713C197.36 294.636 192.046 291.581 189.078 286.639Z" fill="#FFF968" stroke="#163349" stroke-width="2.14079"/>
<path d="M184.704 294.849L173.307 275.873C170.339 270.931 170.139 264.805 172.779 259.68L181.855 242.056C184.747 236.443 190.565 232.949 196.878 233.033L216.7 233.3C222.464 233.377 227.779 236.431 230.747 241.373L242.144 260.349C245.112 265.291 245.312 271.417 242.673 276.542L233.596 294.166C230.705 299.779 224.887 303.273 218.573 303.189L198.751 302.923C192.987 302.845 187.673 299.791 184.704 294.849Z" fill="#FFF968" stroke="#163349" stroke-width="2.14079"/>
<path d="M191.912 288.259L182.921 273.29C181.038 270.154 180.906 266.267 182.572 263.01L189.73 249.024C191.569 245.429 195.292 243.193 199.33 243.258L215.038 243.51C218.697 243.568 222.066 245.511 223.95 248.647L232.94 263.616C234.824 266.752 234.956 270.639 233.289 273.896L226.132 287.882C224.293 291.477 220.57 293.713 216.532 293.648L200.823 293.396C197.165 293.338 193.796 291.395 191.912 288.259Z" stroke="#163349" stroke-width="2.14079"/>
<path d="M189.286 274.591L200.145 292.67L194.672 291.304L180.708 268.055L192.281 245.126L198.753 242.328L188.881 261.288C186.693 265.491 186.846 270.529 189.286 274.591Z" fill="#163349"/>
<path d="M236.24 250.519C243.14 262.007 244.502 269.439 244.321 271.719L248.559 266.382L248.693 258.858L241.708 242.582C240.524 244.225 237.771 248.111 236.24 250.519Z" fill="#163349"/>
<path d="M222.543 109.55L232.274 99.4754L249.529 107.035L254.085 150.883L245.406 147.961C239.787 146.069 235.288 141.796 233.108 136.282L222.543 109.55Z" fill="#163349"/>
<path d="M278.327 128.875L291.466 114.323C294.888 110.533 296.106 105.242 294.684 100.337L289.797 83.4721C288.24 78.1003 283.778 74.0716 278.276 73.0697L261.001 69.9241C255.977 69.0093 250.838 70.759 247.416 74.5491L234.276 89.1011C230.854 92.8912 229.637 98.1821 231.058 103.087L235.945 119.952C237.502 125.324 241.964 129.352 247.466 130.354L264.741 133.5C269.765 134.415 274.905 132.665 278.327 128.875Z" fill="#FFF968" stroke="#163349" stroke-width="2.14079"/>
<path d="M280.73 136.757L293.869 122.205C297.291 118.415 298.508 113.124 297.087 108.219L292.2 91.3539C290.643 85.9821 286.181 81.9534 280.679 80.9515L263.404 77.8059C258.38 76.8911 253.24 78.6408 249.818 82.4309L236.679 96.9829C233.257 100.773 232.039 106.064 233.461 110.969L238.348 127.834C239.905 133.206 244.367 137.234 249.869 138.236L267.144 141.382C272.168 142.297 277.307 140.547 280.73 136.757Z" fill="#FFF968" stroke="#163349" stroke-width="2.14079"/>
<path d="M275.587 129.8L285.952 118.321C288.124 115.915 288.901 112.559 288.007 109.444L284.169 96.0681C283.182 92.6302 280.327 90.0522 276.806 89.4206L263.109 86.9633C259.919 86.391 256.66 87.5054 254.488 89.9108L244.123 101.39C241.951 103.796 241.174 107.152 242.068 110.267L245.906 123.643C246.893 127.081 249.748 129.659 253.269 130.29L266.966 132.748C270.156 133.32 273.415 132.206 275.587 129.8Z" stroke="#163349" stroke-width="2.14079"/>
<path d="M280.199 118.367L267.68 132.232L272.67 131.977L288.769 114.147L281.61 91.501L277.466 88.7109L282.817 106.873C284.003 110.899 283.011 115.252 280.199 118.367Z" fill="#163349"/>
<path d="M243.486 89.444C235.531 98.2541 233.081 104.482 232.85 106.495L230.075 101.134L231.241 94.571L240.085 81.6135C240.835 83.2427 242.565 87.0898 243.486 89.444Z" fill="#163349"/>
</svg>
