<svg width="345" height="296" viewBox="0 0 345 296" fill="none" xmlns="http://www.w3.org/2000/svg">
<path d="M113.398 273.284L109.544 255.089L130.681 252.931L141.17 251.328L142.613 260.768L133.487 271.286C124.677 272.633 116.424 273.179 113.398 273.284Z" fill="#FFFEEB"/>
<path d="M133.487 271.286C124.677 272.633 116.424 273.179 113.398 273.284L109.544 255.089L130.681 252.931M133.487 271.286C132.718 266.252 131.296 256.952 130.681 252.931M133.487 271.286L142.613 260.768L141.17 251.328L130.681 252.931" stroke="#163349" stroke-width="2.14079"/>
<path d="M113.398 273.283L60.7908 325.869" stroke="#163349" stroke-width="2.14079" stroke-dasharray="4.03 4.03"/>
<path d="M252.898 251.962L318.811 286.432" stroke="#163349" stroke-width="2.14079" stroke-dasharray="4.03 4.03"/>
<path d="M131.73 252.77L109.988 254.483L110.95 260.777L132.692 259.063L131.73 252.77Z" fill="#163349"/>
<path d="M130.682 252.932L133.487 271.287L142.613 260.768L141.17 251.328L130.682 252.932Z" fill="#163349"/>
<path d="M252.897 251.962L251.141 233.446L230.324 237.701L219.835 239.305L221.278 248.744L233.129 256.057C241.94 254.71 249.979 252.766 252.897 251.962Z" fill="#FFFEEB"/>
<path d="M233.129 256.057C241.94 254.71 249.979 252.766 252.897 251.962L251.141 233.446L230.324 237.701M233.129 256.057C232.36 251.022 230.938 241.722 230.324 237.701M233.129 256.057L221.278 248.744L219.835 239.305L230.324 237.701" stroke="#163349" stroke-width="2.14079"/>
<path d="M230.323 237.701L233.129 256.056L221.277 248.744L219.835 239.304L230.323 237.701Z" fill="#163349"/>
<path d="M100.993 255.322L76.4671 133.487L110.298 102.019C153.773 91.5093 193.093 87.7535 207.318 87.1892L249.005 107.115L261.993 230.713C193.73 247.588 126.217 254.15 100.993 255.322Z" fill="#FFFEEB"/>
<path d="M76.4671 133.487L100.993 255.322C126.217 254.15 193.73 247.588 261.993 230.713L249.005 107.115M76.4671 133.487C149.409 116.327 221.885 108.756 249.005 107.115M76.4671 133.487L110.298 102.019C153.773 91.5093 193.093 87.7535 207.318 87.1892L249.005 107.115" stroke="#163349" stroke-width="2.14079"/>
<path d="M169.586 98.6061L158.305 93.0716C176.573 88.9914 195.795 87.878 203.123 87.8314L198.218 94.9214C196.601 97.2592 193.98 98.7024 191.14 98.8189L173.947 99.5245C172.44 99.5864 170.94 99.2707 169.586 98.6061Z" fill="#163349"/>
<path d="M94.2929 137.88L79.3591 145.389L77.5956 133.851L99.9627 111.648L104.909 126.456L102.279 130.629C100.326 133.727 97.565 136.234 94.2929 137.88Z" fill="#163349"/>
<path d="M112.908 238.475L95.3695 148.309C140.942 137.48 209.105 129.315 232.77 127.308L242.967 218.596C197.394 229.425 136.573 236.468 112.908 238.475Z" fill="#FFFEEB" stroke="#163349" stroke-width="2.14079"/>
<path d="M201.238 222.763L194.299 244.281C221.989 240.049 239.239 236.339 245.897 234.248L237.384 221.267C235.709 218.714 232.86 217.176 229.807 217.177L208.899 217.183C205.405 217.184 202.311 219.438 201.238 222.763Z" fill="#163349"/>
<path d="M210.67 139.824L222.463 145.787C224.972 157.77 228.921 186.711 229.487 210.173L219.341 212.522L208.659 206.889L207.42 197.074L212.027 196.493C211.31 187.229 209.537 169.978 206.514 154.309L201.663 151.431L200.363 141.124L210.67 139.824Z" fill="#FFFEEB"/>
<path d="M200.363 141.124L212.156 147.087M200.363 141.124L210.67 139.824L222.463 145.787M200.363 141.124L201.663 151.431L206.514 154.309C209.537 169.978 211.31 187.229 212.027 196.493M212.156 147.087L222.463 145.787M212.156 147.087C214.665 159.07 218.775 189.06 219.341 212.522M222.463 145.787C224.972 157.77 228.921 186.711 229.487 210.173L219.341 212.522M219.341 212.522L208.659 206.889L207.42 197.074M207.42 197.074L212.271 199.952C212.211 198.981 212.13 197.819 212.027 196.493M207.42 197.074L212.027 196.493" stroke="#163349" stroke-width="2.14079"/>
<path d="M207.628 163.143L200.743 152.045L206.451 153.818L207.628 163.143Z" fill="#163349"/>
<path d="M211.108 147.248L200.363 141.124L210.67 139.824L221.414 145.948L211.108 147.248Z" fill="#163349"/>
<path d="M212.27 199.952L207.42 197.073L212.027 196.492C212.129 197.818 212.21 198.981 212.27 199.952Z" fill="#163349"/>
<mask id="path-21-inside-1_1615_19874" fill="white">
<path fill-rule="evenodd" clip-rule="evenodd" d="M163.107 215.774C185.988 212.276 201.702 190.892 198.204 168.011C194.707 145.13 173.323 129.416 150.442 132.914C127.561 136.411 111.847 157.795 115.344 180.676C118.842 203.557 140.226 219.271 163.107 215.774ZM161.183 203.187C177.113 200.752 188.053 185.864 185.618 169.935C183.183 154.005 168.295 143.065 152.365 145.5C136.435 147.934 125.496 162.822 127.93 178.752C130.365 194.682 145.253 205.622 161.183 203.187Z"/>
</mask>
<path fill-rule="evenodd" clip-rule="evenodd" d="M163.107 215.774C185.988 212.276 201.702 190.892 198.204 168.011C194.707 145.13 173.323 129.416 150.442 132.914C127.561 136.411 111.847 157.795 115.344 180.676C118.842 203.557 140.226 219.271 163.107 215.774ZM161.183 203.187C177.113 200.752 188.053 185.864 185.618 169.935C183.183 154.005 168.295 143.065 152.365 145.5C136.435 147.934 125.496 162.822 127.93 178.752C130.365 194.682 145.253 205.622 161.183 203.187Z" fill="#60D2B3"/>
<path d="M196.088 168.335C199.407 190.047 184.496 210.339 162.783 213.657L163.43 217.89C187.48 214.214 203.996 191.738 200.321 167.688L196.088 168.335ZM150.765 135.03C172.478 131.711 192.769 146.622 196.088 168.335L200.321 167.688C196.645 143.638 174.168 127.121 150.118 130.797L150.765 135.03ZM117.46 180.353C114.142 158.64 129.053 138.349 150.765 135.03L150.118 130.797C126.068 134.473 109.552 156.95 113.228 181L117.46 180.353ZM162.783 213.657C141.071 216.976 120.779 202.065 117.46 180.353L113.228 181C116.904 205.049 139.38 221.566 163.43 217.89L162.783 213.657ZM183.502 170.258C185.758 185.019 175.62 198.814 160.859 201.071L161.506 205.303C178.605 202.69 190.347 186.71 187.734 169.611L183.502 170.258ZM152.689 147.616C167.45 145.36 181.245 155.497 183.502 170.258L187.734 169.611C185.12 152.512 169.141 140.77 152.042 143.383L152.689 147.616ZM130.047 178.428C127.79 163.667 137.928 149.872 152.689 147.616L152.042 143.383C134.943 145.997 123.201 161.977 125.814 179.075L130.047 178.428ZM160.859 201.071C146.098 203.327 132.303 193.19 130.047 178.428L125.814 179.075C128.428 196.174 144.408 207.917 161.506 205.303L160.859 201.071Z" fill="#163349" mask="url(#path-21-inside-1_1615_19874)"/>
<path fill-rule="evenodd" clip-rule="evenodd" d="M162.917 203.996C180.874 201.251 193.278 184.938 190.622 167.56C187.966 150.182 171.255 138.32 153.298 141.064C135.341 143.809 122.936 160.122 125.593 177.5C128.249 194.878 144.96 206.741 162.917 203.996ZM161.183 203.188C177.113 200.753 188.053 185.865 185.618 169.935C183.183 154.005 168.296 143.066 152.366 145.5C136.436 147.935 125.496 162.823 127.931 178.753C130.365 194.683 145.253 205.623 161.183 203.188Z" fill="#163349"/>
<path d="M153.835 179.633L161.159 178.513L164.925 203.152C165.234 205.175 163.845 207.065 161.823 207.374C159.8 207.683 157.91 206.294 157.601 204.272L153.835 179.633Z" fill="#60D2B3" stroke="#163349" stroke-width="2.14079"/>
<path d="M161.22 206.939L157.292 181.242L154.065 181.198L157.673 204.798L161.22 206.939Z" fill="#163349"/>
<path d="M127.888 166.188L150.288 178.111L153.721 171.546L131.369 159.648C129.554 158.682 127.299 159.379 126.346 161.201C125.403 163.005 126.091 165.232 127.888 166.188Z" fill="#60D2B3" stroke="#163349" stroke-width="2.14079"/>
<path d="M126.579 161.882L149.883 174.326L148.878 177.393L127.454 165.932L126.579 161.882Z" fill="#163349"/>
<path d="M181.391 158.362L163.576 176.432L158.338 171.192L176.115 153.161C177.559 151.697 179.919 151.688 181.373 153.143C182.812 154.582 182.82 156.913 181.391 158.362Z" fill="#60D2B3" stroke="#163349" stroke-width="2.14079"/>
<path d="M181.355 153.862L162.832 172.699L164.707 175.325L181.729 157.988L181.355 153.862Z" fill="#163349"/>
<circle cx="157.094" cy="176.442" r="9.00951" transform="rotate(-8.69031 157.094 176.442)" fill="#60D2B3" stroke="#163349" stroke-width="2.14079"/>
<path fill-rule="evenodd" clip-rule="evenodd" d="M166.636 173.187C166.467 176.951 163.664 180.197 159.797 180.788C155.395 181.46 151.281 178.437 150.608 174.035C150.228 171.552 151.024 169.161 152.58 167.427C148.774 169.332 146.453 173.532 147.13 177.965C147.971 183.468 153.114 187.248 158.617 186.407C164.121 185.565 167.9 180.422 167.059 174.919C166.967 174.32 166.824 173.741 166.636 173.187Z" fill="#163349"/>
<path fill-rule="evenodd" clip-rule="evenodd" d="M197.932 166.433C200.409 188.136 185.292 208.089 163.514 211.418C141.212 214.827 120.369 199.511 116.961 177.209C115.659 168.691 117.088 160.386 120.595 153.184C115.907 161.188 113.833 170.793 115.344 180.677C118.841 203.558 140.225 219.272 163.106 215.774C185.988 212.277 201.701 190.893 198.204 168.012C198.123 167.482 198.032 166.955 197.932 166.433Z" fill="#163349"/>
<path d="M90.9392 160L102.807 157.597L106.655 176.602C107.234 179.466 105.383 182.258 102.519 182.837L101.022 183.14C98.1582 183.72 95.3667 181.869 94.7869 179.005L90.9392 160Z" fill="#FF5F77" stroke="#163349" stroke-width="2.14079"/>
<path d="M92.9111 170.908C95.1035 171.177 100.637 171.054 105.234 168.413" stroke="#163349" stroke-width="2.14079"/>
<path d="M102.513 156.137C102.518 156.164 102.534 156.29 102.355 156.552C102.174 156.817 101.842 157.141 101.332 157.483C100.316 158.164 98.7742 158.795 96.9484 159.165C95.1227 159.534 93.4567 159.552 92.2557 159.32C91.6526 159.204 91.2212 159.035 90.9508 158.861C90.6843 158.689 90.6504 158.567 90.6449 158.54C90.6394 158.513 90.6232 158.387 90.802 158.126C90.9834 157.86 91.3149 157.536 91.8253 157.194C92.8414 156.513 94.3832 155.882 96.209 155.512C98.0347 155.143 99.7008 155.125 100.902 155.357C101.505 155.473 101.936 155.642 102.207 155.817C102.473 155.988 102.507 156.11 102.513 156.137Z" fill="#FF5F77" stroke="#163349" stroke-width="2.14079"/>
<path d="M100.659 182.922L96.0033 159.483L90.5986 159.235L95.5385 181.021L100.659 182.922Z" fill="#163349"/>
<path d="M100.573 208.975L112.441 206.573L116.288 225.578C116.868 228.442 115.017 231.233 112.153 231.813L110.656 232.116C107.792 232.696 105 230.844 104.421 227.981L100.573 208.975Z" fill="#FF5F77" stroke="#163349" stroke-width="2.14079"/>
<path d="M110.897 232.342L105.556 207.934L100.836 208.655L105.251 230.521L110.897 232.342Z" fill="#163349"/>
<path d="M102.543 219.884C104.735 220.153 110.269 220.03 114.866 217.389" stroke="#163349" stroke-width="2.14079"/>
<path d="M112.144 205.113C112.15 205.14 112.166 205.265 111.987 205.527C111.806 205.793 111.474 206.116 110.964 206.458C109.948 207.139 108.406 207.771 106.58 208.14C104.755 208.51 103.088 208.528 101.888 208.296C101.284 208.179 100.853 208.01 100.583 207.836C100.316 207.664 100.282 207.542 100.277 207.515C100.271 207.488 100.255 207.363 100.434 207.101C100.615 206.835 100.947 206.512 101.457 206.17C102.473 205.489 104.015 204.858 105.841 204.488C107.667 204.118 109.333 204.1 110.534 204.332C111.137 204.449 111.568 204.618 111.839 204.792C112.105 204.964 112.139 205.086 112.144 205.113Z" fill="#FF5F77" stroke="#163349" stroke-width="2.14079"/>
<path d="M251.14 233.446L230.404 238.226L231.125 242.946L251.942 238.69L251.14 233.446Z" fill="#163349"/>
<path d="M48.0462 130.448L34.0445 115.4C30.3977 111.48 29.0385 105.953 30.4516 100.789L35.3107 83.0332C36.8583 77.3776 41.4725 73.0845 47.2248 71.948L65.2846 68.3798C70.5367 67.3421 75.9518 69.0957 79.5985 73.0152L93.6002 88.0639C97.247 91.9834 98.6062 97.5107 97.1931 102.674L92.334 120.431C90.7864 126.086 86.1722 130.379 80.4199 131.516L62.3601 135.084C57.108 136.122 51.6929 134.368 48.0462 130.448Z" fill="#8C62F2" stroke="#163349" stroke-width="2.14079"/>
<path d="M45.6507 138.748L31.649 123.7C28.0022 119.78 26.643 114.253 28.0561 109.089L32.9151 91.333C34.4628 85.6774 39.077 81.3843 44.8293 80.2478L62.8891 76.6796C68.1412 75.6419 73.5562 77.3955 77.203 81.315L91.2047 96.3638C94.8515 100.283 96.2107 105.811 94.7976 110.974L89.9385 128.73C88.3908 134.386 83.7767 138.679 78.0244 139.815L59.9646 143.384C54.7125 144.421 49.2974 142.668 45.6507 138.748Z" fill="#8C62F2" stroke="#163349" stroke-width="2.14079"/>
<path d="M50.9323 131.375L39.887 119.504C37.5725 117.016 36.7055 113.511 37.5939 110.231L41.4081 96.1489C42.3885 92.5296 45.3412 89.7823 49.0217 89.0651L63.3418 86.2745C66.6768 85.6246 70.1111 86.7417 72.4256 89.2292L83.4709 101.1C85.7853 103.588 86.6523 107.094 85.764 110.373L81.9497 124.455C80.9693 128.075 78.0167 130.822 74.3361 131.539L60.016 134.33C56.681 134.98 53.2467 133.863 50.9323 131.375Z" stroke="#163349" stroke-width="2.14079"/>
<path d="M45.9206 119.463L59.2609 133.801L54.0264 133.612L36.8708 115.173L44.02 91.3214L48.3207 88.3316L42.996 107.454C41.8156 111.693 42.9232 116.241 45.9206 119.463Z" fill="#163349"/>
<path d="M83.9512 88.5676C92.4281 97.6784 95.0944 104.169 95.3679 106.275L98.1926 100.612L96.8675 93.7502L87.3938 80.3057C86.6329 82.0253 84.8793 86.0852 83.9512 88.5676Z" fill="#163349"/>
<path d="M195.329 59.6173L198.205 44.0865C198.954 40.0415 197.557 35.8968 194.512 33.1307L184.042 23.619C180.707 20.5895 175.945 19.7075 171.746 21.3417L158.564 26.4724C154.73 27.9645 151.941 31.3339 151.192 35.379L148.315 50.9098C147.566 54.9548 148.963 59.0995 152.008 61.8656L162.479 71.3772C165.814 74.4068 170.576 75.2888 174.774 73.6546L187.957 68.5239C191.791 67.0318 194.579 63.6624 195.329 59.6173Z" fill="#8C62F2" stroke="#163349" stroke-width="2.14079"/>
<path d="M200.304 64.0128L203.181 48.482C203.93 44.437 202.533 40.2923 199.488 37.5262L189.017 28.0146C185.682 24.985 180.92 24.103 176.722 25.7372L163.539 30.8679C159.705 32.36 156.917 35.7294 156.167 39.7745L153.291 55.3053C152.542 59.3503 153.939 63.495 156.984 66.2611L167.454 75.7727C170.789 78.8023 175.551 79.6843 179.75 78.0501L192.933 72.9194C196.766 71.4273 199.555 68.0579 200.304 64.0128Z" fill="#8C62F2" stroke="#163349" stroke-width="2.14079"/>
<path d="M193.84 61.4092L196.109 49.1577C196.584 46.5904 195.701 43.9596 193.773 42.199L185.495 34.6392C183.367 32.6962 180.32 32.1318 177.637 33.1839L167.2 37.2773C164.77 38.2306 163.003 40.3707 162.528 42.938L160.259 55.1895C159.783 57.7567 160.666 60.3876 162.594 62.1481L170.873 69.7079C173 71.6509 176.048 72.2153 178.73 71.1632L189.167 67.0698C191.597 66.1165 193.364 63.9764 193.84 61.4092Z" stroke="#163349" stroke-width="2.14079"/>
<path d="M192.179 51.6166L189.439 66.4137L192.755 64.1336L196.28 45.1044L181.811 32.5837L177.79 32.4177L189.126 42.6237C191.639 44.8861 192.795 48.2919 192.179 51.6166Z" fill="#163349"/>
<path d="M154.781 47.2606C153.039 56.6632 153.986 61.9713 154.677 63.45L150.51 60.9416L148.541 55.9459L149.143 43.3219C150.345 44.1234 153.156 46.0334 154.781 47.2606Z" fill="#163349"/>
<path d="M189.078 286.638L177.681 267.663C174.712 262.721 174.512 256.595 177.152 251.47L186.229 233.846C189.12 228.233 194.938 224.738 201.252 224.823L221.073 225.089C226.838 225.166 232.152 228.221 235.12 233.163L246.517 252.138C249.486 257.08 249.686 263.206 247.046 268.332L237.969 285.955C235.078 291.568 229.26 295.063 222.947 294.978L203.125 294.712C197.36 294.635 192.046 291.58 189.078 286.638Z" fill="#8C62F2" stroke="#163349" stroke-width="2.14079"/>
<path d="M184.704 294.848L173.307 275.873C170.338 270.931 170.138 264.805 172.778 259.68L181.855 242.056C184.746 236.443 190.564 232.948 196.878 233.033L216.699 233.299C222.464 233.376 227.778 236.431 230.746 241.373L242.143 260.348C245.112 265.29 245.312 271.416 242.672 276.542L233.595 294.165C230.704 299.778 224.886 303.273 218.573 303.188L198.751 302.922C192.986 302.845 187.672 299.79 184.704 294.848Z" fill="#8C62F2" stroke="#163349" stroke-width="2.14079"/>
<path d="M191.911 288.258L182.921 273.289C181.037 270.153 180.905 266.266 182.572 263.009L189.729 249.023C191.569 245.428 195.292 243.192 199.329 243.257L215.038 243.509C218.696 243.567 222.065 245.51 223.949 248.646L232.94 263.615C234.824 266.751 234.956 270.638 233.289 273.895L226.132 287.881C224.292 291.476 220.569 293.712 216.532 293.647L200.823 293.395C197.164 293.337 193.795 291.394 191.911 288.258Z" stroke="#163349" stroke-width="2.14079"/>
<path d="M189.286 274.592L200.145 292.67L194.672 291.305L180.708 268.056L192.281 245.126L198.753 242.329L188.881 261.289C186.693 265.491 186.846 270.53 189.286 274.592Z" fill="#163349"/>
<path d="M236.239 250.52C243.139 262.008 244.502 269.44 244.32 271.72L248.558 266.383L248.692 258.859L241.707 242.583C240.523 244.225 237.77 248.111 236.239 250.52Z" fill="#163349"/>
<path d="M222.542 109.55L232.273 99.4759L249.529 107.035L254.084 150.884L245.405 147.961C239.786 146.069 235.287 141.796 233.108 136.283L222.542 109.55Z" fill="#163349"/>
<path d="M278.326 128.874L291.466 114.322C294.888 110.532 296.105 105.241 294.684 100.336L289.797 83.4711C288.24 78.0993 283.778 74.0706 278.276 73.0687L261.001 69.9231C255.977 69.0083 250.837 70.758 247.415 74.5481L234.276 89.1001C230.854 92.8902 229.636 98.1811 231.058 103.086L235.945 119.951C237.502 125.323 241.964 129.351 247.466 130.353L264.741 133.499C269.765 134.414 274.904 132.664 278.326 128.874Z" fill="#8C62F2" stroke="#163349" stroke-width="2.14079"/>
<path d="M280.73 136.756L293.869 122.204C297.291 118.414 298.509 113.123 297.087 108.218L292.2 91.3529C290.643 85.9811 286.181 81.9524 280.679 80.9505L263.404 77.8049C258.38 76.8901 253.241 78.6398 249.819 82.4299L236.679 96.982C233.257 100.772 232.04 106.063 233.461 110.968L238.348 127.833C239.905 133.205 244.367 137.233 249.869 138.235L267.144 141.381C272.168 142.296 277.308 140.546 280.73 136.756Z" fill="#8C62F2" stroke="#163349" stroke-width="2.14079"/>
<path d="M275.588 129.8L285.953 118.321C288.125 115.915 288.902 112.559 288.008 109.444L284.169 96.0681C283.183 92.6302 280.327 90.0522 276.807 89.4206L263.11 86.9633C259.92 86.391 256.66 87.5054 254.488 89.9108L244.124 101.39C241.952 103.796 241.175 107.152 242.069 110.267L245.907 123.643C246.894 127.081 249.749 129.659 253.27 130.29L266.967 132.748C270.157 133.32 273.416 132.206 275.588 129.8Z" stroke="#163349" stroke-width="2.14079"/>
<path d="M280.199 118.367L267.68 132.232L272.67 131.977L288.769 114.147L281.61 91.501L277.466 88.7109L282.817 106.873C284.003 110.899 283.012 115.252 280.199 118.367Z" fill="#163349"/>
<path d="M243.486 89.445C235.531 98.2551 233.081 104.483 232.85 106.496L230.075 101.135L231.241 94.572L240.085 81.6145C240.835 83.2437 242.566 87.0907 243.486 89.445Z" fill="#163349"/>
</svg>
