<svg width="347" height="330" viewBox="0 0 347 330" fill="none" xmlns="http://www.w3.org/2000/svg">
<path d="M120.229 264.091L117.418 250.824L138.556 248.666L149.044 247.063L149.788 251.931C150.232 254.831 149.379 257.78 147.456 259.996L143.529 264.522C142.129 266.136 140.203 267.207 138.086 267.49C133.634 268.087 129.488 268.48 126.297 268.721C123.393 268.941 120.832 266.941 120.229 264.091Z" fill="#E9F5FE" stroke="#0E2230"/>
<path d="M121.273 269.018L57.6651 331.604" stroke="#0E2230" stroke-dasharray="4.03 4.03"/>
<path d="M260.772 247.696L346.685 292.166" stroke="#0E2230" stroke-dasharray="4.03 4.03"/>
<path d="M139.603 248.506L117.861 250.219L118.823 256.512L140.565 254.799L139.603 248.506Z" fill="#0E2230"/>
<path d="M138.555 248.666L141.36 267.021L150.486 256.503L149.043 247.063L138.555 248.666Z" fill="#0E2230"/>
<path d="M260.295 242.682L259.014 229.181L238.197 233.436L227.708 235.039L229.151 244.479L241.002 251.791C246.668 250.925 252.015 249.812 255.886 248.914C258.724 248.256 260.57 245.582 260.295 242.682Z" fill="#E9F5FE"/>
<path d="M241.002 251.791C246.668 250.925 252.015 249.812 255.886 248.914C258.724 248.256 260.57 245.582 260.295 242.682L259.014 229.181L238.197 233.436M241.002 251.791C240.233 246.757 238.811 237.457 238.197 233.436M241.002 251.791L229.151 244.479L227.708 235.039L238.197 233.436" stroke="#0E2230"/>
<path d="M238.197 233.436L241.003 251.791L229.152 244.479L227.709 235.039L238.197 233.436Z" fill="#0E2230"/>
<path d="M107.174 242.643L84.3421 129.222L112.423 103.102C116.193 99.5957 120.8 97.1012 125.822 95.9632C158.557 88.5447 188.156 84.934 205.321 83.5499C211.806 83.027 218.261 84.3908 224.13 87.1964L256.88 102.85L268.958 217.786C269.48 222.751 266.258 227.348 261.398 228.492C202.738 242.292 145.909 248.6 117.424 250.555C112.498 250.894 108.148 247.483 107.174 242.643Z" fill="#E9F5FE"/>
<path d="M84.3421 129.222L107.174 242.643C108.148 247.483 112.498 250.894 117.424 250.555C145.909 248.6 202.738 242.292 261.398 228.492C266.258 227.348 269.48 222.751 268.958 217.786L256.88 102.85M84.3421 129.222C157.284 112.062 229.76 104.491 256.88 102.85M84.3421 129.222L112.423 103.102C116.193 99.5957 120.8 97.1012 125.822 95.9632C158.557 88.5447 188.156 84.934 205.321 83.5499C211.806 83.027 218.261 84.3908 224.13 87.1964L256.88 102.85" stroke="#0E2230"/>
<path d="M177.46 94.3403L166.179 88.8059C184.447 84.7256 203.669 83.6123 210.997 83.5657L206.092 90.6557C204.475 92.9935 201.854 94.4367 199.014 94.5532L181.821 95.2588C180.314 95.3207 178.814 95.005 177.46 94.3403Z" fill="#0E2230"/>
<path d="M102.167 133.615L87.2331 141.124L85.4696 129.586L107.837 107.384L112.783 122.191L110.153 126.364C108.2 129.463 105.439 131.969 102.167 133.615Z" fill="#0E2230"/>
<path d="M118.895 224.514L105.258 154.405C104.132 148.615 107.762 142.961 113.529 141.722C152.523 133.343 202.961 126.85 229.986 124.059C235.916 123.446 241.171 127.763 241.832 133.687L249.759 204.657C250.376 210.18 246.783 215.304 241.353 216.485C202.752 224.88 156.402 230.707 130.598 233.293C125.008 233.853 119.968 230.029 118.895 224.514Z" fill="#E9F5FE" stroke="#0E2230"/>
<path d="M209.111 218.498L202.172 240.016C229.862 235.783 247.113 232.073 253.77 229.982L245.257 217.002C243.582 214.448 240.734 212.91 237.68 212.911L216.772 212.918C213.278 212.919 210.184 215.173 209.111 218.498Z" fill="#0E2230"/>
<path d="M218.543 135.559L230.336 141.522C232.845 153.504 236.794 182.446 237.36 205.908L227.214 208.257L216.532 202.624L215.293 192.808L219.9 192.227C219.183 182.964 217.41 165.713 214.387 150.044L209.536 147.165L208.236 136.859L218.543 135.559Z" fill="#53ACEC"/>
<path d="M208.236 136.859L220.029 142.822M208.236 136.859L218.543 135.559L230.336 141.522M208.236 136.859L209.536 147.165L214.387 150.044C217.41 165.713 219.183 182.964 219.9 192.227M220.029 142.822L230.336 141.522M220.029 142.822C222.538 154.804 226.648 184.795 227.214 208.257M230.336 141.522C232.845 153.504 236.794 182.446 237.36 205.908L227.214 208.257M227.214 208.257L216.532 202.624L215.293 192.808M215.293 192.808L220.144 195.687C220.084 194.716 220.003 193.554 219.9 192.227M215.293 192.808L219.9 192.227" stroke="#0E2230"/>
<path d="M215.502 158.878L209 147.5L214.325 149.553L215.502 158.878Z" fill="#0E2230"/>
<path d="M218.981 142.982L208.236 136.859L218.543 135.559L229.287 141.682L218.981 142.982Z" fill="#0E2230"/>
<path d="M220.145 195.687L215.295 192.808L219.902 192.227C220.004 193.554 220.085 194.716 220.145 195.687Z" fill="#0E2230"/>
<mask id="path-20-inside-1_2736_91216" fill="white">
<path fill-rule="evenodd" clip-rule="evenodd" d="M170.982 211.509C193.863 208.012 209.577 186.628 206.079 163.747C202.582 140.865 181.198 125.152 158.317 128.649C135.436 132.146 119.722 153.53 123.219 176.412C126.717 199.293 148.101 215.006 170.982 211.509ZM169.058 198.923C184.988 196.488 195.927 181.6 193.493 165.67C191.058 149.74 176.17 138.801 160.24 141.235C144.31 143.67 133.37 158.558 135.805 174.488C138.24 190.418 153.128 201.358 169.058 198.923Z"/>
</mask>
<path fill-rule="evenodd" clip-rule="evenodd" d="M170.982 211.509C193.863 208.012 209.577 186.628 206.079 163.747C202.582 140.865 181.198 125.152 158.317 128.649C135.436 132.146 119.722 153.53 123.219 176.412C126.717 199.293 148.101 215.006 170.982 211.509ZM169.058 198.923C184.988 196.488 195.927 181.6 193.493 165.67C191.058 149.74 176.17 138.801 160.24 141.235C144.31 143.67 133.37 158.558 135.805 174.488C138.24 190.418 153.128 201.358 169.058 198.923Z" fill="#53ACEC"/>
<path d="M205.091 163.898C208.505 186.233 193.166 207.107 170.831 210.521L171.133 212.498C194.56 208.917 210.649 187.023 207.068 163.595L205.091 163.898ZM158.468 129.638C180.803 126.224 201.677 141.562 205.091 163.898L207.068 163.595C203.487 140.168 181.593 124.08 158.166 127.661L158.468 129.638ZM124.208 176.26C120.794 153.925 136.133 133.051 158.468 129.638L158.166 127.661C134.739 131.241 118.65 153.136 122.231 176.563L124.208 176.26ZM170.831 210.521C148.495 213.934 127.622 198.596 124.208 176.26L122.231 176.563C125.812 199.99 147.706 216.078 171.133 212.498L170.831 210.521ZM192.504 165.821C194.855 181.205 184.29 195.583 168.906 197.934L169.209 199.911C185.685 197.393 196.999 181.995 194.481 165.519L192.504 165.821ZM160.391 142.224C175.775 139.873 190.153 150.438 192.504 165.821L194.481 165.519C191.963 149.043 176.565 137.729 160.089 140.247L160.391 142.224ZM136.794 174.337C134.442 158.953 145.007 144.575 160.391 142.224L160.089 140.247C143.613 142.765 132.298 158.163 134.817 174.639L136.794 174.337ZM168.906 197.934C153.523 200.286 139.145 189.721 136.794 174.337L134.817 174.639C137.335 191.115 152.733 202.43 169.209 199.911L168.906 197.934Z" fill="#0E2230" mask="url(#path-20-inside-1_2736_91216)"/>
<path fill-rule="evenodd" clip-rule="evenodd" d="M170.79 199.731C188.747 196.986 201.151 180.674 198.495 163.295C195.839 145.917 179.128 134.055 161.171 136.799C143.214 139.544 130.81 155.857 133.466 173.235C136.122 190.613 152.833 202.476 170.79 199.731ZM169.056 198.923C184.986 196.488 195.925 181.6 193.491 165.67C191.056 149.74 176.168 138.8 160.238 141.235C144.308 143.67 133.368 158.558 135.803 174.488C138.238 190.418 153.126 201.358 169.056 198.923Z" fill="#0E2230"/>
<path d="M161.06 174.89L169.511 173.598L173.363 198.801C173.72 201.135 172.117 203.316 169.784 203.673C167.45 204.03 165.269 202.427 164.912 200.093L161.06 174.89Z" fill="#53ACEC" stroke="#0E2230"/>
<path d="M169.5 203.5L165.166 176.977L161.5 176.977L165.5 202.5L169.5 203.5Z" fill="#0E2230"/>
<path d="M135.495 162.427L158.402 174.62L162.364 167.045L139.512 154.881C137.417 153.766 134.815 154.57 133.716 156.673C132.627 158.754 133.422 161.324 135.495 162.427Z" fill="#53ACEC" stroke="#0E2230"/>
<path d="M133.499 157L157.756 170.062L156.5 173.5L133.5 161L133.499 157Z" fill="#0E2230"/>
<path d="M189.671 154.497L171.453 172.976L165.408 166.93L183.583 148.495C185.249 146.805 187.973 146.796 189.65 148.474C191.311 150.135 191.32 152.825 189.671 154.497Z" fill="#53ACEC" stroke="#0E2230"/>
<path d="M190.626 148.373L170.707 168.434L173.082 171.06L191.5 152.5L190.626 148.373Z" fill="#0E2230"/>
<circle cx="164.97" cy="172.177" r="9.5799" transform="rotate(-8.69031 164.97 172.177)" fill="#53ACEC" stroke="#0E2230"/>
<path fill-rule="evenodd" clip-rule="evenodd" d="M174.513 168.924C174.343 172.687 171.54 175.931 167.675 176.522C163.272 177.195 159.158 174.172 158.485 169.769C158.105 167.286 158.902 164.894 160.459 163.16C156.651 165.064 154.329 169.265 155.006 173.7C155.848 179.203 160.991 182.982 166.494 182.141C171.997 181.3 175.776 176.157 174.935 170.654C174.843 170.056 174.701 169.478 174.513 168.924Z" fill="#0E2230"/>
<path fill-rule="evenodd" clip-rule="evenodd" d="M205.809 162.171C208.283 183.873 193.167 203.825 171.39 207.153C149.088 210.562 128.245 195.246 124.837 172.944C123.534 164.424 124.965 156.117 128.474 148.913C123.784 156.919 121.708 166.525 123.22 176.412C126.717 199.293 148.101 215.007 170.982 211.509C193.863 208.012 209.577 186.628 206.08 163.747C205.999 163.218 205.908 162.692 205.809 162.171Z" fill="#0E2230"/>
<path d="M98.142 155.288L111.128 152.659L115.089 172.224C115.731 175.396 113.68 178.489 110.507 179.131L109.01 179.434C105.838 180.076 102.745 178.025 102.103 174.853L98.142 155.288Z" fill="#53ACEC" stroke="#0E2230"/>
<path d="M100.787 166.643C102.98 166.912 108.513 166.789 113.11 164.149" stroke="#0E2230"/>
<path d="M110.945 151.759C110.99 151.983 110.934 152.264 110.7 152.608C110.464 152.953 110.07 153.325 109.523 153.691C108.431 154.423 106.815 155.078 104.935 155.458C103.054 155.839 101.311 155.864 100.021 155.615C99.3741 155.49 98.8667 155.301 98.5149 155.075C98.165 154.849 98.0043 154.612 97.9589 154.388C97.9135 154.163 97.9693 153.882 98.2039 153.538C98.4399 153.193 98.8338 152.821 99.3808 152.455C100.473 151.723 102.088 151.068 103.969 150.688C105.849 150.307 107.592 150.282 108.883 150.531C109.529 150.656 110.037 150.845 110.389 151.072C110.738 151.297 110.899 151.534 110.945 151.759Z" fill="#53ACEC" stroke="#0E2230"/>
<path d="M108.5 179.5L103.879 155.217C101.507 155.969 100.443 155.522 98.4746 154.97L102 176.5C104.311 178.551 105.608 179.702 108.5 179.5Z" fill="#0E2230"/>
<path d="M107.777 204.264L120.763 201.635L124.723 221.199C125.366 224.372 123.314 227.464 120.142 228.107L118.645 228.41C115.472 229.052 112.38 227.001 111.738 223.828L107.777 204.264Z" fill="#53ACEC" stroke="#0E2230"/>
<path d="M118.774 228.076L113.433 203.668L108 204.5L112 226C115.103 228.555 116.456 228.514 118.774 228.076Z" fill="#0E2230"/>
<path d="M110.422 215.619C112.614 215.888 118.148 215.765 122.745 213.124" stroke="#0E2230"/>
<path d="M120.579 200.734C120.625 200.958 120.569 201.24 120.334 201.583C120.098 201.929 119.705 202.3 119.157 202.667C118.066 203.399 116.45 204.053 114.569 204.434C112.689 204.815 110.946 204.84 109.655 204.591C109.009 204.466 108.501 204.277 108.15 204.05C107.8 203.825 107.639 203.587 107.594 203.363C107.548 203.139 107.604 202.858 107.839 202.514C108.075 202.169 108.469 201.797 109.016 201.431C110.107 200.699 111.723 200.044 113.604 199.664C115.484 199.283 117.227 199.258 118.518 199.507C119.164 199.632 119.672 199.821 120.023 200.047C120.373 200.273 120.534 200.51 120.579 200.734Z" fill="#53ACEC" stroke="#0E2230"/>
<path d="M259.014 229.181L238.278 233.96L238.999 238.68L259.816 234.425L259.014 229.181Z" fill="#0E2230"/>
<path d="M55.9202 126.182L41.9185 111.134C38.2717 107.214 36.9125 101.687 38.3256 96.5232L43.1847 78.7672C44.7324 73.1116 49.3465 68.8185 55.0988 67.682L73.1586 64.1138C78.4107 63.0761 83.8258 64.8297 87.4725 68.7492L101.474 83.798C105.121 87.7174 106.48 93.2447 105.067 98.4085L100.208 116.165C98.6604 121.82 94.0462 126.113 88.2939 127.25L70.2341 130.818C64.9821 131.856 59.567 130.102 55.9202 126.182Z" fill="#3B7CA8" stroke="#0E2230"/>
<path d="M53.5237 134.482L39.522 119.433C35.8752 115.514 34.516 109.987 35.9291 104.823L40.7882 87.0669C42.3359 81.4113 46.95 77.1182 52.7023 75.9817L70.7621 72.4135C76.0142 71.3758 81.4293 73.1294 85.0761 77.0489L99.0778 92.0977C102.725 96.0171 104.084 101.544 102.671 106.708L97.8116 124.464C96.2639 130.12 91.6497 134.413 85.8975 135.549L67.8377 139.118C62.5856 140.155 57.1705 138.402 53.5237 134.482Z" fill="#3B7CA8" stroke="#0E2230"/>
<path d="M58.8053 127.11L47.76 115.238C45.4455 112.751 44.5786 109.245 45.4669 105.965L49.2812 91.8834C50.2615 88.2641 53.2142 85.5168 56.8948 84.7996L71.2149 82.009C74.5499 81.3591 77.9842 82.4762 80.2986 84.9637L91.3439 96.835C93.6584 99.3225 94.5253 102.828 93.637 106.108L89.8227 120.19C88.8424 123.809 85.8897 126.557 82.2092 127.274L67.889 130.064C64.554 130.714 61.1198 129.597 58.8053 127.11Z" stroke="#0E2230"/>
<path d="M53.7872 115.21L67.5 130C65.8492 130.707 64.4253 130.404 61.8975 129.346C58.5002 127 51.3753 120.917 44.7419 110.908L44.7673 110.747C46.3324 100.874 47.2169 95.2937 51.891 87.0556L56 85L50.8861 103.187C49.694 107.427 50.7929 111.981 53.7872 115.21Z" fill="#0E2230"/>
<path d="M91.8245 84.302C100.301 93.4128 102 95.5001 103.5 102.5L106 95L104.5 87.5L95.267 76.0401C94.5062 77.7598 92.7525 81.8197 91.8245 84.302Z" fill="#0E2230"/>
<path d="M203.204 55.3538L206.08 39.8229C206.829 35.7779 205.432 31.6332 202.387 28.8671L191.917 19.3555C188.582 16.3259 183.82 15.4439 179.621 17.0781L166.439 22.2088C162.605 23.7009 159.816 27.0704 159.067 31.1154L156.19 46.6462C155.441 50.6912 156.838 54.8359 159.883 57.602L170.354 67.1137C173.689 70.1432 178.451 71.0252 182.649 69.391L195.832 64.2603C199.666 62.7682 202.454 59.3988 203.204 55.3538Z" fill="#306287" stroke="#0E2230"/>
<path d="M208.178 59.7484L211.055 44.2176C211.804 40.1726 210.407 36.0279 207.362 33.2618L196.891 23.7501C193.556 20.7205 188.794 19.8386 184.596 21.4728L171.413 26.6035C167.579 28.0956 164.791 31.465 164.042 35.51L161.165 51.0408C160.416 55.0859 161.813 59.2306 164.858 61.9967L175.328 71.5083C178.663 74.5379 183.425 75.4199 187.624 73.7857L200.807 68.655C204.64 67.1629 207.429 63.7934 208.178 59.7484Z" fill="#306287" stroke="#0E2230"/>
<path d="M201.714 57.1446L203.983 44.8931C204.458 42.3259 203.575 39.695 201.647 37.9344L193.369 30.3747C191.241 28.4317 188.194 27.8673 185.511 28.9194L175.075 33.0128C172.644 33.9661 170.877 36.1062 170.402 38.6734L168.133 50.9249C167.657 53.4922 168.54 56.123 170.468 57.8836L178.747 65.4433C180.874 67.3863 183.922 67.9507 186.604 66.8987L197.041 62.8053C199.471 61.852 201.238 59.7119 201.714 57.1446Z" stroke="#0E2230"/>
<path d="M199.974 47.4241L197 62.5L200.628 59.8701C202.721 53.7408 203.232 49.1336 204.13 41.0419L204.153 40.8409L192.5 29.5L185.999 28.5L196.93 38.3101C199.48 40.599 200.637 44.0619 199.974 47.4241Z" fill="#0E2230"/>
<path d="M162.654 42.9955C160.912 52.3982 161.859 57.7062 162.55 59.1849L158.383 56.6766L156 50.5001L157.016 39.0568C158.218 39.8584 161.029 41.7683 162.654 42.9955Z" fill="#0E2230"/>
<path d="M196.954 282.374L185.557 263.398C182.588 258.456 182.388 252.33 185.028 247.205L194.105 229.581C196.996 223.968 202.814 220.474 209.128 220.558L228.949 220.825C234.714 220.902 240.028 223.956 242.996 228.898L254.393 247.874C257.362 252.816 257.562 258.942 254.922 264.067L245.845 281.691C242.954 287.304 237.136 290.798 230.823 290.714L211.001 290.448C205.236 290.37 199.922 287.316 196.954 282.374Z" fill="#53ACEC" stroke="#0E2230"/>
<path d="M192.581 290.583L181.184 271.608C178.215 266.666 178.015 260.54 180.655 255.415L189.732 237.791C192.623 232.178 198.441 228.684 204.754 228.768L224.576 229.034C230.341 229.112 235.655 232.166 238.623 237.108L250.02 256.084C252.989 261.026 253.189 267.152 250.549 272.277L241.472 289.9C238.581 295.514 232.763 299.008 226.45 298.924L206.628 298.657C200.863 298.58 195.549 295.526 192.581 290.583Z" fill="#53ACEC" stroke="#0E2230"/>
<path d="M199.789 283.994L190.799 269.025C188.915 265.888 188.783 262.002 190.45 258.745L197.607 244.759C199.446 241.164 203.17 238.928 207.207 238.993L222.916 239.245C226.574 239.303 229.943 241.246 231.827 244.382L240.818 259.351C242.702 262.487 242.834 266.374 241.167 269.631L234.01 283.617C232.17 287.211 228.447 289.448 224.409 289.383L208.701 289.131C205.042 289.072 201.673 287.13 199.789 283.994Z" stroke="#0E2230"/>
<path d="M197.254 270.426L208.5 289L202.548 287.039C197.169 279.573 194.239 277.222 188.583 263.79C192.408 254.445 194.426 250.146 199.5 241.5L206.5 239L196.896 256.945C194.626 261.187 194.762 266.311 197.254 270.426Z" fill="#0E2230"/>
<path d="M244.115 246.254C251.015 257.742 253 261.5 252.5 268L256.434 262.117L256.568 254.593C255.296 249.057 252.835 244.97 249.583 238.317C248.399 239.959 245.646 243.846 244.115 246.254Z" fill="#0E2230"/>
<path d="M230.417 105.285L240.148 95.2105L257.404 102.77L261.959 146.618L253.28 143.696C247.661 141.804 243.162 137.531 240.983 132.017L230.417 105.285Z" fill="#0E2230"/>
<path d="M286.201 124.61L299.341 110.058C302.763 106.268 303.98 100.977 302.559 96.0721L297.672 79.2069C296.115 73.8352 291.653 69.8065 286.151 68.8046L268.876 65.659C263.852 64.7442 258.712 66.4939 255.29 70.284L242.151 84.836C238.729 88.6261 237.511 93.917 238.933 98.8217L243.82 115.687C245.377 121.059 249.839 125.087 255.341 126.089L272.616 129.235C277.64 130.15 282.779 128.4 286.201 124.61Z" fill="#4394CD" stroke="#0E2230"/>
<path d="M288.604 132.491L301.743 117.939C305.165 114.149 306.383 108.858 304.961 103.954L300.074 87.0884C298.517 81.7166 294.055 77.6879 288.553 76.686L271.278 73.5404C266.254 72.6256 261.115 74.3753 257.693 78.1654L244.553 92.7175C241.131 96.5076 239.914 101.798 241.335 106.703L246.222 123.568C247.779 128.94 252.241 132.969 257.743 133.971L275.018 137.116C280.042 138.031 285.182 136.281 288.604 132.491Z" fill="#4394CD" stroke="#0E2230"/>
<path d="M283.462 125.535L293.827 114.056C295.999 111.65 296.776 108.294 295.882 105.179L292.043 91.8032C291.057 88.3653 288.202 85.7873 284.681 85.1557L270.984 82.6984C267.794 82.1261 264.534 83.2404 262.362 85.6459L251.998 97.1253C249.826 99.5307 249.049 102.887 249.943 106.002L253.781 119.378C254.768 122.816 257.623 125.394 261.144 126.025L274.841 128.483C278.031 129.055 281.29 127.941 283.462 125.535Z" stroke="#0E2230"/>
<path d="M288.051 114.106L274.999 128.5L280.544 127.712C287.615 121.159 290.724 117.037 296.643 109.883C294.906 100.96 294.513 96.7539 290.499 88.0001L285.5 85L290.686 102.591C291.875 106.626 290.877 110.99 288.051 114.106Z" fill="#0E2230"/>
<path d="M251.362 85.1789C243.407 93.989 240.957 100.217 240.726 102.23L237.951 96.8687L239.117 90.3059C240.09 86.6538 241.5 85.1791 248 77.9999C248.75 79.6291 250.441 82.8247 251.362 85.1789Z" fill="#0E2230"/>
</svg>
