<svg width="105" height="81" viewBox="0 0 105 81" fill="none" xmlns="http://www.w3.org/2000/svg">
<path d="M79.6333 48.0488L75.4026 11.6408C75.3809 11.4537 75.3168 11.274 75.2153 11.1154L73.8135 8.92506C73.5524 8.5171 73.0777 8.29845 72.598 8.36516L20.2907 15.6385C20.0152 15.6768 19.7606 15.8066 19.5678 16.007L17.1419 18.528C16.866 18.8147 16.7444 19.2163 16.8149 19.6079L18.3869 28.3348C18.4585 28.7323 18.7192 29.0701 19.0857 29.2401L66.0435 51.0159C66.2613 51.1169 66.5038 51.1525 66.7415 51.1184L78.5775 49.4197C79.2427 49.3242 79.7109 48.7163 79.6333 48.0488Z" fill="#FFFEEB" stroke="#163349" stroke-width="0.751346" stroke-linecap="round"/>
<path d="M68.4841 23.7532L28.0769 29.5839C27.3616 29.6872 26.8857 30.3776 27.0438 31.0828L27.922 35.0014C28.0148 35.4158 28.3132 35.7538 28.7128 35.8974L30.6181 36.582C30.8071 36.65 31.0097 36.671 31.2086 36.6433L70.7199 31.1397L69.8911 24.8195C69.8012 24.1341 69.1683 23.6544 68.4841 23.7532Z" fill="#FFFEEB" stroke="#163349" stroke-width="0.751346" stroke-linecap="round"/>
<path d="M26.813 26.1789L71.5264 20.0394" stroke="#163349" stroke-width="0.751346" stroke-linecap="round"/>
<path d="M27.6189 37.1549L73.5726 30.7673" stroke="#163349" stroke-width="0.751346" stroke-linecap="round"/>
<path d="M23.4098 54.9346L15.5249 20.9687L65.1296 43.2877C65.4859 43.4481 65.7459 43.7669 65.8311 44.1483L72.9984 76.2155C73.442 78.1998 71.441 79.8456 69.5795 79.0276L28.3742 60.9199C25.8685 59.8188 24.0287 57.6006 23.4098 54.9346Z" fill="#FFFEEB" stroke="#163349" stroke-width="0.751346" stroke-linecap="round"/>
<path d="M63.0701 43.7309L18.8353 25.0706C13.6103 22.8665 14.6208 15.1786 20.2378 14.3995L72.3267 7.17457C73.6949 6.9848 74.9546 7.94916 75.1284 9.31948L75.3517 11.0794C75.3957 11.2223 75.4273 11.3712 75.4453 11.5252L75.8668 15.1399L75.3517 11.0794C75 9.93745 73.8605 9.18284 72.6339 9.35632L20.4508 16.7371C17.4622 17.1598 16.9277 21.2493 19.7073 22.4258L65.4903 41.8048C67.3322 42.5845 68.6851 44.2047 69.1236 46.1562L75.496 74.5134C75.7197 75.5088 75.3111 76.5396 74.4663 77.1115L72.1849 78.6558C72.1068 78.7181 72.0243 78.7761 71.9377 78.8294L71.8358 78.8921L72.1849 78.6558C72.9211 78.0688 73.2687 77.1054 73.0573 76.17L66.7088 48.0778C66.2679 46.1269 64.913 44.5083 63.0701 43.7309Z" fill="#FFFEEB" stroke="#163349" stroke-width="0.751346" stroke-linecap="round"/>
<path d="M60.6966 56.6038L62.7598 55.2951L69.6687 58.2432C70.6534 58.6634 71.7879 58.5224 72.6398 57.874L80.3596 51.9985L82.538 52.9385L84.0529 61.9317L75.3327 68.7648C73.9034 69.8848 71.9764 70.1345 70.3089 69.4157L63.3641 66.4224L60.6966 56.6038Z" fill="#FFFEEB"/>
<path d="M60.6966 56.6038L62.7598 55.2951L69.6687 58.2432C70.6534 58.6634 71.7879 58.5224 72.6398 57.874L80.3596 51.9985L82.538 52.9385M60.6966 56.6038L68.8085 60.1482C70.4529 60.8667 72.3572 60.6412 73.7883 59.5584L82.538 52.9385M60.6966 56.6038L63.3641 66.4224L70.3089 69.4157C71.9764 70.1345 73.9034 69.8848 75.3327 68.7648L84.0529 61.9317L82.538 52.9385" stroke="#163349" stroke-width="0.751346" stroke-linecap="round"/>
<path d="M65.4356 1.17772L24.2069 7.02576C23.5242 7.1226 23.0516 7.75765 23.1548 8.43941L25.6521 24.9381L28.3628 26.0808L69.0452 20.4109L66.8411 2.25626C66.7573 1.56657 66.1235 1.08015 65.4356 1.17772Z" fill="#FF5F77" stroke="#163349" stroke-width="0.751346" stroke-linecap="round"/>
<path d="M67.1225 6.20926L23.7114 12.3488L24.7037 18.3644L67.8667 12.3488L67.1225 6.20926Z" fill="#163349"/>
<path d="M65.2829 69.9279L64.3851 66.9354L70.6694 69.4291L72.6645 69.9279L74.2605 69.4291C74.3602 69.7284 74.6395 70.5862 74.9587 71.6237C73.7617 73.2197 70.6029 72.2887 69.1732 71.6237L65.2829 69.9279Z" fill="#163349" stroke="#163349" stroke-width="0.751346"/>
<path d="M87.4656 30.3491C84.5543 33.81 81.7729 36.9467 79.1871 39.0865C76.6136 41.2161 74.3391 42.2689 72.3793 41.8297L68.7696 39.0889C67.0393 37.6265 66.6417 34.7383 67.6033 31.0786C68.5582 27.4446 70.8257 23.1874 74.1931 19.1843C77.5685 15.1717 81.0805 12.2083 84.3449 10.6468C87.6021 9.08857 90.5553 8.94813 92.9076 10.4587L95.7812 12.662C95.6159 14.7057 94.644 17.7847 93.1705 21.0152C91.653 24.3419 89.6256 27.7813 87.4656 30.3491Z" fill="#FFFEEB" stroke="#163349" stroke-width="0.751346"/>
<path d="M74.8589 24.8404L71.667 22.646C70.0044 25.1731 66.7193 31.0451 66.8789 34.3169C67.0784 38.4067 68.9736 39.4042 71.0684 40.9004C68.9935 36.0326 72.7309 28.1654 74.8589 24.8404Z" fill="#163349"/>
<path d="M90.7742 32.8869C87.4068 36.89 83.6008 39.8529 80.1839 41.416C76.7382 42.9922 73.8214 43.0931 72.0852 41.6326C70.349 40.1721 69.9489 37.2811 70.9119 33.6164C71.8668 29.9824 74.1343 25.7252 77.5017 21.7221C80.8691 17.719 84.6751 14.756 88.092 13.193C91.5377 11.6168 94.4545 11.5159 96.1907 12.9764C97.9269 14.4369 98.327 17.3279 97.364 20.9926C96.4091 24.6266 94.1416 28.8838 90.7742 32.8869Z" fill="#FF5F77" stroke="#163349" stroke-width="0.751346"/>
<path d="M89.2511 31.7073C86.406 35.0895 83.2424 37.6337 80.4412 39.0204C79.04 39.714 77.746 40.1098 76.6384 40.1875C75.5334 40.2649 74.6388 40.0253 73.989 39.4787C73.3391 38.932 72.9499 38.0917 72.837 36.9897C72.7238 35.8852 72.8922 34.5426 73.3357 33.0433C74.2222 30.046 76.1871 26.4935 79.0323 23.1112C81.8774 19.7289 85.041 17.1848 87.8423 15.7981C89.2435 15.1045 90.5374 14.7087 91.645 14.631C92.7501 14.5535 93.6446 14.7931 94.2945 15.3398C94.9444 15.8865 95.3336 16.7268 95.4465 17.8288C95.5596 18.9333 95.3912 20.2759 94.9478 21.7752C94.0612 24.7725 92.0963 28.325 89.2511 31.7073Z" fill="#FF5F77" stroke="#163349" stroke-width="0.751346"/>
<mask id="path-16-inside-1_1063_45143" fill="white">
<path fill-rule="evenodd" clip-rule="evenodd" d="M72.6193 37.8983C75.8232 39.7273 82.4838 36.2441 87.9425 29.7549C92.624 24.1896 94.9759 18.1319 94.0679 14.7262C94.2335 14.8207 94.3898 14.9294 94.5362 15.0525C97.5169 17.5598 95.2793 25.1248 89.5386 31.9493C83.7978 38.7739 76.7277 42.2737 73.7471 39.7664C73.1971 39.3038 72.8248 38.6689 72.6193 37.8983Z"/>
</mask>
<path fill-rule="evenodd" clip-rule="evenodd" d="M72.6193 37.8983C75.8232 39.7273 82.4838 36.2441 87.9425 29.7549C92.624 24.1896 94.9759 18.1319 94.0679 14.7262C94.2335 14.8207 94.3898 14.9294 94.5362 15.0525C97.5169 17.5598 95.2793 25.1248 89.5386 31.9493C83.7978 38.7739 76.7277 42.2737 73.7471 39.7664C73.1971 39.3038 72.8248 38.6689 72.6193 37.8983Z" fill="#163349"/>
<path d="M87.9425 29.7549L87.3676 29.2712L87.9425 29.7549ZM72.6193 37.8983L72.9918 37.2458L71.4301 36.3543L71.8933 38.0919L72.6193 37.8983ZM94.0679 14.7262L94.4404 14.0737L92.8787 13.1821L93.342 14.9197L94.0679 14.7262ZM94.5362 15.0525L94.0526 15.6275L94.0526 15.6275L94.5362 15.0525ZM89.5386 31.9493L90.1135 32.433L89.5386 31.9493ZM73.7471 39.7664L73.2634 40.3414L73.2634 40.3414L73.7471 39.7664ZM87.3676 29.2712C84.6871 32.4577 81.73 34.8824 79.0841 36.2818C77.7607 36.9817 76.5399 37.4119 75.4882 37.5667C74.4347 37.7217 73.6021 37.5942 72.9918 37.2458L72.2468 38.5508C73.2385 39.117 74.4399 39.2399 75.707 39.0534C76.9758 38.8667 78.362 38.3635 79.7866 37.6101C82.6367 36.1028 85.7392 33.5413 88.5175 30.2385L87.3676 29.2712ZM93.342 14.9197C93.734 16.3905 93.4407 18.5721 92.4042 21.1504C91.3783 23.7022 89.6647 26.5404 87.3676 29.2712L88.5175 30.2385C90.9019 27.404 92.7049 24.4308 93.7984 21.7109C94.8812 19.0176 95.3098 16.4676 94.7939 14.5326L93.342 14.9197ZM93.6954 15.3787C93.8223 15.4511 93.9413 15.5339 94.0526 15.6275L95.0199 14.4776C94.8383 14.3248 94.6447 14.1903 94.4404 14.0737L93.6954 15.3787ZM94.0526 15.6275C94.6072 16.094 94.9666 16.8317 95.0727 17.8673C95.1793 18.9079 95.0221 20.1992 94.5874 21.6689C93.7188 24.6058 91.7835 28.1134 88.9636 31.4657L90.1135 32.433C93.0344 28.9607 95.0883 25.2736 96.0284 22.0951C96.4981 20.507 96.7003 19.0105 96.5675 17.7142C96.4343 16.4129 95.9556 15.2647 95.0199 14.4776L94.0526 15.6275ZM88.9636 31.4657C86.1437 34.8179 83.0193 37.3252 80.2744 38.6839C78.9009 39.3639 77.6555 39.7398 76.6121 39.8129C75.5736 39.8858 74.7853 39.6579 74.2307 39.1914L73.2634 40.3414C74.1991 41.1285 75.4123 41.4034 76.7172 41.3119C78.0171 41.2208 79.4569 40.7654 80.9411 40.0307C83.9116 38.5602 87.1927 35.9053 90.1135 32.433L88.9636 31.4657ZM74.2307 39.1914C73.8188 38.8449 73.5184 38.3539 73.3453 37.7048L71.8933 38.0919C72.1311 38.9839 72.5753 39.7626 73.2634 40.3414L74.2307 39.1914Z" fill="#163349" mask="url(#path-16-inside-1_1063_45143)"/>
</svg>
