<svg width="230" height="31" viewBox="0 0 230 31" fill="none" xmlns="http://www.w3.org/2000/svg">
<path d="M38.4622 24.3815V9.78821H33.2095V6.37817H47.5486V9.78821H42.317V24.3815H38.4622Z" fill="#C0CDDB"/>
<path d="M49.3201 24.3815V6.37817H53.1749V13.4524H53.2808C54.001 10.5719 55.8437 9.23752 58.0888 9.23752C61.2658 9.23752 63.7228 11.2708 63.7228 15.4434V24.3815H59.8679V16.2906C59.8679 14.0878 58.6183 12.6476 56.5214 12.6476C54.4246 12.6476 53.1749 14.0878 53.1749 16.2906V24.3815H49.3201Z" fill="#C0CDDB"/>
<path d="M74.4781 24.7204C69.4372 24.7204 66.2601 21.4162 66.2601 16.9684C66.2601 12.4993 69.4583 9.23752 74.2451 9.23752C79.0742 9.23752 82.103 12.4993 82.103 17.2437V18.1333H70.009C70.4538 20.4631 72.2753 21.628 74.3934 21.628C76.2784 21.628 77.8246 20.8867 78.3541 19.5312H82.103C81.5523 22.9624 78.3117 24.7204 74.4781 24.7204ZM70.1573 15.2316H78.4812C77.8881 13.3253 76.2572 12.3299 74.3298 12.3299C72.466 12.3299 70.7927 13.3253 70.1573 15.2316Z" fill="#C0CDDB"/>
<path d="M97.9264 24.3815L96.5497 19.9971H88.607L87.2303 24.3815H83.0578L89.1154 6.37817H96.0625L102.078 24.3815H97.9264ZM89.6449 16.6083H95.5118L93.2244 9.27988H91.9324L89.6449 16.6083Z" fill="#C0CDDB"/>
<path d="M104.257 24.3815V9.57641H112.644V12.9864H108.112V24.3815H104.257Z" fill="#C0CDDB"/>
<path d="M125.48 24.3815L121.223 18.6416H118.66V24.3815H114.806V6.37817H118.66V15.2316H121.138L124.845 9.57641H129.229L124.167 16.8625L129.992 24.3815H125.48Z" fill="#C0CDDB"/>
<path d="M132.414 24.3815V6.37817H138.344C144.169 6.37817 146.986 9.19516 146.986 13.5583C146.986 17.9215 144.169 20.7173 138.344 20.7173H136.268V24.3815H132.414ZM138.28 9.78821H136.268V17.3072H138.28C141.415 17.3072 142.961 15.9729 142.961 13.5583C142.961 11.1226 141.415 9.78821 138.28 9.78821Z" fill="#C0CDDB"/>
<path d="M149.451 24.3815V9.57641H157.839V12.9864H153.306V24.3815H149.451Z" fill="#C0CDDB"/>
<path d="M166.686 24.6992C161.921 24.6992 158.511 21.4374 158.511 16.9684C158.511 12.4993 161.921 9.23752 166.686 9.23752C171.452 9.23752 174.862 12.4993 174.862 16.9684C174.862 21.4374 171.452 24.6992 166.686 24.6992ZM166.686 21.4374C168.741 21.4374 170.816 20.0183 170.816 16.9684C170.816 13.8972 168.741 12.4993 166.686 12.4993C164.632 12.4993 162.556 13.8972 162.556 16.9684C162.556 20.0183 164.632 21.4374 166.686 21.4374Z" fill="#C0CDDB"/>
<path d="M181.457 28.5328H174.362V25.3981H177.603V11.8639H181.457V28.5328ZM177.476 9.76703V6.37817H181.585V9.76703H177.476Z" fill="#C0CDDB"/>
<path d="M192.77 24.7204C187.729 24.7204 184.552 21.4162 184.552 16.9684C184.552 12.4993 187.75 9.23752 192.537 9.23752C197.366 9.23752 200.395 12.4993 200.395 17.2437V18.1333H188.301C188.745 20.4631 190.567 21.628 192.685 21.628C194.57 21.628 196.116 20.8867 196.646 19.5312H200.395C199.844 22.9624 196.603 24.7204 192.77 24.7204ZM188.449 15.2316H196.773C196.18 13.3253 194.549 12.3299 192.621 12.3299C190.757 12.3299 189.084 13.3253 188.449 15.2316Z" fill="#C0CDDB"/>
<path d="M210.741 24.6992C205.869 24.6992 202.65 21.4374 202.65 16.9684C202.65 12.4993 205.869 9.23752 210.699 9.23752C215.125 9.23752 217.879 11.8639 218.239 15.6764H214.342C214.087 13.516 212.541 12.3722 210.677 12.3722C208.665 12.3722 206.696 13.8972 206.696 16.9684C206.696 20.0183 208.665 21.5645 210.72 21.5645C212.732 21.5645 214.299 20.3572 214.596 18.2604H218.493C218.133 22.2211 215.062 24.6992 210.741 24.6992Z" fill="#C0CDDB"/>
<path d="M221.431 24.3815V6.37817H225.286V9.57641H229.332V12.9864H225.286V24.3815H221.431Z" fill="#C0CDDB"/>
<path fill-rule="evenodd" clip-rule="evenodd" d="M12.9364 28.7256C21.0817 29.8572 28.4896 24.9813 29.4824 17.8351C30.4752 10.6888 24.6769 3.97828 16.5316 2.84671C13.1994 2.38379 9.99057 2.92627 7.29392 4.21828C8.9094 3.76266 10.6598 3.55612 12.4776 3.64968C20.0604 4.03999 25.9425 9.50504 25.6156 15.8562C25.2887 22.2074 18.8765 27.0396 11.2937 26.6493C8.52995 26.507 5.99213 25.6906 3.89852 24.4029C6.19764 26.637 9.33799 28.2257 12.9364 28.7256Z" fill="#F8545C"/>
<path fill-rule="evenodd" clip-rule="evenodd" d="M2.94889 7.80412C0.578607 9.48232 -1.02946 15.2653 0.914744 18.876C2.19523 21.2541 6.94906 22.5609 11.3139 22.4564C16.7677 22.4564 20.5518 19.2318 20.5518 15.2569C20.5518 11.469 17.5977 7.35736 7.24472 7.35736C5.84934 7.35991 4.27944 7.51555 2.94889 7.80412ZM2.34356 14.2553C3.06362 13.4018 4.06344 12.9155 5.11317 13.0253C6.1629 13.1352 7.04042 13.8179 7.56826 14.8019C7.64171 12.6961 6.69765 10.9534 5.34474 10.8119C3.99183 10.6704 2.70755 12.1799 2.34356 14.2553ZM13.841 14.2399C12.7913 14.1301 11.7914 14.6164 11.0714 15.4699C11.4353 13.3943 12.7196 11.8845 14.0726 12.0261C15.4257 12.1676 16.3697 13.9105 16.2961 16.0166C15.7683 15.0325 14.8908 14.3497 13.841 14.2399Z" fill="#F8545C"/>
</svg>
