<svg width="32" height="32" viewBox="0 0 32 32" fill="none" xmlns="http://www.w3.org/2000/svg">
<path d="M28.5901 0.262329H3.40975C1.67141 0.262329 0.262207 1.67153 0.262207 3.40987V28.5902C0.262207 30.3285 1.67141 31.7377 3.40975 31.7377H28.5901C30.3284 31.7377 31.7376 30.3285 31.7376 28.5902V3.40987C31.7376 1.67153 30.3284 0.262329 28.5901 0.262329Z" fill="black"/>
<path d="M24.3938 17.6791H21.0366V21.0363H24.3938V17.6791Z" fill="white"/>
<path d="M21.0358 14.3218H10.9634V17.679H21.0358V14.3218Z" fill="white"/>
<path d="M24.3938 7.60657H10.9634V10.9638H24.3938V7.60657Z" fill="white"/>
<path d="M21.0364 21.0363H7.60596V24.3935H21.0364V21.0363Z" fill="white"/>
<path d="M10.9632 10.9637H7.60596V14.321H10.9632V10.9637Z" fill="white"/>
</svg>
