<svg width="164" height="30" viewBox="0 0 164 30" fill="none" xmlns="http://www.w3.org/2000/svg">
<g clip-path="url(#clip0_2504_59776)">
<path fill-rule="evenodd" clip-rule="evenodd" d="M47.7704 19.0844C47.7704 21.3987 46.4461 22.7273 43.841 22.7273H37.6103V19.9844H43.1027C43.906 19.9844 44.2969 19.7058 44.2969 18.9987C44.2969 18.4202 43.8627 18.0559 42.9074 17.3916L39.6511 14.9058C38.0011 13.6629 37.3064 12.5058 37.3064 11.1343C37.3064 8.79864 38.6958 7.72729 41.4312 7.72729H47.5098V10.4701H42.039C41.1924 10.4701 40.7799 10.7487 40.7799 11.4773C40.7799 12.0344 41.2141 12.3987 42.191 13.0415L45.4257 15.2701C47.0756 16.3844 47.7704 17.7344 47.7704 19.0844Z" fill="white"/>
<path fill-rule="evenodd" clip-rule="evenodd" d="M60.5091 10.4702H56.572V22.7273H53.0723V10.4702H49.1353V7.72729H60.5091V10.4702Z" fill="white"/>
<path fill-rule="evenodd" clip-rule="evenodd" d="M69.8975 17.3273L67.8095 11.3915L65.7001 17.3273H69.8975ZM70.7923 19.8344H64.7839L63.7613 22.7273H60.054L65.9984 7.72729H69.5779L75.5224 22.7273H71.8152L70.7923 19.8344Z" fill="white"/>
<path fill-rule="evenodd" clip-rule="evenodd" d="M81.4247 14.7987C83.3349 14.7987 83.8992 14.1344 83.8992 12.5487C83.8992 10.963 83.3349 10.2987 81.4247 10.2987H79.9053V14.7987H81.4247ZM87.8062 22.7273H84.3116L83.6387 19.8558C83.2046 17.863 82.8139 17.3273 81.2945 17.3058H79.9053V22.7273H76.4324V7.72729H82.662C85.8961 7.72729 87.3721 9.14151 87.3721 12.2272C87.3721 14.3059 86.5473 15.5701 84.876 16.0844C86.0698 16.6416 86.6558 17.7559 87.1334 19.8558L87.8062 22.7273Z" fill="white"/>
<path fill-rule="evenodd" clip-rule="evenodd" d="M93.464 14.9916L98.8556 7.72729H102.894L97.2276 14.9916L103.275 22.7273H99.2362L93.464 14.9916ZM90.0811 22.7273H93.464V7.72729H90.0811V22.7273Z" fill="white"/>
<path fill-rule="evenodd" clip-rule="evenodd" d="M125.567 7.72729L121.027 22.7273H118.906L115.32 10.7273L111.735 22.7273H109.592L105.094 7.72729H107.174L110.717 20.3915L114.472 7.72729H116.169L119.924 20.3915L123.488 7.72729H125.567Z" fill="white"/>
<path fill-rule="evenodd" clip-rule="evenodd" d="M134.563 17.3916L131.72 9.8701L128.856 17.3916H134.563ZM135.101 18.8273H128.318L126.832 22.7273H124.658L130.665 7.72729H132.754L138.761 22.7273H136.587L135.101 18.8273Z" fill="white"/>
<path fill-rule="evenodd" clip-rule="evenodd" d="M145.292 15.0772C147.68 15.0772 148.57 14.1559 148.57 12.1416C148.57 10.1701 147.68 9.22732 145.292 9.22732H142.578V15.0772H145.292ZM151.045 22.7273H149.026L148.483 20.1558C147.94 17.4773 147.267 16.5773 145.227 16.5344H142.578V22.7273H140.581V7.72729H145.965C149.156 7.72729 150.567 9.12008 150.567 11.9701C150.567 14.1129 149.677 15.4201 147.81 15.8487C149.287 16.4058 149.96 17.6702 150.481 20.1558L151.045 22.7273Z" fill="white"/>
<path d="M156.214 9.31294V13.8772H162.9V15.3558H156.214V18.5702C156.214 20.3488 156.99 21.1416 158.759 21.1416H163.784V22.7273H158.457C155.308 22.7273 154.23 21.6987 154.23 18.7416V7.72729H163.784V9.31294H156.214Z" fill="white"/>
<path fill-rule="evenodd" clip-rule="evenodd" d="M14.5372 16.9237L11.9644 19.5747C11.9627 19.5762 11.9612 19.5779 11.9592 19.5791C11.9529 19.5833 11.9453 19.5856 11.9373 19.5856C11.915 19.5856 11.8968 19.567 11.8968 19.5439C11.8968 19.5393 11.8975 19.5347 11.8989 19.5305C11.8989 19.5304 11.8989 19.5306 11.8989 19.5305L12.8777 15.7687C12.9611 15.499 12.8991 15.192 12.6914 14.9781L10.1185 12.3271C10.1171 12.3254 10.1155 12.3237 10.1143 12.3217C10.1103 12.3153 10.1079 12.3076 10.1079 12.2993C10.1079 12.2761 10.126 12.2575 10.1484 12.2575C10.153 12.2575 10.1574 12.2583 10.1614 12.2597L13.8126 13.2682C14.0743 13.3542 14.3722 13.2903 14.5798 13.0763L17.1528 10.4255C17.1545 10.4239 17.156 10.4222 17.158 10.421C17.1643 10.4167 17.1718 10.4144 17.1799 10.4144C17.2022 10.4144 17.2204 10.4331 17.2204 10.4562C17.2204 10.4609 17.2196 10.4654 17.2182 10.4696L16.2395 14.2313C16.1561 14.5009 16.2181 14.8081 16.4257 15.022L18.9986 17.673C19.0001 17.6747 19.0017 17.6763 19.0028 17.6782C19.0069 17.6847 19.0093 17.6925 19.0093 17.7008C19.0093 17.7238 18.9911 17.7425 18.9688 17.7425C18.9642 17.7425 18.9598 17.7418 18.9558 17.7404C18.9557 17.7404 18.9559 17.7404 18.9558 17.7404L15.3046 16.7318C15.0429 16.6459 14.7448 16.7099 14.5372 16.9237ZM29.0061 14.7238L22.8606 8.39195C22.653 8.17805 22.355 8.11405 22.0933 8.20005L18.0521 9.31665C18.0516 9.31655 18.0515 9.31595 18.0507 9.31625C18.0469 9.31745 18.0428 9.31815 18.0386 9.31815C18.0162 9.31815 17.9981 9.29945 17.9981 9.27635C17.9981 9.26155 18.0055 9.24865 18.0167 9.24125C18.4579 8.93895 19.1264 8.39195 20.7254 6.74445C20.8734 6.59195 20.8734 6.34455 20.7254 6.19195L14.8267 0.11445C14.6787 -0.03815 14.4385 -0.03815 14.2905 0.11445L8.14497 6.44625C7.93737 6.66015 7.87535 6.96725 7.95882 7.23685L9.04246 11.4005C9.04236 11.401 9.04188 11.4012 9.04207 11.4021C9.04333 11.406 9.04391 11.4102 9.04391 11.4145C9.04391 11.4376 9.02576 11.4563 9.00334 11.4563C8.98908 11.4563 8.97646 11.4486 8.96928 11.4369C8.67587 10.9824 8.14497 10.2937 6.54606 8.64625C6.39795 8.49365 6.15783 8.49365 6.00982 8.64625L0.111082 14.7238C-0.0370272 14.8764 -0.0370272 15.1238 0.111082 15.2763L6.25654 21.608C6.46414 21.8219 6.7622 21.886 7.02387 21.7999L11.0651 20.6833C11.0656 20.6835 11.0656 20.684 11.0665 20.6838C11.0703 20.6826 11.0743 20.6819 11.0785 20.6819C11.1009 20.6819 11.1191 20.7006 11.1191 20.7236C11.1191 20.7383 11.1117 20.7514 11.1005 20.7589C11.1004 20.7589 11.1005 20.7588 11.1005 20.7589C10.6592 21.0611 9.9908 21.608 8.39179 23.2556C8.24368 23.4081 8.24368 23.6555 8.39179 23.8081L14.2905 29.8855C14.4385 30.0381 14.6787 30.0381 14.8267 29.8855L20.9721 23.5538C21.1797 23.3398 21.2418 23.0328 21.1584 22.7632L20.0747 18.5994C20.0747 18.5989 20.0753 18.5989 20.075 18.5981C20.0739 18.5941 20.0733 18.59 20.0733 18.5856C20.0733 18.5625 20.0914 18.5438 20.1137 18.5438C20.1281 18.5438 20.1407 18.5515 20.1479 18.5631C20.4412 19.0176 20.9721 19.7064 22.5711 21.3538C22.7192 21.5063 22.9593 21.5063 23.1074 21.3538L29.0061 15.2763C29.1541 15.1238 29.1541 14.8764 29.0061 14.7238Z" fill="white"/>
</g>
<defs>
<clipPath id="clip0_2504_59776">
<rect width="163.784" height="30" fill="white"/>
</clipPath>
</defs>
</svg>
