<svg width="33" height="32" fill="none" xmlns="http://www.w3.org/2000/svg"><circle cx="17" cy="16" r="16" fill="#fff"/><path d="M32.938 16c0 8.826-7.185 16-16.024 16C8.074 32 .937 24.826.937 16c0-8.825 7.185-16 16.024-16 8.84 0 15.976 7.174 15.976 16" fill="#29296E"/><path d="m24.383 11.705-.425-1.274c-.095-.236-.284-.472-.52-.52l-1.276-.377c-.19-.047-.19-.283 0-.377l1.276-.425c.236-.094.472-.283.52-.52l.378-1.274c.047-.188.283-.188.378 0l.425 1.275c.095.236.284.471.52.519l1.277.377c.189.048.189.283 0 .378l-1.277.425c-.236.094-.472.283-.52.519l-.378 1.274c-.047.189-.33.189-.378 0z" fill="#FAFAFA"/><path d="M2.403 15.717c.378-.755 1.135-1.322 1.938-1.652.804-.33 1.654-.566 2.506-.613 1.701-.142 3.403.142 4.915.613.804.237 1.513.567 2.222.897.33.189.71.377 1.04.566l.946.566c1.04.614 2.032 1.18 2.977 1.652.946.425 1.796.708 2.6.897.804.142 1.607.142 2.647-.095.993-.236 2.128-.708 3.309-1.321 1.181-.614 2.41-1.416 3.781-2.124a12.282 12.282 0 0 1-1.276 4.437c-.71 1.416-1.702 2.784-3.12 3.87-1.418 1.132-3.356 1.887-5.34 2.03-1.986.141-3.877-.284-5.484-.945-1.607-.66-2.978-1.557-4.207-2.502-.33-.283-.52-.424-.756-.613l-.71-.614c-.472-.377-.945-.802-1.417-1.18-.946-.755-1.844-1.557-2.884-2.218-.52-.33-1.04-.66-1.654-.944a5.606 5.606 0 0 0-.945-.378c-.33-.236-.662-.283-1.088-.33" fill="#FF4F0A"/><path d="M2.404 15.717c.19-1.604.946-3.115 2.174-4.389C5.76 10.054 7.65 9.063 9.73 8.921c1.04-.048 2.08.047 3.025.33.946.284 1.844.66 2.648 1.086.425.236.756.472 1.134.708l.992.755 1.56 1.227a46.156 46.156 0 0 0 2.884 2.171c.898.614 1.654 1.085 2.41 1.322.71.283 1.654.377 2.884.047.614-.142 1.229-.377 1.89-.66.662-.283 1.37-.614 2.127-.945-.094.803-.236 1.605-.567 2.36a9.406 9.406 0 0 1-1.229 2.218c-.284.331-.567.661-.945.992-.378.33-.756.613-1.182.849-.85.52-1.89.849-2.93.99-1.04.143-2.128.048-3.073-.141a11.65 11.65 0 0 1-2.647-.897c-1.607-.755-2.978-1.699-4.16-2.69a28.052 28.052 0 0 1-1.701-1.557l-.71-.566c-.189-.19-.378-.378-.567-.52-.756-.66-1.465-1.18-2.268-1.51-.757-.33-1.749-.472-2.978-.236-1.182.236-2.506.755-3.924 1.463M7.934 24.872a.85.85 0 1 0 0-1.7.85.85 0 0 0 0 1.7z" fill="#FAFAFA"/></svg>