<svg width="35" height="34" viewBox="0 0 35 34" fill="none" xmlns="http://www.w3.org/2000/svg">
<path d="M17.5164 33.4995C8.40371 33.4995 1.0166 26.1124 1.0166 16.9998C1.0166 7.88711 8.40371 0.5 17.5164 0.5C26.629 0.5 34.0166 7.88709 34.0166 16.9998C34.0166 26.1124 26.629 33.4995 17.5164 33.4995Z" fill="#163349" stroke="#375C78"/>
<path fill-rule="evenodd" clip-rule="evenodd" d="M10.7095 14.5032L11.197 12.3385C11.2961 12.0321 11.5379 11.7937 11.8453 11.6997L14.0137 11.2343C14.2232 11.1703 14.2249 10.8747 14.0171 10.8073L11.8555 10.3197C11.5497 10.2206 11.3114 9.97881 11.2168 9.67132L10.7519 7.49972C10.6879 7.29077 10.3923 7.2885 10.325 7.49689L9.83743 9.66113C9.73834 9.96692 9.49655 10.2053 9.18908 10.2999L7.22887 10.8322C7.01936 10.8967 7.01709 11.1918 7.22547 11.2591L9.17889 11.6793C9.48466 11.7784 9.72305 12.0208 9.81761 12.3283L10.2825 14.4998C10.3465 14.7093 10.6421 14.7115 10.7095 14.5032Z" fill="#FAFAFA"/>
<path fill-rule="evenodd" clip-rule="evenodd" d="M29.8403 12.5198C29.3348 11.9545 28.5458 11.6363 27.7788 11.5058C27.0057 11.3804 26.1951 11.3921 25.4318 11.5276C23.8876 11.7889 22.4846 12.4283 21.261 13.2171C20.6256 13.6043 20.0837 14.0522 19.5222 14.5085C19.2517 14.7392 19.0051 14.9849 18.7483 15.2271L18.0465 15.9254C17.2839 16.7225 16.5322 17.4485 15.805 18.0503C15.0748 18.6493 14.3921 19.1043 13.7193 19.422C13.047 19.7413 12.3276 19.9291 11.3899 19.9592C10.4604 19.992 9.36077 19.8242 8.1845 19.5473C7.00192 19.2717 5.76008 18.8787 4.37236 18.5406C4.85657 19.8839 5.58573 21.071 6.52189 22.1562C7.46902 23.2225 8.65172 24.1944 10.171 24.8335C11.6684 25.4869 13.5501 25.7214 15.3096 25.3676C17.0737 25.028 18.6219 24.2117 19.8732 23.2676C21.1278 22.3138 22.1428 21.2274 22.9985 20.0979C23.2347 19.7859 23.3596 19.6112 23.5306 19.3673L24.003 18.6675C24.3314 18.2346 24.6302 17.7417 24.9553 17.3128C25.5924 16.4145 26.2205 15.5173 26.9505 14.6907C27.318 14.2714 27.7053 13.8704 28.1627 13.485C28.3908 13.2969 28.6373 13.1128 28.9102 12.9469C29.1873 12.7681 29.4799 12.6281 29.8403 12.5198Z" fill="url(#paint0_linear_2807_37691)"/>
<path fill-rule="evenodd" clip-rule="evenodd" d="M29.84 12.5206C29.2968 11.1503 28.2873 9.99678 26.9322 9.1456C25.5854 8.30376 23.7147 7.87414 21.8611 8.24037C20.9453 8.41747 20.0581 8.75845 19.2795 9.21254C18.5044 9.66482 17.8099 10.2093 17.2086 10.7933C16.9085 11.0864 16.636 11.392 16.3654 11.6994L15.6639 12.5938L14.5803 14.0336C13.199 15.886 11.7115 18.057 9.27045 18.7002C6.87402 19.3317 5.83465 18.7725 4.37204 18.5414C4.63947 19.2319 4.97074 19.9024 5.41984 20.4923C5.86057 21.0941 6.38114 21.6594 7.02836 22.1439C7.35543 22.3766 7.70074 22.6063 8.08427 22.8011C8.46604 22.9892 8.87776 23.1549 9.31721 23.2796C10.1913 23.5192 11.1755 23.6031 12.1283 23.4743C13.0816 23.3471 13.9928 23.0449 14.7893 22.6437C15.5916 22.2463 16.2906 21.7622 16.9147 21.2514C18.1553 20.2211 19.1202 19.0828 19.9354 17.9321C20.3454 17.3568 20.7175 16.7706 21.0618 16.1843L21.4669 15.4862C21.5907 15.2822 21.716 15.0769 21.8432 14.8857C22.3565 14.1175 22.8586 13.5015 23.4685 13.0392C24.0699 12.5649 24.9072 12.2145 26.0262 12.1331C27.1406 12.0507 28.4271 12.2029 29.84 12.5206Z" fill="#FAFAFA"/>
<path fill-rule="evenodd" clip-rule="evenodd" d="M23.5166 24C23.5166 25.1043 24.4125 26 25.5171 26C26.6218 26 27.5166 25.1043 27.5166 24C27.5166 22.8957 26.6218 22 25.5171 22C24.4125 22 23.5166 22.8957 23.5166 24Z" fill="url(#paint1_linear_2807_37691)"/>
<defs>
<linearGradient id="paint0_linear_2807_37691" x1="29.704" y1="12.039" x2="-11.9167" y2="33.6935" gradientUnits="userSpaceOnUse">
<stop stop-color="#EC796B"/>
<stop offset="1" stop-color="#D672EF"/>
</linearGradient>
<linearGradient id="paint1_linear_2807_37691" x1="27.5152" y1="22.597" x2="20.2252" y2="23.2805" gradientUnits="userSpaceOnUse">
<stop stop-color="#EC796B"/>
<stop offset="1" stop-color="#D672EF"/>
</linearGradient>
</defs>
</svg>
