<svg width="35" height="34" viewBox="0 0 35 34" fill="none" xmlns="http://www.w3.org/2000/svg">
<g id="icon-ethereum">
<path id="BG" d="M17.4998 33.4995C8.38711 33.4995 1 26.1124 1 16.9998C1 7.88711 8.38711 0.5 17.4998 0.5C26.6124 0.5 34 7.88709 34 16.9998C34 26.1124 26.6124 33.4995 17.4998 33.4995Z" fill="#163349" stroke="#375C78"/>
<path id="Star" fill-rule="evenodd" clip-rule="evenodd" d="M10.6919 14.5034L11.1794 12.3387C11.2785 12.0324 11.5203 11.794 11.8277 11.6999L13.9961 11.2345C14.2056 11.1705 14.2073 10.8749 13.9995 10.8075L11.8379 10.3199C11.5322 10.2209 11.2938 9.97905 11.1992 9.67157L10.7343 7.49997C10.6703 7.29101 10.3748 7.28875 10.3074 7.49713L9.81985 9.66138C9.72076 9.96716 9.47897 10.2056 9.1715 10.3001L7.21129 10.8324C7.00178 10.897 6.99951 11.192 7.20789 11.2594L9.16131 11.6796C9.46708 11.7787 9.70547 12.021 9.80003 12.3285L10.2649 14.5C10.3289 14.7095 10.6245 14.7118 10.6919 14.5034Z" fill="#FAFAFA"/>
<path id="Orange" fill-rule="evenodd" clip-rule="evenodd" d="M29.8237 12.5202C29.3182 11.9549 28.5292 11.6366 27.7622 11.5061C26.9891 11.3808 26.1785 11.3924 25.4152 11.528C23.871 11.7892 22.468 12.4287 21.2444 13.2175C20.609 13.6046 20.0671 14.0526 19.5056 14.5088C19.2351 14.7396 18.9885 14.9853 18.7317 15.2275L18.0299 15.9257C17.2673 16.7229 16.5156 17.4489 15.7884 18.0507C15.0582 18.6497 14.3755 19.1046 13.7027 19.4223C13.0304 19.7417 12.311 19.9295 11.3733 19.9596C10.4438 19.9923 9.34417 19.8246 8.1679 19.5477C6.98531 19.272 5.74348 18.8791 4.35576 18.541C4.83997 19.8843 5.56913 21.0714 6.50529 22.1566C7.45242 23.2229 8.63511 24.1948 10.1544 24.8339C11.6518 25.4873 13.5335 25.7218 15.293 25.3679C17.0571 25.0284 18.6053 24.2121 19.8566 23.268C21.1112 22.3142 22.1262 21.2278 22.9819 20.0983C23.2181 19.7862 23.343 19.6116 23.514 19.3677L23.9864 18.6678C24.3148 18.2349 24.6136 17.7421 24.9387 17.3132C25.5758 16.4149 26.2039 15.5177 26.9339 14.691C27.3014 14.2718 27.6887 13.8708 28.1461 13.4854C28.3742 13.2972 28.6207 13.1131 28.8936 12.9473C29.1707 12.7684 29.4633 12.6284 29.8237 12.5202Z" fill="url(#paint0_linear_877_30713)"/>
<path id="White" fill-rule="evenodd" clip-rule="evenodd" d="M29.8234 12.5201C29.2802 11.1498 28.2707 9.99629 26.9156 9.14511C25.5688 8.30327 23.6981 7.87365 21.8444 8.23988C20.9287 8.41698 20.0415 8.75797 19.2629 9.21205C18.4878 9.66433 17.7933 10.2088 17.192 10.7929C16.8919 11.0859 16.6194 11.3915 16.3488 11.6989L15.6473 12.5933L14.5637 14.0331C13.1824 15.8855 11.6949 18.0565 9.25385 18.6998C6.85742 19.3313 5.81805 18.772 4.35544 18.5409C4.62287 19.2314 4.95414 19.9019 5.40324 20.4918C5.84397 21.0936 6.36454 21.6589 7.01175 22.1434C7.33883 22.3761 7.68414 22.6058 8.06766 22.8006C8.44944 22.9888 8.86116 23.1544 9.30061 23.2791C10.1747 23.5187 11.1589 23.6026 12.1117 23.4738C13.065 23.3466 13.9762 23.0445 14.7727 22.6432C15.575 22.2458 16.2739 21.7617 16.898 21.2509C18.1387 20.2206 19.1036 19.0823 19.9188 17.9316C20.3288 17.3563 20.7009 16.7701 21.0452 16.1838L21.4503 15.4857C21.5741 15.2817 21.6994 15.0764 21.8266 14.8852C22.3399 14.117 22.842 13.501 23.4519 13.0387C24.0532 12.5644 24.8906 12.214 26.0096 12.1326C27.124 12.0502 28.4105 12.2024 29.8234 12.5201Z" fill="#FAFAFA"/>
<path id="Planet" fill-rule="evenodd" clip-rule="evenodd" d="M23.5 24C23.5 25.1043 24.3959 26 25.5005 26C26.6052 26 27.5 25.1043 27.5 24C27.5 22.8957 26.6052 22 25.5005 22C24.3959 22 23.5 22.8957 23.5 24Z" fill="url(#paint1_linear_877_30713)"/>
</g>
<defs>
<linearGradient id="paint0_linear_877_30713" x1="29.6874" y1="12.0394" x2="-11.9333" y2="33.6938" gradientUnits="userSpaceOnUse">
<stop stop-color="#EC796B"/>
<stop offset="1" stop-color="#D672EF"/>
</linearGradient>
<linearGradient id="paint1_linear_877_30713" x1="27.4986" y1="22.597" x2="20.2086" y2="23.2805" gradientUnits="userSpaceOnUse">
<stop stop-color="#EC796B"/>
<stop offset="1" stop-color="#D672EF"/>
</linearGradient>
</defs>
</svg>
