<svg width="33" height="32" viewBox="0 0 33 32" fill="none" xmlns="http://www.w3.org/2000/svg">
<g id="Starknet">
<path id="Marvel" d="M32.4214 16C32.4214 24.8261 25.2371 32 16.398 32C7.55882 32 0.421387 24.8255 0.421387 16C0.421387 7.17452 7.60567 0 16.4448 0C25.284 0 32.4207 7.17387 32.4207 16" fill="#29296E"/>
<path id="Star" d="M23.8669 11.7052L23.4413 10.431C23.3469 10.1948 23.1575 9.9592 22.9213 9.91169L21.6452 9.53426C21.4558 9.48675 21.4558 9.25118 21.6452 9.15682L22.9213 8.73188C23.1575 8.63752 23.3938 8.4488 23.4413 8.21258L23.8194 6.93841C23.8669 6.7497 24.1031 6.7497 24.1974 6.93841L24.623 8.21258C24.7174 8.4488 24.9068 8.68438 25.143 8.73188L26.4191 9.10932C26.6085 9.15682 26.6085 9.39239 26.4191 9.48675L25.143 9.91169C24.9068 10.0061 24.6705 10.1948 24.623 10.431L24.2449 11.7052C24.1974 11.8939 23.9144 11.8939 23.8669 11.7052Z" fill="#FAFAFA"/>
<path id="Orange_wave" d="M1.88721 15.717C2.26529 14.9621 3.02146 14.3953 3.82514 14.0653C4.62882 13.7348 5.47935 13.4992 6.33053 13.4517C8.03224 13.3098 9.73395 13.5936 11.2463 14.0653C12.05 14.3016 12.7586 14.6315 13.468 14.9621C13.7985 15.1508 14.1773 15.3395 14.5079 15.5282L15.4534 16.0944C16.4933 16.708 17.4857 17.2742 18.4312 17.746C19.3768 18.1709 20.2273 18.454 21.031 18.6427C21.8347 18.7846 22.6383 18.7846 23.6782 18.5484C24.6706 18.3121 25.8055 17.8403 26.9867 17.2267C28.1684 16.613 29.397 15.8107 30.7682 15.1026C30.6263 16.6599 30.2007 18.1234 29.492 19.5395C28.7827 20.9555 27.7903 22.324 26.3723 23.4095C24.9544 24.5424 23.0164 25.2973 21.031 25.4392C19.0455 25.581 17.1551 25.1561 15.5478 24.4949C13.9404 23.8344 12.5699 22.9377 11.3413 21.9934C11.0107 21.7104 10.8214 21.5685 10.5851 21.3798L9.87582 20.7661C9.40337 20.3887 8.93028 19.9637 8.45783 19.5863C7.51229 18.8314 6.61426 18.0291 5.57436 17.3679C5.05441 17.0373 4.53446 16.7074 3.92015 16.4237C3.63642 16.2818 3.30584 16.1406 2.97461 16.0462C2.64403 15.81 2.3128 15.7632 1.88721 15.7156" fill="#FF4F0A"/>
<path id="White_wave" d="M1.88786 15.7173C2.07723 14.1125 2.8334 12.6021 4.06202 11.328C5.24378 10.0538 7.13421 9.06272 9.21401 8.92085C10.2539 8.87335 11.2938 8.96836 12.2393 9.25143C13.1849 9.53451 14.0829 9.91195 14.8866 10.3369C15.3122 10.5731 15.6428 10.8087 16.0209 11.0449L17.0133 11.7998L18.5731 13.0271C19.5655 13.8295 20.5585 14.5843 21.4566 15.198C22.3546 15.8116 23.1108 16.2834 23.867 16.5197C24.5763 16.8027 25.5212 16.8971 26.7504 16.5672C27.3647 16.4253 27.9797 16.1897 28.6409 15.9067C29.3027 15.6236 30.0113 15.293 30.7682 14.9624C30.6738 15.7648 30.5319 16.5672 30.2007 17.322C29.917 18.0769 29.4914 18.8324 28.9721 19.5404C28.6884 19.871 28.4046 20.201 28.0266 20.5315C27.6485 20.8621 27.2704 21.1452 26.8448 21.3808C25.9943 21.9001 24.9544 22.23 23.9145 22.3719C22.8746 22.5137 21.7872 22.4194 20.8423 22.23C19.8967 22.0413 18.9987 21.7107 18.195 21.3333C16.5877 20.5784 15.2172 19.6342 14.0354 18.6431C13.4211 18.1238 12.8537 17.6045 12.3337 17.0858L11.6244 16.5197C11.435 16.3309 11.2463 16.1422 11.0569 16.0004C10.3008 15.3399 9.59144 14.8206 8.78842 14.49C8.03224 14.1594 7.03985 14.0182 5.81058 14.2538C4.62882 14.49 3.30519 15.0086 1.88721 15.7166" fill="#FAFAFA"/>
<path id="Circle" d="M7.41767 24.8723C7.8874 24.8723 8.2682 24.4921 8.2682 24.0231C8.2682 23.554 7.8874 23.1738 7.41767 23.1738C6.94793 23.1738 6.56714 23.554 6.56714 24.0231C6.56714 24.4921 6.94793 24.8723 7.41767 24.8723Z" fill="#FAFAFA"/>
</g>
</svg>
