<svg width="144" height="42" viewBox="0 0 144 42" fill="none" xmlns="http://www.w3.org/2000/svg">
<mask id="mask0_3517_42415" style="mask-type:luminance" maskUnits="userSpaceOnUse" x="3" y="2" width="35" height="38">
<path d="M37.9419 2.65996H3.92188V39.48H37.9419V2.65996Z" fill="white"/>
</mask>
<g mask="url(#mask0_3517_42415)">
<path d="M15.9193 21.9409L3.92188 18.9403V3.80618L15.9193 17.484V21.9409Z" fill="black"/>
<path d="M15.9463 26.0337L8.02734 30.5527V24.008L15.9463 23.5079V26.0337Z" fill="black"/>
<path d="M33.6406 9.76158L35.8806 7.39618V3.87826L33.6406 6.77081V9.76158Z" fill="black"/>
<path d="M27.3984 23.9026L37.9427 25.0597V13.7282L27.3984 19.5935V23.9026Z" fill="black"/>
<path d="M27.3945 27.4745L30.7743 29.711V26.4392L27.3945 25.3246V27.4745Z" fill="black"/>
<path d="M27.418 17.7724L29.2996 16.2017V11.9521L27.418 14.4779V17.7724Z" fill="black"/>
<path d="M27.2597 28.7856H25.1562L28.3169 32.9623H31.9912L27.2597 28.7856Z" fill="black"/>
<path d="M18.3007 32.6054H13.7578L8.52344 39.48H16.3831L18.3007 32.6054Z" fill="black"/>
<path d="M23.9637 28.7947H20.2967L19.3984 36.7641H28.2838L23.9637 28.7947Z" fill="black"/>
<path d="M18.6443 28.7947H16.1071L14.8164 30.295H18.0336L18.6443 28.7947Z" fill="black"/>
<path d="M19.6399 13.6201H16.1012L13.7148 8.8848H19.0031L19.6399 13.6201Z" fill="black"/>
<path d="M27.1301 13.6075H21.3828L21.9038 2.65996H34.2155L27.1301 13.6075Z" fill="black"/>
</g>
<path d="M51.4758 29.0847C50.3256 29.0847 49.3064 28.8663 48.4182 28.4295C47.5446 27.9782 46.8603 27.3448 46.3653 26.5294C45.8848 25.7141 45.6445 24.775 45.6445 23.7121V13.8841C45.6445 13.8113 45.6664 13.753 45.7101 13.7094C45.7683 13.6511 45.8338 13.622 45.9066 13.622H49.0079C49.0807 13.622 49.1389 13.6511 49.1826 13.7094C49.2409 13.753 49.27 13.8113 49.27 13.8841V23.7121C49.27 24.3964 49.4665 24.9497 49.8597 25.3719C50.2673 25.7796 50.8061 25.9834 51.4758 25.9834C52.131 25.9834 52.6552 25.7796 53.0483 25.3719C53.456 24.9497 53.6598 24.3964 53.6598 23.7121V13.8841C53.6598 13.8113 53.6817 13.753 53.7253 13.7094C53.7836 13.6511 53.8491 13.622 53.9219 13.622H57.0232C57.096 13.622 57.1542 13.6511 57.1979 13.7094C57.2561 13.753 57.2853 13.8113 57.2853 13.8841V23.7121C57.2853 24.775 57.045 25.7141 56.5645 26.5294C56.0841 27.3448 55.3997 27.9782 54.5116 28.4295C53.638 28.8663 52.6261 29.0847 51.4758 29.0847Z" fill="black"/>
<path d="M65.1054 17.444C66.2411 17.444 67.173 17.808 67.901 18.536C68.629 19.2494 68.993 20.225 68.993 21.4626V28.6479C68.993 28.7207 68.9638 28.7862 68.9056 28.8445C68.8619 28.8882 68.8037 28.91 68.7309 28.91H65.6296C65.5568 28.91 65.4913 28.8882 65.433 28.8445C65.3894 28.7862 65.3675 28.7207 65.3675 28.6479V22.2488C65.3675 21.7538 65.2292 21.3461 64.9526 21.0258C64.6759 20.7054 64.3192 20.5453 63.8824 20.5453C63.431 20.5453 63.067 20.7054 62.7904 21.0258C62.5138 21.3315 62.3754 21.7392 62.3754 22.2488V28.6479C62.3754 28.7207 62.3463 28.7862 62.2881 28.8445C62.2444 28.8882 62.1862 28.91 62.1134 28.91H59.0121C58.9393 28.91 58.8738 28.8882 58.8155 28.8445C58.7718 28.7862 58.75 28.7207 58.75 28.6479V17.8808C58.75 17.808 58.7718 17.7498 58.8155 17.7061C58.8738 17.6478 58.9393 17.6187 59.0121 17.6187H62.1134C62.1862 17.6187 62.2444 17.6478 62.2881 17.7061C62.3463 17.7498 62.3754 17.808 62.3754 17.8808V18.6889C62.3754 18.7471 62.3827 18.7835 62.3973 18.7981C62.4264 18.7981 62.4555 18.7762 62.4846 18.7326C63.0379 17.8735 63.9115 17.444 65.1054 17.444Z" fill="black"/>
<path d="M77.2843 17.5969C77.3571 17.5969 77.4153 17.626 77.459 17.6842C77.5172 17.7279 77.5463 17.7862 77.5463 17.859V20.305C77.5463 20.3778 77.5172 20.4434 77.459 20.5016C77.4153 20.5453 77.3571 20.5671 77.2843 20.5671H75.2313C75.1585 20.5671 75.1221 20.6035 75.1221 20.6763V28.6479C75.1221 28.7207 75.093 28.7862 75.0347 28.8445C74.9911 28.8882 74.9328 28.91 74.86 28.91H71.7587C71.6859 28.91 71.6204 28.8882 71.5622 28.8445C71.5185 28.7862 71.4967 28.7207 71.4967 28.6479V20.6763C71.4967 20.6035 71.4603 20.5671 71.3875 20.5671H70.1644C70.0916 20.5671 70.0261 20.5453 69.9679 20.5016C69.9242 20.4434 69.9023 20.3778 69.9023 20.305V17.859C69.9023 17.7862 69.9242 17.7279 69.9679 17.6842C70.0261 17.626 70.0916 17.5969 70.1644 17.5969H71.3875C71.4603 17.5969 71.4967 17.5605 71.4967 17.4877V16.898C71.4967 16.039 71.6495 15.3692 71.9553 14.8887C72.2611 14.3937 72.7488 14.0515 73.4186 13.8622C74.0883 13.6584 74.9983 13.5783 76.1486 13.622H77.044C77.1168 13.622 77.1751 13.6511 77.2187 13.7093C77.277 13.753 77.3061 13.8113 77.3061 13.8841V15.8715C77.3061 15.9443 77.277 16.0098 77.2187 16.0681C77.1751 16.1118 77.1168 16.1336 77.044 16.1336H76.1923C75.7991 16.1627 75.5225 16.2574 75.3623 16.4175C75.2022 16.5777 75.1221 16.847 75.1221 17.2256V17.4877C75.1221 17.5605 75.1585 17.5969 75.2313 17.5969H77.2843Z" fill="black"/>
<path d="M84.588 17.4658C85.1122 17.4658 85.5199 17.5605 85.8111 17.7498C85.9275 17.8226 85.9712 17.9318 85.9421 18.0774L85.4398 21.1131C85.4252 21.2878 85.3233 21.3388 85.134 21.266C84.8719 21.2078 84.6244 21.1786 84.3915 21.1786C84.144 21.1786 83.9547 21.1932 83.8236 21.2223C83.3723 21.2806 82.9864 21.4553 82.6661 21.7465C82.3604 22.0377 82.2075 22.4235 82.2075 22.904V28.6479C82.2075 28.7207 82.1784 28.7862 82.1201 28.8445C82.0764 28.8882 82.0182 28.91 81.9454 28.91H78.8441C78.7713 28.91 78.7058 28.8882 78.6476 28.8445C78.6039 28.7862 78.582 28.7207 78.582 28.6479V17.8808C78.582 17.808 78.6039 17.7498 78.6476 17.7061C78.7058 17.6478 78.7713 17.6187 78.8441 17.6187H81.9454C82.0182 17.6187 82.0764 17.6478 82.1201 17.7061C82.1784 17.7498 82.2075 17.808 82.2075 17.8808V18.5797C82.2075 18.6234 82.222 18.6525 82.2512 18.667C82.2803 18.6816 82.3021 18.667 82.3167 18.6234C82.8991 17.8517 83.6562 17.4658 84.588 17.4658Z" fill="black"/>
<path d="M91.226 17.444C92.2015 17.444 93.0824 17.6114 93.8686 17.9463C94.6549 18.2666 95.2737 18.718 95.725 19.3004C96.1764 19.8682 96.4021 20.5016 96.4021 21.2005V28.6479C96.4021 28.7207 96.3729 28.7862 96.3147 28.8445C96.271 28.8882 96.2128 28.91 96.14 28.91H93.0387C92.9659 28.91 92.9004 28.8882 92.8421 28.8445C92.7984 28.7862 92.7766 28.7207 92.7766 28.6479V27.8835C92.7766 27.8253 92.7621 27.7962 92.7329 27.7962C92.7038 27.7816 92.6747 27.8034 92.6456 27.8617C92.0923 28.677 91.1459 29.0847 89.8064 29.0847C88.6416 29.0847 87.7097 28.8154 87.0109 28.2766C86.3265 27.7234 85.9844 26.9153 85.9844 25.8524C85.9844 24.7313 86.3702 23.865 87.1419 23.2534C87.9281 22.6419 89.0638 22.3362 90.5489 22.3362H92.6674C92.7402 22.3362 92.7766 22.2998 92.7766 22.227V21.812C92.7766 21.4189 92.6456 21.1131 92.3835 20.8947C92.1214 20.6618 91.7574 20.5453 91.2915 20.5453C90.942 20.5453 90.6363 20.6108 90.3742 20.7418C90.1267 20.8729 89.9665 21.0403 89.8937 21.2442C89.8209 21.4043 89.719 21.4771 89.588 21.4626L86.443 21.0476C86.2683 21.0185 86.1809 20.953 86.1809 20.851C86.2392 20.2104 86.4867 19.6353 86.9235 19.1257C87.3748 18.6015 87.9718 18.1938 88.7144 17.9026C89.4715 17.5969 90.3087 17.444 91.226 17.444ZM90.8765 26.4858C91.4298 26.4858 91.8812 26.3474 92.2306 26.0708C92.5946 25.7796 92.7766 25.401 92.7766 24.9351V24.411C92.7766 24.3382 92.7402 24.3018 92.6674 24.3018H91.357C90.8037 24.3018 90.3742 24.3964 90.0685 24.5857C89.7773 24.775 89.6316 25.0589 89.6316 25.4374C89.6316 25.7578 89.7409 26.0126 89.9593 26.2018C90.1777 26.3911 90.4834 26.4858 90.8765 26.4858Z" fill="black"/>
<path d="M110.731 17.444C111.866 17.444 112.755 17.7934 113.395 18.4923C114.036 19.1912 114.356 20.174 114.356 21.4407V28.6479C114.356 28.7207 114.327 28.7862 114.269 28.8445C114.225 28.8882 114.167 28.91 114.094 28.91H111.015C110.942 28.91 110.876 28.8882 110.818 28.8445C110.774 28.7862 110.753 28.7207 110.753 28.6479V22.227C110.753 21.7319 110.622 21.3315 110.359 21.0258C110.112 20.7054 109.777 20.5453 109.355 20.5453C108.933 20.5453 108.583 20.6982 108.307 21.0039C108.044 21.3097 107.913 21.7174 107.913 22.227V28.6479C107.913 28.7207 107.884 28.7862 107.826 28.8445C107.782 28.8882 107.724 28.91 107.651 28.91H104.55C104.477 28.91 104.412 28.8882 104.353 28.8445C104.31 28.7862 104.288 28.7207 104.288 28.6479V22.227C104.288 21.7319 104.15 21.3315 103.873 21.0258C103.611 20.7054 103.269 20.5453 102.847 20.5453C102.453 20.5453 102.126 20.669 101.864 20.9166C101.602 21.1641 101.441 21.4917 101.383 21.8994V28.6479C101.383 28.7207 101.354 28.7862 101.296 28.8445C101.252 28.8882 101.194 28.91 101.121 28.91H98.0199C97.9471 28.91 97.8816 28.8882 97.8233 28.8445C97.7797 28.7862 97.7578 28.7207 97.7578 28.6479V17.8808C97.7578 17.808 97.7797 17.7498 97.8233 17.7061C97.8816 17.6478 97.9471 17.6187 98.0199 17.6187H101.121C101.194 17.6187 101.252 17.6478 101.296 17.7061C101.354 17.7498 101.383 17.808 101.383 17.8808V18.8636C101.383 18.9218 101.398 18.9582 101.427 18.9728C101.456 18.9728 101.485 18.9437 101.514 18.8854C102.082 17.9245 103.014 17.444 104.31 17.444C105.038 17.444 105.678 17.6042 106.232 17.9245C106.785 18.2448 107.207 18.7107 107.498 19.3222C107.542 19.4096 107.586 19.4023 107.629 19.3004C107.935 18.6743 108.35 18.2084 108.874 17.9026C109.413 17.5969 110.032 17.444 110.731 17.444Z" fill="black"/>
<path d="M126.103 22.2706C126.176 22.7074 126.198 23.2826 126.169 23.996C126.154 24.1707 126.06 24.2581 125.885 24.2581H119.224C119.195 24.2581 119.165 24.2726 119.136 24.3018C119.107 24.3163 119.1 24.3382 119.114 24.3673C119.143 24.5274 119.216 24.7386 119.333 25.0006C119.507 25.3064 119.77 25.5539 120.119 25.7432C120.468 25.9325 120.898 26.0271 121.407 26.0271C122.325 26.0271 123.046 25.7286 123.57 25.1317C123.628 25.0589 123.693 25.0225 123.766 25.0225C123.839 25.0225 123.897 25.0516 123.941 25.1098L125.623 27.0318C125.681 27.0754 125.71 27.1337 125.71 27.2065C125.71 27.2647 125.681 27.323 125.623 27.3812C125.113 27.9345 124.48 28.3567 123.723 28.6479C122.98 28.9391 122.165 29.0847 121.277 29.0847C119.952 29.0847 118.823 28.8008 117.891 28.233C116.974 27.6506 116.312 26.8425 115.904 25.8087C115.598 25.0807 115.445 24.1707 115.445 23.0787C115.445 22.3216 115.562 21.5936 115.795 20.8947C116.173 19.8173 116.792 18.9728 117.651 18.3613C118.525 17.7352 119.558 17.4222 120.752 17.4222C121.713 17.4222 122.572 17.6333 123.33 18.0555C124.087 18.4632 124.698 19.0383 125.164 19.7809C125.645 20.5089 125.958 21.3388 126.103 22.2706ZM120.752 20.5453C119.995 20.5453 119.493 20.902 119.245 21.6154C119.187 21.7756 119.151 21.9285 119.136 22.0741C119.107 22.1469 119.136 22.1833 119.224 22.1833H122.325C122.383 22.1833 122.412 22.1542 122.412 22.0959C122.412 21.9794 122.383 21.8338 122.325 21.6591C122.223 21.2951 122.034 21.0185 121.757 20.8292C121.495 20.6399 121.16 20.5453 120.752 20.5453Z" fill="black"/>
<path d="M134.204 13.8841C134.204 13.8113 134.226 13.753 134.27 13.7094C134.328 13.6511 134.393 13.622 134.466 13.622H137.567C137.64 13.622 137.698 13.6511 137.742 13.7094C137.8 13.753 137.829 13.8113 137.829 13.8841V28.6479C137.829 28.7207 137.8 28.7862 137.742 28.8445C137.698 28.8882 137.64 28.91 137.567 28.91H134.466C134.393 28.91 134.328 28.8882 134.27 28.8445C134.226 28.7862 134.204 28.7207 134.204 28.6479V27.9272C134.204 27.8835 134.189 27.8617 134.16 27.8617C134.131 27.8471 134.102 27.8544 134.073 27.8835C133.491 28.6843 132.653 29.0847 131.561 29.0847C130.571 29.0847 129.69 28.7862 128.919 28.1893C128.162 27.5923 127.623 26.777 127.303 25.7432C127.07 24.957 126.953 24.1125 126.953 23.2098C126.953 22.1906 127.106 21.2733 127.412 20.4579C127.747 19.5552 128.278 18.8272 129.006 18.2739C129.749 17.7206 130.644 17.444 131.692 17.444C132.741 17.444 133.534 17.7862 134.073 18.4705C134.102 18.5142 134.131 18.5287 134.16 18.5142C134.189 18.4996 134.204 18.4705 134.204 18.4268V13.8841ZM133.833 25.1317C134.08 24.6658 134.204 24.047 134.204 23.2753C134.204 22.4308 134.066 21.7756 133.789 21.3097C133.483 20.8001 133.054 20.5453 132.5 20.5453C131.904 20.5453 131.459 20.8074 131.168 21.3315C130.877 21.8266 130.731 22.4745 130.731 23.2753C130.731 24.047 130.862 24.673 131.125 25.1535C131.43 25.7068 131.889 25.9834 132.5 25.9834C133.083 25.9834 133.527 25.6995 133.833 25.1317Z" fill="black"/>
</svg>
